<ttFont>
<head>
    <!-- Most of this table will be recalculated by the compiler -->
    <tableVersion value="1.0"/>
    <fontRevision value="1.00199890137"/>
    <checkSumAdjustment value="0x9c5e5956"/>
    <magicNumber value="0x5f0f3cf5"/>
    <flags value="00000000 00011001"/>
    <unitsPerEm value="2048"/>
    <created value="Fri Aug 31 12:28:00 2012"/>
    <modified value="Wed Sep 12 01:37:00 2012"/>
    <xMin value="-440"/>
    <yMin value="-539"/>
    <xMax value="1982"/>
    <yMax value="1959"/>
    <macStyle value="00000000 00000011"/>
    <lowestRecPPEM value="9"/>
    <fontDirectionHint value="2"/>
    <indexToLocFormat value="0"/>
    <glyphDataFormat value="0"/>
  </head>
    <TTGlyph name=".notdef" xMin="184" yMin="0" xMax="1410" yMax="1434">
      <contour>
        <pt x="1410" y="1434" on="1"/>
        <pt x="1208" y="0" on="1"/>
        <pt x="184" y="0" on="1"/>
        <pt x="386" y="1434" on="1"/>
      </contour>
      <contour>
        <pt x="535" y="1331" on="1"/>
        <pt x="810" y="809" on="1"/>
        <pt x="1231" y="1331" on="1"/>
      </contour>
      <contour>
        <pt x="1279" y="1239" on="1"/>
        <pt x="858" y="717" on="1"/>
        <pt x="1133" y="195" on="1"/>
      </contour>
      <contour>
        <pt x="460" y="1239" on="1"/>
        <pt x="314" y="195" on="1"/>
        <pt x="735" y="717" on="1"/>
      </contour>
      <contour>
        <pt x="784" y="625" on="1"/>
        <pt x="363" y="102" on="1"/>
        <pt x="1059" y="102" on="1"/>
      </contour>
    </TTGlyph>
    <TTGlyph name="A" xMin="-53" yMin="0" xMax="1143" yMax="1405">
      <contour>
        <pt x="891" y="1405" on="1"/>
        <pt x="1143" y="0" on="1"/>
        <pt x="877" y="0" on="1"/>
        <pt x="831" y="276" on="1"/>
        <pt x="330" y="276" on="1"/>
        <pt x="209" y="0" on="1"/>
        <pt x="-53" y="0" on="1"/>
        <pt x="590" y="1405" on="1"/>
      </contour>
      <contour>
        <pt x="731" y="895" on="1"/>
        <pt x="725" y="935" on="0"/>
        <pt x="716" y="1029" on="0"/>
        <pt x="713" y="1071" on="1"/>
        <pt x="709" y="1119" on="0"/>
        <pt x="707" y="1167" on="1"/>
        <pt x="698" y="1167" on="1"/>
        <pt x="684" y="1116" on="0"/>
        <pt x="668" y="1068" on="1"/>
        <pt x="654" y="1026" on="0"/>
        <pt x="621" y="933" on="0"/>
        <pt x="604" y="895" on="1"/>
        <pt x="434" y="510" on="1"/>
        <pt x="793" y="510" on="1"/>
      </contour>
    </TTGlyph>
    <TTGlyph name="AE" xMin="-106" yMin="0" xMax="1702" yMax="1405">
      <contour>
        <pt x="412" y="510" on="1"/>
        <pt x="766" y="510" on="1"/>
        <pt x="707" y="1167" on="1"/>
        <pt x="698" y="1167" on="1"/>
        <pt x="684" y="1117" on="0"/>
        <pt x="669" y="1068" on="1"/>
        <pt x="656" y="1026" on="0"/>
        <pt x="622" y="932" on="0"/>
        <pt x="604" y="895" on="1"/>
      </contour>
      <contour>
        <pt x="813" y="0" on="1"/>
        <pt x="788" y="276" on="1"/>
        <pt x="297" y="276" on="1"/>
        <pt x="160" y="0" on="1"/>
        <pt x="-106" y="0" on="1"/>
        <pt x="621" y="1405" on="1"/>
        <pt x="1702" y="1405" on="1"/>
        <pt x="1669" y="1171" on="1"/>
        <pt x="958" y="1171" on="1"/>
        <pt x="993" y="836" on="1"/>
        <pt x="1534" y="836" on="1"/>
        <pt x="1501" y="602" on="1"/>
        <pt x="1016" y="602" on="1"/>
        <pt x="1053" y="233" on="1"/>
        <pt x="1550" y="233" on="1"/>
        <pt x="1518" y="0" on="1"/>
      </contour>
    </TTGlyph>
    <TTGlyph name="AEacute" xMin="-106" yMin="0" xMax="1702" yMax="1808">
      <contour>
        <pt x="1182" y="1808" on="1"/>
        <pt x="1184" y="1802" on="1"/>
        <pt x="963" y="1538" on="1"/>
        <pt x="760" y="1538" on="1"/>
        <pt x="936" y="1808" on="1"/>
      </contour>
      <contour>
        <pt x="412" y="510" on="1"/>
        <pt x="766" y="510" on="1"/>
        <pt x="707" y="1167" on="1"/>
        <pt x="698" y="1167" on="1"/>
        <pt x="684" y="1117" on="0"/>
        <pt x="669" y="1068" on="1"/>
        <pt x="656" y="1026" on="0"/>
        <pt x="622" y="932" on="0"/>
        <pt x="604" y="895" on="1"/>
      </contour>
      <contour>
        <pt x="813" y="0" on="1"/>
        <pt x="788" y="276" on="1"/>
        <pt x="297" y="276" on="1"/>
        <pt x="160" y="0" on="1"/>
        <pt x="-106" y="0" on="1"/>
        <pt x="621" y="1405" on="1"/>
        <pt x="1702" y="1405" on="1"/>
        <pt x="1669" y="1171" on="1"/>
        <pt x="958" y="1171" on="1"/>
        <pt x="993" y="836" on="1"/>
        <pt x="1534" y="836" on="1"/>
        <pt x="1501" y="602" on="1"/>
        <pt x="1016" y="602" on="1"/>
        <pt x="1053" y="233" on="1"/>
        <pt x="1550" y="233" on="1"/>
        <pt x="1518" y="0" on="1"/>
      </contour>
    </TTGlyph>
    <TTGlyph name="Aacute" xMin="-53" yMin="0" xMax="1143" yMax="1809">
      <contour>
        <pt x="891" y="1405" on="1"/>
        <pt x="1143" y="0" on="1"/>
        <pt x="877" y="0" on="1"/>
        <pt x="831" y="276" on="1"/>
        <pt x="330" y="276" on="1"/>
        <pt x="209" y="0" on="1"/>
        <pt x="-53" y="0" on="1"/>
        <pt x="590" y="1405" on="1"/>
      </contour>
      <contour>
        <pt x="731" y="895" on="1"/>
        <pt x="725" y="935" on="0"/>
        <pt x="716" y="1029" on="0"/>
        <pt x="713" y="1071" on="1"/>
        <pt x="709" y="1119" on="0"/>
        <pt x="707" y="1167" on="1"/>
        <pt x="698" y="1167" on="1"/>
        <pt x="684" y="1116" on="0"/>
        <pt x="668" y="1068" on="1"/>
        <pt x="654" y="1026" on="0"/>
        <pt x="621" y="933" on="0"/>
        <pt x="604" y="895" on="1"/>
        <pt x="434" y="510" on="1"/>
        <pt x="793" y="510" on="1"/>
      </contour>
      <contour>
        <pt x="1049" y="1809" on="1"/>
        <pt x="1051" y="1803" on="1"/>
        <pt x="829" y="1538" on="1"/>
        <pt x="627" y="1538" on="1"/>
        <pt x="803" y="1809" on="1"/>
      </contour>
    </TTGlyph>
    <TTGlyph name="Abreve" xMin="-53" yMin="0" xMax="1143" yMax="1809">
      <contour>
        <pt x="891" y="1405" on="1"/>
        <pt x="1143" y="0" on="1"/>
        <pt x="877" y="0" on="1"/>
        <pt x="831" y="276" on="1"/>
        <pt x="330" y="276" on="1"/>
        <pt x="209" y="0" on="1"/>
        <pt x="-53" y="0" on="1"/>
        <pt x="590" y="1405" on="1"/>
      </contour>
      <contour>
        <pt x="731" y="895" on="1"/>
        <pt x="725" y="935" on="0"/>
        <pt x="716" y="1029" on="0"/>
        <pt x="713" y="1071" on="1"/>
        <pt x="709" y="1119" on="0"/>
        <pt x="707" y="1167" on="1"/>
        <pt x="698" y="1167" on="1"/>
        <pt x="684" y="1116" on="0"/>
        <pt x="668" y="1068" on="1"/>
        <pt x="654" y="1026" on="0"/>
        <pt x="621" y="933" on="0"/>
        <pt x="604" y="895" on="1"/>
        <pt x="434" y="510" on="1"/>
        <pt x="793" y="510" on="1"/>
      </contour>
      <contour>
        <pt x="772" y="1590" on="1"/>
        <pt x="711" y="1590" on="0"/>
        <pt x="617" y="1624" on="0"/>
        <pt x="552" y="1680" on="0"/>
        <pt x="518" y="1750" on="0"/>
        <pt x="518" y="1786" on="1"/>
        <pt x="518" y="1797" on="1"/>
        <pt x="518" y="1803" on="0"/>
        <pt x="520" y="1809" on="1"/>
        <pt x="672" y="1809" on="1"/>
        <pt x="673" y="1798" on="0"/>
        <pt x="688" y="1774" on="0"/>
        <pt x="717" y="1754" on="0"/>
        <pt x="757" y="1741" on="0"/>
        <pt x="783" y="1741" on="1"/>
        <pt x="809" y="1741" on="0"/>
        <pt x="854" y="1754" on="0"/>
        <pt x="890" y="1774" on="0"/>
        <pt x="913" y="1798" on="0"/>
        <pt x="916" y="1809" on="1"/>
        <pt x="1067" y="1809" on="1"/>
        <pt x="1062" y="1770" on="0"/>
        <pt x="1014" y="1692" on="0"/>
        <pt x="937" y="1629" on="0"/>
        <pt x="833" y="1590" on="0"/>
      </contour>
    </TTGlyph>
    <TTGlyph name="Acircumflex" xMin="-53" yMin="0" xMax="1143" yMax="1809">
      <contour>
        <pt x="891" y="1405" on="1"/>
        <pt x="1143" y="0" on="1"/>
        <pt x="877" y="0" on="1"/>
        <pt x="831" y="276" on="1"/>
        <pt x="330" y="276" on="1"/>
        <pt x="209" y="0" on="1"/>
        <pt x="-53" y="0" on="1"/>
        <pt x="590" y="1405" on="1"/>
      </contour>
      <contour>
        <pt x="731" y="895" on="1"/>
        <pt x="725" y="935" on="0"/>
        <pt x="716" y="1029" on="0"/>
        <pt x="713" y="1071" on="1"/>
        <pt x="709" y="1119" on="0"/>
        <pt x="707" y="1167" on="1"/>
        <pt x="698" y="1167" on="1"/>
        <pt x="684" y="1116" on="0"/>
        <pt x="668" y="1068" on="1"/>
        <pt x="654" y="1026" on="0"/>
        <pt x="621" y="933" on="0"/>
        <pt x="604" y="895" on="1"/>
        <pt x="434" y="510" on="1"/>
        <pt x="793" y="510" on="1"/>
      </contour>
      <contour>
        <pt x="893" y="1809" on="1"/>
        <pt x="1028" y="1532" on="1"/>
        <pt x="844" y="1532" on="1"/>
        <pt x="774" y="1674" on="1"/>
        <pt x="670" y="1532" on="1"/>
        <pt x="479" y="1532" on="1"/>
        <pt x="692" y="1809" on="1"/>
      </contour>
    </TTGlyph>
    <TTGlyph name="Adieresis" xMin="-53" yMin="0" xMax="1143" yMax="1809">
      <contour>
        <pt x="891" y="1405" on="1"/>
        <pt x="1143" y="0" on="1"/>
        <pt x="877" y="0" on="1"/>
        <pt x="831" y="276" on="1"/>
        <pt x="330" y="276" on="1"/>
        <pt x="209" y="0" on="1"/>
        <pt x="-53" y="0" on="1"/>
        <pt x="590" y="1405" on="1"/>
      </contour>
      <contour>
        <pt x="731" y="895" on="1"/>
        <pt x="725" y="935" on="0"/>
        <pt x="716" y="1029" on="0"/>
        <pt x="713" y="1071" on="1"/>
        <pt x="709" y="1119" on="0"/>
        <pt x="707" y="1167" on="1"/>
        <pt x="698" y="1167" on="1"/>
        <pt x="684" y="1116" on="0"/>
        <pt x="668" y="1068" on="1"/>
        <pt x="654" y="1026" on="0"/>
        <pt x="621" y="933" on="0"/>
        <pt x="604" y="895" on="1"/>
        <pt x="434" y="510" on="1"/>
        <pt x="793" y="510" on="1"/>
      </contour>
      <contour>
        <pt x="1075" y="1809" on="1"/>
        <pt x="1045" y="1585" on="1"/>
        <pt x="840" y="1585" on="1"/>
        <pt x="870" y="1809" on="1"/>
      </contour>
      <contour>
        <pt x="717" y="1809" on="1"/>
        <pt x="686" y="1585" on="1"/>
        <pt x="483" y="1585" on="1"/>
        <pt x="512" y="1809" on="1"/>
      </contour>
    </TTGlyph>
    <TTGlyph name="Agrave" xMin="-53" yMin="0" xMax="1143" yMax="1809">
      <contour>
        <pt x="891" y="1405" on="1"/>
        <pt x="1143" y="0" on="1"/>
        <pt x="877" y="0" on="1"/>
        <pt x="831" y="276" on="1"/>
        <pt x="330" y="276" on="1"/>
        <pt x="209" y="0" on="1"/>
        <pt x="-53" y="0" on="1"/>
        <pt x="590" y="1405" on="1"/>
      </contour>
      <contour>
        <pt x="731" y="895" on="1"/>
        <pt x="725" y="935" on="0"/>
        <pt x="716" y="1029" on="0"/>
        <pt x="713" y="1071" on="1"/>
        <pt x="709" y="1119" on="0"/>
        <pt x="707" y="1167" on="1"/>
        <pt x="698" y="1167" on="1"/>
        <pt x="684" y="1116" on="0"/>
        <pt x="668" y="1068" on="1"/>
        <pt x="654" y="1026" on="0"/>
        <pt x="621" y="933" on="0"/>
        <pt x="604" y="895" on="1"/>
        <pt x="434" y="510" on="1"/>
        <pt x="793" y="510" on="1"/>
      </contour>
      <contour>
        <pt x="513" y="1809" on="1"/>
        <pt x="759" y="1809" on="1"/>
        <pt x="896" y="1538" on="1"/>
        <pt x="693" y="1538" on="1"/>
        <pt x="509" y="1803" on="1"/>
      </contour>
    </TTGlyph>
    <TTGlyph name="Amacron" xMin="-53" yMin="0" xMax="1143" yMax="1733">
      <contour>
        <pt x="891" y="1405" on="1"/>
        <pt x="1143" y="0" on="1"/>
        <pt x="877" y="0" on="1"/>
        <pt x="831" y="276" on="1"/>
        <pt x="330" y="276" on="1"/>
        <pt x="209" y="0" on="1"/>
        <pt x="-53" y="0" on="1"/>
        <pt x="590" y="1405" on="1"/>
      </contour>
      <contour>
        <pt x="731" y="895" on="1"/>
        <pt x="725" y="935" on="0"/>
        <pt x="716" y="1029" on="0"/>
        <pt x="713" y="1071" on="1"/>
        <pt x="709" y="1119" on="0"/>
        <pt x="707" y="1167" on="1"/>
        <pt x="698" y="1167" on="1"/>
        <pt x="684" y="1116" on="0"/>
        <pt x="668" y="1068" on="1"/>
        <pt x="654" y="1026" on="0"/>
        <pt x="621" y="933" on="0"/>
        <pt x="604" y="895" on="1"/>
        <pt x="434" y="510" on="1"/>
        <pt x="793" y="510" on="1"/>
      </contour>
      <contour>
        <pt x="1042" y="1733" on="1"/>
        <pt x="1015" y="1555" on="1"/>
        <pt x="493" y="1555" on="1"/>
        <pt x="520" y="1733" on="1"/>
      </contour>
    </TTGlyph>
    <TTGlyph name="Aogonek" xMin="-53" yMin="-389" xMax="1184" yMax="1405">
      <contour>
        <pt x="850" y="-231" on="1"/>
        <pt x="850" y="-190" on="0"/>
        <pt x="869" y="-123" on="0"/>
        <pt x="902" y="-67" on="0"/>
        <pt x="945" y="-20" on="0"/>
        <pt x="968" y="0" on="1"/>
        <pt x="877" y="0" on="1"/>
        <pt x="831" y="276" on="1"/>
        <pt x="330" y="276" on="1"/>
        <pt x="209" y="0" on="1"/>
        <pt x="-53" y="0" on="1"/>
        <pt x="590" y="1405" on="1"/>
        <pt x="891" y="1405" on="1"/>
        <pt x="1143" y="0" on="1"/>
        <pt x="1131" y="-12" on="0"/>
        <pt x="1101" y="-48" on="0"/>
        <pt x="1076" y="-92" on="0"/>
        <pt x="1059" y="-141" on="0"/>
        <pt x="1059" y="-166" on="1"/>
        <pt x="1059" y="-200" on="0"/>
        <pt x="1095" y="-247" on="0"/>
        <pt x="1139" y="-247" on="1"/>
        <pt x="1184" y="-247" on="1"/>
        <pt x="1167" y="-360" on="1"/>
        <pt x="1130" y="-374" on="0"/>
        <pt x="1062" y="-389" on="0"/>
        <pt x="1028" y="-389" on="1"/>
        <pt x="996" y="-389" on="0"/>
        <pt x="932" y="-374" on="0"/>
        <pt x="881" y="-337" on="0"/>
        <pt x="850" y="-276" on="0"/>
      </contour>
      <contour>
        <pt x="731" y="895" on="1"/>
        <pt x="725" y="935" on="0"/>
        <pt x="716" y="1029" on="0"/>
        <pt x="713" y="1071" on="1"/>
        <pt x="709" y="1119" on="0"/>
        <pt x="707" y="1167" on="1"/>
        <pt x="698" y="1167" on="1"/>
        <pt x="684" y="1116" on="0"/>
        <pt x="668" y="1068" on="1"/>
        <pt x="654" y="1026" on="0"/>
        <pt x="621" y="933" on="0"/>
        <pt x="604" y="895" on="1"/>
        <pt x="434" y="510" on="1"/>
        <pt x="793" y="510" on="1"/>
      </contour>
    </TTGlyph>
    <TTGlyph name="Aring" xMin="-53" yMin="0" xMax="1143" yMax="1870">
      <contour>
        <pt x="891" y="1405" on="1"/>
        <pt x="1143" y="0" on="1"/>
        <pt x="877" y="0" on="1"/>
        <pt x="831" y="276" on="1"/>
        <pt x="330" y="276" on="1"/>
        <pt x="209" y="0" on="1"/>
        <pt x="-53" y="0" on="1"/>
        <pt x="590" y="1405" on="1"/>
      </contour>
      <contour>
        <pt x="731" y="895" on="1"/>
        <pt x="725" y="935" on="0"/>
        <pt x="716" y="1029" on="0"/>
        <pt x="713" y="1071" on="1"/>
        <pt x="709" y="1119" on="0"/>
        <pt x="707" y="1167" on="1"/>
        <pt x="698" y="1167" on="1"/>
        <pt x="684" y="1116" on="0"/>
        <pt x="668" y="1068" on="1"/>
        <pt x="654" y="1026" on="0"/>
        <pt x="621" y="933" on="0"/>
        <pt x="604" y="895" on="1"/>
        <pt x="434" y="510" on="1"/>
        <pt x="793" y="510" on="1"/>
      </contour>
      <contour>
        <pt x="775" y="1477" on="1"/>
        <pt x="735" y="1477" on="0"/>
        <pt x="663" y="1507" on="0"/>
        <pt x="609" y="1560" on="0"/>
        <pt x="578" y="1632" on="0"/>
        <pt x="578" y="1674" on="1"/>
        <pt x="578" y="1714" on="0"/>
        <pt x="609" y="1786" on="0"/>
        <pt x="662" y="1839" on="0"/>
        <pt x="734" y="1870" on="0"/>
        <pt x="775" y="1870" on="1"/>
        <pt x="816" y="1870" on="0"/>
        <pt x="888" y="1839" on="0"/>
        <pt x="941" y="1785" on="0"/>
        <pt x="971" y="1714" on="0"/>
        <pt x="971" y="1674" on="1"/>
        <pt x="971" y="1633" on="0"/>
        <pt x="940" y="1561" on="0"/>
        <pt x="887" y="1508" on="0"/>
        <pt x="815" y="1477" on="0"/>
      </contour>
      <contour>
        <pt x="775" y="1579" on="1"/>
        <pt x="794" y="1579" on="0"/>
        <pt x="828" y="1593" on="0"/>
        <pt x="854" y="1619" on="0"/>
        <pt x="869" y="1654" on="0"/>
        <pt x="869" y="1674" on="1"/>
        <pt x="869" y="1694" on="0"/>
        <pt x="854" y="1728" on="0"/>
        <pt x="828" y="1754" on="0"/>
        <pt x="794" y="1768" on="0"/>
        <pt x="775" y="1768" on="1"/>
        <pt x="734" y="1768" on="0"/>
        <pt x="680" y="1714" on="0"/>
        <pt x="680" y="1674" on="1"/>
        <pt x="680" y="1633" on="0"/>
        <pt x="734" y="1579" on="0"/>
      </contour>
    </TTGlyph>
    <TTGlyph name="Aringacute" xMin="-53" yMin="0" xMax="1143" yMax="1959">
      <contour>
        <pt x="1079" y="1959" on="1"/>
        <pt x="1081" y="1953" on="1"/>
        <pt x="891" y="1737" on="1"/>
        <pt x="689" y="1737" on="1"/>
        <pt x="833" y="1959" on="1"/>
      </contour>
      <contour>
        <pt x="755" y="1396" on="1"/>
        <pt x="774" y="1396" on="0"/>
        <pt x="808" y="1410" on="0"/>
        <pt x="834" y="1435" on="0"/>
        <pt x="849" y="1469" on="0"/>
        <pt x="849" y="1489" on="1"/>
        <pt x="849" y="1508" on="0"/>
        <pt x="834" y="1542" on="0"/>
        <pt x="808" y="1567" on="0"/>
        <pt x="774" y="1581" on="0"/>
        <pt x="755" y="1581" on="1"/>
        <pt x="714" y="1581" on="0"/>
        <pt x="660" y="1528" on="0"/>
        <pt x="660" y="1489" on="1"/>
        <pt x="660" y="1449" on="0"/>
        <pt x="714" y="1396" on="0"/>
      </contour>
      <contour>
        <pt x="731" y="895" on="1"/>
        <pt x="725" y="935" on="0"/>
        <pt x="716" y="1029" on="0"/>
        <pt x="713" y="1071" on="1"/>
        <pt x="709" y="1119" on="0"/>
        <pt x="707" y="1167" on="1"/>
        <pt x="698" y="1167" on="1"/>
        <pt x="684" y="1116" on="0"/>
        <pt x="668" y="1068" on="1"/>
        <pt x="654" y="1026" on="0"/>
        <pt x="621" y="933" on="0"/>
        <pt x="604" y="895" on="1"/>
        <pt x="434" y="510" on="1"/>
        <pt x="793" y="510" on="1"/>
      </contour>
      <contour>
        <pt x="951" y="1489" on="1"/>
        <pt x="951" y="1451" on="0"/>
        <pt x="923" y="1385" on="0"/>
        <pt x="899" y="1359" on="1"/>
        <pt x="1143" y="0" on="1"/>
        <pt x="877" y="0" on="1"/>
        <pt x="831" y="276" on="1"/>
        <pt x="330" y="276" on="1"/>
        <pt x="209" y="0" on="1"/>
        <pt x="-53" y="0" on="1"/>
        <pt x="584" y="1393" on="1"/>
        <pt x="572" y="1414" on="0"/>
        <pt x="558" y="1462" on="0"/>
        <pt x="558" y="1489" on="1"/>
        <pt x="558" y="1528" on="0"/>
        <pt x="589" y="1598" on="0"/>
        <pt x="642" y="1650" on="0"/>
        <pt x="714" y="1680" on="0"/>
        <pt x="755" y="1680" on="1"/>
        <pt x="796" y="1680" on="0"/>
        <pt x="868" y="1649" on="0"/>
        <pt x="921" y="1597" on="0"/>
        <pt x="951" y="1528" on="0"/>
      </contour>
    </TTGlyph>
    <TTGlyph name="Atilde" xMin="-53" yMin="0" xMax="1143" yMax="1809">
      <contour>
        <pt x="891" y="1405" on="1"/>
        <pt x="1143" y="0" on="1"/>
        <pt x="877" y="0" on="1"/>
        <pt x="831" y="276" on="1"/>
        <pt x="330" y="276" on="1"/>
        <pt x="209" y="0" on="1"/>
        <pt x="-53" y="0" on="1"/>
        <pt x="590" y="1405" on="1"/>
      </contour>
      <contour>
        <pt x="731" y="895" on="1"/>
        <pt x="725" y="935" on="0"/>
        <pt x="716" y="1029" on="0"/>
        <pt x="713" y="1071" on="1"/>
        <pt x="709" y="1119" on="0"/>
        <pt x="707" y="1167" on="1"/>
        <pt x="698" y="1167" on="1"/>
        <pt x="684" y="1116" on="0"/>
        <pt x="668" y="1068" on="1"/>
        <pt x="654" y="1026" on="0"/>
        <pt x="621" y="933" on="0"/>
        <pt x="604" y="895" on="1"/>
        <pt x="434" y="510" on="1"/>
        <pt x="793" y="510" on="1"/>
      </contour>
      <contour>
        <pt x="427" y="1559" on="1"/>
        <pt x="427" y="1599" on="0"/>
        <pt x="459" y="1688" on="0"/>
        <pt x="519" y="1761" on="0"/>
        <pt x="604" y="1809" on="0"/>
        <pt x="658" y="1809" on="1"/>
        <pt x="695" y="1809" on="0"/>
        <pt x="760" y="1785" on="0"/>
        <pt x="821" y="1757" on="0"/>
        <pt x="882" y="1733" on="0"/>
        <pt x="916" y="1733" on="1"/>
        <pt x="948" y="1733" on="0"/>
        <pt x="994" y="1765" on="0"/>
        <pt x="1007" y="1809" on="1"/>
        <pt x="1140" y="1809" on="1"/>
        <pt x="1140" y="1767" on="0"/>
        <pt x="1107" y="1678" on="0"/>
        <pt x="1046" y="1605" on="0"/>
        <pt x="959" y="1559" on="0"/>
        <pt x="904" y="1559" on="1"/>
        <pt x="868" y="1559" on="0"/>
        <pt x="804" y="1583" on="0"/>
        <pt x="743" y="1611" on="0"/>
        <pt x="682" y="1635" on="0"/>
        <pt x="648" y="1635" on="1"/>
        <pt x="616" y="1635" on="0"/>
        <pt x="570" y="1601" on="0"/>
        <pt x="558" y="1559" on="1"/>
      </contour>
    </TTGlyph>
    <TTGlyph name="B" xMin="57" yMin="0" xMax="1190" yMax="1405">
      <contour>
        <pt x="254" y="1405" on="1"/>
        <pt x="838" y="1405" on="1"/>
        <pt x="917" y="1405" on="0"/>
        <pt x="1047" y="1360" on="0"/>
        <pt x="1139" y="1278" on="0"/>
        <pt x="1190" y="1164" on="0"/>
        <pt x="1190" y="1094" on="1"/>
        <pt x="1190" y="1026" on="0"/>
        <pt x="1147" y="910" on="0"/>
        <pt x="1075" y="819" on="0"/>
        <pt x="981" y="754" on="0"/>
        <pt x="930" y="737" on="1"/>
        <pt x="928" y="729" on="1"/>
        <pt x="971" y="714" on="0"/>
        <pt x="1045" y="657" on="0"/>
        <pt x="1098" y="577" on="0"/>
        <pt x="1128" y="477" on="0"/>
        <pt x="1128" y="418" on="1"/>
        <pt x="1128" y="320" on="0"/>
        <pt x="1050" y="165" on="0"/>
        <pt x="921" y="57" on="0"/>
        <pt x="757" y="0" on="0"/>
        <pt x="670" y="0" on="1"/>
        <pt x="57" y="0" on="1"/>
      </contour>
      <contour>
        <pt x="401" y="604" on="1"/>
        <pt x="348" y="233" on="1"/>
        <pt x="657" y="233" on="1"/>
        <pt x="700" y="233" on="0"/>
        <pt x="776" y="260" on="0"/>
        <pt x="832" y="314" on="0"/>
        <pt x="864" y="394" on="0"/>
        <pt x="864" y="446" on="1"/>
        <pt x="864" y="480" on="0"/>
        <pt x="843" y="538" on="0"/>
        <pt x="800" y="580" on="0"/>
        <pt x="735" y="604" on="0"/>
        <pt x="690" y="604" on="1"/>
      </contour>
      <contour>
        <pt x="481" y="1171" on="1"/>
        <pt x="434" y="836" on="1"/>
        <pt x="707" y="836" on="1"/>
        <pt x="757" y="836" on="0"/>
        <pt x="835" y="868" on="0"/>
        <pt x="889" y="922" on="0"/>
        <pt x="918" y="992" on="0"/>
        <pt x="918" y="1030" on="1"/>
        <pt x="918" y="1101" on="0"/>
        <pt x="840" y="1171" on="0"/>
        <pt x="772" y="1171" on="1"/>
      </contour>
    </TTGlyph>
    <TTGlyph name="C" xMin="92" yMin="-25" xMax="1206" yMax="1430">
      <contour>
        <pt x="92" y="512" on="1"/>
        <pt x="92" y="620" on="0"/>
        <pt x="121" y="840" on="0"/>
        <pt x="184" y="1044" on="0"/>
        <pt x="283" y="1222" on="0"/>
        <pt x="423" y="1354" on="0"/>
        <pt x="607" y="1430" on="0"/>
        <pt x="723" y="1430" on="1"/>
        <pt x="834" y="1430" on="0"/>
        <pt x="1012" y="1365" on="0"/>
        <pt x="1138" y="1235" on="0"/>
        <pt x="1206" y="1039" on="0"/>
        <pt x="1206" y="909" on="1"/>
        <pt x="1206" y="883" on="1"/>
        <pt x="940" y="883" on="1"/>
        <pt x="940" y="920" on="1"/>
        <pt x="940" y="1057" on="0"/>
        <pt x="825" y="1204" on="0"/>
        <pt x="723" y="1204" on="1"/>
        <pt x="648" y="1204" on="0"/>
        <pt x="536" y="1139" on="0"/>
        <pt x="454" y="1031" on="0"/>
        <pt x="401" y="891" on="0"/>
        <pt x="369" y="739" on="0"/>
        <pt x="356" y="587" on="0"/>
        <pt x="356" y="522" on="1"/>
        <pt x="356" y="369" on="0"/>
        <pt x="469" y="201" on="0"/>
        <pt x="588" y="201" on="1"/>
        <pt x="657" y="201" on="0"/>
        <pt x="762" y="252" on="0"/>
        <pt x="839" y="340" on="0"/>
        <pt x="889" y="455" on="0"/>
        <pt x="903" y="520" on="1"/>
        <pt x="1159" y="520" on="1"/>
        <pt x="1135" y="410" on="0"/>
        <pt x="1043" y="212" on="0"/>
        <pt x="901" y="63" on="0"/>
        <pt x="707" y="-25" on="0"/>
        <pt x="582" y="-25" on="1"/>
        <pt x="466" y="-25" on="0"/>
        <pt x="284" y="40" on="0"/>
        <pt x="158" y="173" on="0"/>
        <pt x="92" y="375" on="0"/>
      </contour>
    </TTGlyph>
    <TTGlyph name="Cacute" xMin="92" yMin="-25" xMax="1206" yMax="1809">
      <contour>
        <pt x="92" y="512" on="1"/>
        <pt x="92" y="620" on="0"/>
        <pt x="121" y="840" on="0"/>
        <pt x="184" y="1044" on="0"/>
        <pt x="283" y="1222" on="0"/>
        <pt x="423" y="1354" on="0"/>
        <pt x="607" y="1430" on="0"/>
        <pt x="723" y="1430" on="1"/>
        <pt x="834" y="1430" on="0"/>
        <pt x="1012" y="1365" on="0"/>
        <pt x="1138" y="1235" on="0"/>
        <pt x="1206" y="1039" on="0"/>
        <pt x="1206" y="909" on="1"/>
        <pt x="1206" y="883" on="1"/>
        <pt x="940" y="883" on="1"/>
        <pt x="940" y="920" on="1"/>
        <pt x="940" y="1057" on="0"/>
        <pt x="825" y="1204" on="0"/>
        <pt x="723" y="1204" on="1"/>
        <pt x="648" y="1204" on="0"/>
        <pt x="536" y="1139" on="0"/>
        <pt x="454" y="1031" on="0"/>
        <pt x="401" y="891" on="0"/>
        <pt x="369" y="739" on="0"/>
        <pt x="356" y="587" on="0"/>
        <pt x="356" y="522" on="1"/>
        <pt x="356" y="369" on="0"/>
        <pt x="469" y="201" on="0"/>
        <pt x="588" y="201" on="1"/>
        <pt x="657" y="201" on="0"/>
        <pt x="762" y="252" on="0"/>
        <pt x="839" y="340" on="0"/>
        <pt x="889" y="455" on="0"/>
        <pt x="903" y="520" on="1"/>
        <pt x="1159" y="520" on="1"/>
        <pt x="1135" y="410" on="0"/>
        <pt x="1043" y="212" on="0"/>
        <pt x="901" y="63" on="0"/>
        <pt x="707" y="-25" on="0"/>
        <pt x="582" y="-25" on="1"/>
        <pt x="466" y="-25" on="0"/>
        <pt x="284" y="40" on="0"/>
        <pt x="158" y="173" on="0"/>
        <pt x="92" y="375" on="0"/>
      </contour>
      <contour>
        <pt x="1058" y="1809" on="1"/>
        <pt x="1060" y="1803" on="1"/>
        <pt x="838" y="1538" on="1"/>
        <pt x="636" y="1538" on="1"/>
        <pt x="812" y="1809" on="1"/>
      </contour>
    </TTGlyph>
    <TTGlyph name="Ccaron" xMin="92" yMin="-25" xMax="1206" yMax="1809">
      <contour>
        <pt x="92" y="512" on="1"/>
        <pt x="92" y="620" on="0"/>
        <pt x="121" y="840" on="0"/>
        <pt x="184" y="1044" on="0"/>
        <pt x="283" y="1222" on="0"/>
        <pt x="423" y="1354" on="0"/>
        <pt x="607" y="1430" on="0"/>
        <pt x="723" y="1430" on="1"/>
        <pt x="834" y="1430" on="0"/>
        <pt x="1012" y="1365" on="0"/>
        <pt x="1138" y="1235" on="0"/>
        <pt x="1206" y="1039" on="0"/>
        <pt x="1206" y="909" on="1"/>
        <pt x="1206" y="883" on="1"/>
        <pt x="940" y="883" on="1"/>
        <pt x="940" y="920" on="1"/>
        <pt x="940" y="1057" on="0"/>
        <pt x="825" y="1204" on="0"/>
        <pt x="723" y="1204" on="1"/>
        <pt x="648" y="1204" on="0"/>
        <pt x="536" y="1139" on="0"/>
        <pt x="454" y="1031" on="0"/>
        <pt x="401" y="891" on="0"/>
        <pt x="369" y="739" on="0"/>
        <pt x="356" y="587" on="0"/>
        <pt x="356" y="522" on="1"/>
        <pt x="356" y="369" on="0"/>
        <pt x="469" y="201" on="0"/>
        <pt x="588" y="201" on="1"/>
        <pt x="657" y="201" on="0"/>
        <pt x="762" y="252" on="0"/>
        <pt x="839" y="340" on="0"/>
        <pt x="889" y="455" on="0"/>
        <pt x="903" y="520" on="1"/>
        <pt x="1159" y="520" on="1"/>
        <pt x="1135" y="410" on="0"/>
        <pt x="1043" y="212" on="0"/>
        <pt x="901" y="63" on="0"/>
        <pt x="707" y="-25" on="0"/>
        <pt x="582" y="-25" on="1"/>
        <pt x="466" y="-25" on="0"/>
        <pt x="284" y="40" on="0"/>
        <pt x="158" y="173" on="0"/>
        <pt x="92" y="375" on="0"/>
      </contour>
      <contour>
        <pt x="709" y="1809" on="1"/>
        <pt x="780" y="1667" on="1"/>
        <pt x="883" y="1809" on="1"/>
        <pt x="1075" y="1809" on="1"/>
        <pt x="862" y="1532" on="1"/>
        <pt x="662" y="1532" on="1"/>
        <pt x="524" y="1809" on="1"/>
      </contour>
    </TTGlyph>
    <TTGlyph name="Ccedilla" xMin="92" yMin="-373" xMax="1206" yMax="1430">
      <contour>
        <pt x="92" y="512" on="1"/>
        <pt x="92" y="620" on="0"/>
        <pt x="121" y="840" on="0"/>
        <pt x="184" y="1044" on="0"/>
        <pt x="283" y="1222" on="0"/>
        <pt x="423" y="1354" on="0"/>
        <pt x="607" y="1430" on="0"/>
        <pt x="723" y="1430" on="1"/>
        <pt x="834" y="1430" on="0"/>
        <pt x="1012" y="1365" on="0"/>
        <pt x="1138" y="1235" on="0"/>
        <pt x="1206" y="1039" on="0"/>
        <pt x="1206" y="909" on="1"/>
        <pt x="1206" y="883" on="1"/>
        <pt x="940" y="883" on="1"/>
        <pt x="940" y="920" on="1"/>
        <pt x="940" y="1057" on="0"/>
        <pt x="825" y="1204" on="0"/>
        <pt x="723" y="1204" on="1"/>
        <pt x="648" y="1204" on="0"/>
        <pt x="536" y="1139" on="0"/>
        <pt x="454" y="1031" on="0"/>
        <pt x="401" y="891" on="0"/>
        <pt x="369" y="739" on="0"/>
        <pt x="356" y="587" on="0"/>
        <pt x="356" y="522" on="1"/>
        <pt x="356" y="369" on="0"/>
        <pt x="469" y="201" on="0"/>
        <pt x="588" y="201" on="1"/>
        <pt x="657" y="201" on="0"/>
        <pt x="762" y="252" on="0"/>
        <pt x="839" y="340" on="0"/>
        <pt x="889" y="455" on="0"/>
        <pt x="903" y="520" on="1"/>
        <pt x="1159" y="520" on="1"/>
        <pt x="1136" y="413" on="0"/>
        <pt x="1047" y="220" on="0"/>
        <pt x="911" y="72" on="0"/>
        <pt x="726" y="-19" on="0"/>
        <pt x="608" y="-24" on="1"/>
        <pt x="598" y="-68" on="1"/>
        <pt x="627" y="-70" on="0"/>
        <pt x="679" y="-85" on="0"/>
        <pt x="718" y="-113" on="0"/>
        <pt x="741" y="-155" on="0"/>
        <pt x="741" y="-184" on="1"/>
        <pt x="741" y="-243" on="0"/>
        <pt x="695" y="-316" on="0"/>
        <pt x="623" y="-358" on="0"/>
        <pt x="535" y="-373" on="0"/>
        <pt x="493" y="-373" on="1"/>
        <pt x="450" y="-373" on="0"/>
        <pt x="358" y="-364" on="0"/>
        <pt x="323" y="-356" on="1"/>
        <pt x="337" y="-256" on="1"/>
        <pt x="483" y="-256" on="1"/>
        <pt x="520" y="-256" on="0"/>
        <pt x="565" y="-232" on="0"/>
        <pt x="565" y="-195" on="1"/>
        <pt x="565" y="-176" on="0"/>
        <pt x="535" y="-158" on="0"/>
        <pt x="501" y="-158" on="1"/>
        <pt x="434" y="-158" on="1"/>
        <pt x="470" y="-17" on="1"/>
        <pt x="289" y="11" on="0"/>
        <pt x="92" y="273" on="0"/>
      </contour>
    </TTGlyph>
    <TTGlyph name="Ccircumflex" xMin="92" yMin="-25" xMax="1206" yMax="1809">
      <contour>
        <pt x="92" y="512" on="1"/>
        <pt x="92" y="620" on="0"/>
        <pt x="121" y="840" on="0"/>
        <pt x="184" y="1044" on="0"/>
        <pt x="283" y="1222" on="0"/>
        <pt x="423" y="1354" on="0"/>
        <pt x="607" y="1430" on="0"/>
        <pt x="723" y="1430" on="1"/>
        <pt x="834" y="1430" on="0"/>
        <pt x="1012" y="1365" on="0"/>
        <pt x="1138" y="1235" on="0"/>
        <pt x="1206" y="1039" on="0"/>
        <pt x="1206" y="909" on="1"/>
        <pt x="1206" y="883" on="1"/>
        <pt x="940" y="883" on="1"/>
        <pt x="940" y="920" on="1"/>
        <pt x="940" y="1057" on="0"/>
        <pt x="825" y="1204" on="0"/>
        <pt x="723" y="1204" on="1"/>
        <pt x="648" y="1204" on="0"/>
        <pt x="536" y="1139" on="0"/>
        <pt x="454" y="1031" on="0"/>
        <pt x="401" y="891" on="0"/>
        <pt x="369" y="739" on="0"/>
        <pt x="356" y="587" on="0"/>
        <pt x="356" y="522" on="1"/>
        <pt x="356" y="369" on="0"/>
        <pt x="469" y="201" on="0"/>
        <pt x="588" y="201" on="1"/>
        <pt x="657" y="201" on="0"/>
        <pt x="762" y="252" on="0"/>
        <pt x="839" y="340" on="0"/>
        <pt x="889" y="455" on="0"/>
        <pt x="903" y="520" on="1"/>
        <pt x="1159" y="520" on="1"/>
        <pt x="1135" y="410" on="0"/>
        <pt x="1043" y="212" on="0"/>
        <pt x="901" y="63" on="0"/>
        <pt x="707" y="-25" on="0"/>
        <pt x="582" y="-25" on="1"/>
        <pt x="466" y="-25" on="0"/>
        <pt x="284" y="40" on="0"/>
        <pt x="158" y="173" on="0"/>
        <pt x="92" y="375" on="0"/>
      </contour>
      <contour>
        <pt x="902" y="1809" on="1"/>
        <pt x="1037" y="1532" on="1"/>
        <pt x="853" y="1532" on="1"/>
        <pt x="783" y="1674" on="1"/>
        <pt x="679" y="1532" on="1"/>
        <pt x="488" y="1532" on="1"/>
        <pt x="701" y="1809" on="1"/>
      </contour>
    </TTGlyph>
    <TTGlyph name="Cdotaccent" xMin="92" yMin="-25" xMax="1206" yMax="1809">
      <contour>
        <pt x="92" y="512" on="1"/>
        <pt x="92" y="620" on="0"/>
        <pt x="121" y="840" on="0"/>
        <pt x="184" y="1044" on="0"/>
        <pt x="283" y="1222" on="0"/>
        <pt x="423" y="1354" on="0"/>
        <pt x="607" y="1430" on="0"/>
        <pt x="723" y="1430" on="1"/>
        <pt x="834" y="1430" on="0"/>
        <pt x="1012" y="1365" on="0"/>
        <pt x="1138" y="1235" on="0"/>
        <pt x="1206" y="1039" on="0"/>
        <pt x="1206" y="909" on="1"/>
        <pt x="1206" y="883" on="1"/>
        <pt x="940" y="883" on="1"/>
        <pt x="940" y="920" on="1"/>
        <pt x="940" y="1057" on="0"/>
        <pt x="825" y="1204" on="0"/>
        <pt x="723" y="1204" on="1"/>
        <pt x="648" y="1204" on="0"/>
        <pt x="536" y="1139" on="0"/>
        <pt x="454" y="1031" on="0"/>
        <pt x="401" y="891" on="0"/>
        <pt x="369" y="739" on="0"/>
        <pt x="356" y="587" on="0"/>
        <pt x="356" y="522" on="1"/>
        <pt x="356" y="369" on="0"/>
        <pt x="469" y="201" on="0"/>
        <pt x="588" y="201" on="1"/>
        <pt x="657" y="201" on="0"/>
        <pt x="762" y="252" on="0"/>
        <pt x="839" y="340" on="0"/>
        <pt x="889" y="455" on="0"/>
        <pt x="903" y="520" on="1"/>
        <pt x="1159" y="520" on="1"/>
        <pt x="1135" y="410" on="0"/>
        <pt x="1043" y="212" on="0"/>
        <pt x="901" y="63" on="0"/>
        <pt x="707" y="-25" on="0"/>
        <pt x="582" y="-25" on="1"/>
        <pt x="466" y="-25" on="0"/>
        <pt x="284" y="40" on="0"/>
        <pt x="158" y="173" on="0"/>
        <pt x="92" y="375" on="0"/>
      </contour>
      <contour>
        <pt x="913" y="1809" on="1"/>
        <pt x="878" y="1573" on="1"/>
        <pt x="659" y="1573" on="1"/>
        <pt x="693" y="1809" on="1"/>
      </contour>
    </TTGlyph>
    <TTGlyph name="D" xMin="57" yMin="0" xMax="1180" yMax="1405">
      <contour>
        <pt x="57" y="0" on="1"/>
        <pt x="254" y="1405" on="1"/>
        <pt x="686" y="1405" on="1"/>
        <pt x="803" y="1405" on="0"/>
        <pt x="986" y="1338" on="0"/>
        <pt x="1113" y="1205" on="0"/>
        <pt x="1180" y="1005" on="0"/>
        <pt x="1180" y="872" on="1"/>
        <pt x="1180" y="777" on="0"/>
        <pt x="1150" y="574" on="0"/>
        <pt x="1085" y="380" on="0"/>
        <pt x="984" y="207" on="0"/>
        <pt x="842" y="76" on="0"/>
        <pt x="657" y="0" on="0"/>
        <pt x="541" y="0" on="1"/>
      </contour>
      <contour>
        <pt x="481" y="1171" on="1"/>
        <pt x="350" y="233" on="1"/>
        <pt x="518" y="233" on="1"/>
        <pt x="596" y="233" on="0"/>
        <pt x="716" y="291" on="0"/>
        <pt x="804" y="388" on="0"/>
        <pt x="864" y="515" on="0"/>
        <pt x="900" y="653" on="0"/>
        <pt x="915" y="792" on="0"/>
        <pt x="915" y="854" on="1"/>
        <pt x="915" y="1013" on="0"/>
        <pt x="774" y="1171" on="0"/>
        <pt x="649" y="1171" on="1"/>
      </contour>
    </TTGlyph>
    <TTGlyph name="Dcaron" xMin="57" yMin="0" xMax="1180" yMax="1808">
      <contour>
        <pt x="698" y="1808" on="1"/>
        <pt x="770" y="1667" on="1"/>
        <pt x="872" y="1808" on="1"/>
        <pt x="1065" y="1808" on="1"/>
        <pt x="852" y="1532" on="1"/>
        <pt x="651" y="1532" on="1"/>
        <pt x="514" y="1808" on="1"/>
      </contour>
      <contour>
        <pt x="57" y="0" on="1"/>
        <pt x="254" y="1405" on="1"/>
        <pt x="686" y="1405" on="1"/>
        <pt x="803" y="1405" on="0"/>
        <pt x="986" y="1338" on="0"/>
        <pt x="1113" y="1205" on="0"/>
        <pt x="1180" y="1005" on="0"/>
        <pt x="1180" y="872" on="1"/>
        <pt x="1180" y="777" on="0"/>
        <pt x="1150" y="574" on="0"/>
        <pt x="1085" y="380" on="0"/>
        <pt x="984" y="207" on="0"/>
        <pt x="842" y="76" on="0"/>
        <pt x="657" y="0" on="0"/>
        <pt x="541" y="0" on="1"/>
      </contour>
      <contour>
        <pt x="481" y="1171" on="1"/>
        <pt x="350" y="233" on="1"/>
        <pt x="518" y="233" on="1"/>
        <pt x="596" y="233" on="0"/>
        <pt x="716" y="291" on="0"/>
        <pt x="804" y="388" on="0"/>
        <pt x="864" y="515" on="0"/>
        <pt x="900" y="653" on="0"/>
        <pt x="915" y="792" on="0"/>
        <pt x="915" y="854" on="1"/>
        <pt x="915" y="1013" on="0"/>
        <pt x="774" y="1171" on="0"/>
        <pt x="649" y="1171" on="1"/>
      </contour>
    </TTGlyph>
    <TTGlyph name="Dcroat" xMin="47" yMin="0" xMax="1180" yMax="1405">
      <contour>
        <pt x="57" y="0" on="1"/>
        <pt x="145" y="639" on="1"/>
        <pt x="47" y="639" on="1"/>
        <pt x="70" y="813" on="1"/>
        <pt x="170" y="813" on="1"/>
        <pt x="254" y="1405" on="1"/>
        <pt x="686" y="1405" on="1"/>
        <pt x="803" y="1405" on="0"/>
        <pt x="986" y="1338" on="0"/>
        <pt x="1113" y="1205" on="0"/>
        <pt x="1180" y="1005" on="0"/>
        <pt x="1180" y="872" on="1"/>
        <pt x="1180" y="777" on="0"/>
        <pt x="1150" y="574" on="0"/>
        <pt x="1085" y="380" on="0"/>
        <pt x="984" y="207" on="0"/>
        <pt x="842" y="76" on="0"/>
        <pt x="657" y="0" on="0"/>
        <pt x="541" y="0" on="1"/>
      </contour>
      <contour>
        <pt x="481" y="1171" on="1"/>
        <pt x="430" y="813" on="1"/>
        <pt x="684" y="813" on="1"/>
        <pt x="659" y="639" on="1"/>
        <pt x="406" y="639" on="1"/>
        <pt x="350" y="233" on="1"/>
        <pt x="518" y="233" on="1"/>
        <pt x="596" y="233" on="0"/>
        <pt x="716" y="291" on="0"/>
        <pt x="804" y="388" on="0"/>
        <pt x="864" y="515" on="0"/>
        <pt x="900" y="653" on="0"/>
        <pt x="915" y="792" on="0"/>
        <pt x="915" y="854" on="1"/>
        <pt x="915" y="1013" on="0"/>
        <pt x="774" y="1171" on="0"/>
        <pt x="649" y="1171" on="1"/>
      </contour>
    </TTGlyph>
    <TTGlyph name="Delta" xMin="-55" yMin="0" xMax="1083" yMax="1405">
      <contour>
        <pt x="551" y="1405" on="1"/>
        <pt x="852" y="1405" on="1"/>
        <pt x="1083" y="113" on="1"/>
        <pt x="1067" y="0" on="1"/>
        <pt x="-55" y="0" on="1"/>
        <pt x="-39" y="113" on="1"/>
      </contour>
      <contour>
        <pt x="655" y="1108" on="1"/>
        <pt x="647" y="1108" on="1"/>
        <pt x="260" y="233" on="1"/>
        <pt x="801" y="233" on="1"/>
      </contour>
    </TTGlyph>
    <TTGlyph name="E" xMin="57" yMin="0" xMax="1139" yMax="1405">
      <contour>
        <pt x="57" y="0" on="1"/>
        <pt x="254" y="1405" on="1"/>
        <pt x="1139" y="1405" on="1"/>
        <pt x="1106" y="1171" on="1"/>
        <pt x="481" y="1171" on="1"/>
        <pt x="434" y="836" on="1"/>
        <pt x="971" y="836" on="1"/>
        <pt x="938" y="602" on="1"/>
        <pt x="401" y="602" on="1"/>
        <pt x="348" y="233" on="1"/>
        <pt x="987" y="233" on="1"/>
        <pt x="954" y="0" on="1"/>
      </contour>
    </TTGlyph>
    <TTGlyph name="Eacute" xMin="57" yMin="0" xMax="1139" yMax="1808">
      <contour>
        <pt x="1018" y="1808" on="1"/>
        <pt x="1020" y="1802" on="1"/>
        <pt x="799" y="1538" on="1"/>
        <pt x="596" y="1538" on="1"/>
        <pt x="772" y="1808" on="1"/>
      </contour>
      <contour>
        <pt x="57" y="0" on="1"/>
        <pt x="254" y="1405" on="1"/>
        <pt x="1139" y="1405" on="1"/>
        <pt x="1106" y="1171" on="1"/>
        <pt x="481" y="1171" on="1"/>
        <pt x="434" y="836" on="1"/>
        <pt x="971" y="836" on="1"/>
        <pt x="938" y="602" on="1"/>
        <pt x="401" y="602" on="1"/>
        <pt x="348" y="233" on="1"/>
        <pt x="987" y="233" on="1"/>
        <pt x="954" y="0" on="1"/>
      </contour>
    </TTGlyph>
    <TTGlyph name="Ebreve" xMin="57" yMin="0" xMax="1139" yMax="1808">
      <contour>
        <pt x="741" y="1589" on="1"/>
        <pt x="681" y="1589" on="0"/>
        <pt x="586" y="1624" on="0"/>
        <pt x="521" y="1679" on="0"/>
        <pt x="487" y="1750" on="0"/>
        <pt x="487" y="1786" on="1"/>
        <pt x="487" y="1792" on="0"/>
        <pt x="487" y="1802" on="0"/>
        <pt x="489" y="1808" on="1"/>
        <pt x="641" y="1808" on="1"/>
        <pt x="642" y="1797" on="0"/>
        <pt x="657" y="1774" on="0"/>
        <pt x="686" y="1754" on="0"/>
        <pt x="726" y="1741" on="0"/>
        <pt x="752" y="1741" on="1"/>
        <pt x="778" y="1741" on="0"/>
        <pt x="824" y="1754" on="0"/>
        <pt x="859" y="1774" on="0"/>
        <pt x="882" y="1797" on="0"/>
        <pt x="885" y="1808" on="1"/>
        <pt x="1036" y="1808" on="1"/>
        <pt x="1031" y="1770" on="0"/>
        <pt x="983" y="1692" on="0"/>
        <pt x="906" y="1629" on="0"/>
        <pt x="802" y="1589" on="0"/>
      </contour>
      <contour>
        <pt x="57" y="0" on="1"/>
        <pt x="254" y="1405" on="1"/>
        <pt x="1139" y="1405" on="1"/>
        <pt x="1106" y="1171" on="1"/>
        <pt x="481" y="1171" on="1"/>
        <pt x="434" y="836" on="1"/>
        <pt x="971" y="836" on="1"/>
        <pt x="938" y="602" on="1"/>
        <pt x="401" y="602" on="1"/>
        <pt x="348" y="233" on="1"/>
        <pt x="987" y="233" on="1"/>
        <pt x="954" y="0" on="1"/>
      </contour>
    </TTGlyph>
    <TTGlyph name="Ecaron" xMin="57" yMin="0" xMax="1139" yMax="1808">
      <contour>
        <pt x="670" y="1808" on="1"/>
        <pt x="741" y="1667" on="1"/>
        <pt x="844" y="1808" on="1"/>
        <pt x="1036" y="1808" on="1"/>
        <pt x="823" y="1532" on="1"/>
        <pt x="623" y="1532" on="1"/>
        <pt x="485" y="1808" on="1"/>
      </contour>
      <contour>
        <pt x="57" y="0" on="1"/>
        <pt x="254" y="1405" on="1"/>
        <pt x="1139" y="1405" on="1"/>
        <pt x="1106" y="1171" on="1"/>
        <pt x="481" y="1171" on="1"/>
        <pt x="434" y="836" on="1"/>
        <pt x="971" y="836" on="1"/>
        <pt x="938" y="602" on="1"/>
        <pt x="401" y="602" on="1"/>
        <pt x="348" y="233" on="1"/>
        <pt x="987" y="233" on="1"/>
        <pt x="954" y="0" on="1"/>
      </contour>
    </TTGlyph>
    <TTGlyph name="Ecircumflex" xMin="57" yMin="0" xMax="1139" yMax="1808">
      <contour>
        <pt x="862" y="1808" on="1"/>
        <pt x="997" y="1532" on="1"/>
        <pt x="813" y="1532" on="1"/>
        <pt x="743" y="1673" on="1"/>
        <pt x="639" y="1532" on="1"/>
        <pt x="449" y="1532" on="1"/>
        <pt x="662" y="1808" on="1"/>
      </contour>
      <contour>
        <pt x="57" y="0" on="1"/>
        <pt x="254" y="1405" on="1"/>
        <pt x="1139" y="1405" on="1"/>
        <pt x="1106" y="1171" on="1"/>
        <pt x="481" y="1171" on="1"/>
        <pt x="434" y="836" on="1"/>
        <pt x="971" y="836" on="1"/>
        <pt x="938" y="602" on="1"/>
        <pt x="401" y="602" on="1"/>
        <pt x="348" y="233" on="1"/>
        <pt x="987" y="233" on="1"/>
        <pt x="954" y="0" on="1"/>
      </contour>
    </TTGlyph>
    <TTGlyph name="Edieresis" xMin="57" yMin="0" xMax="1139" yMax="1808">
      <contour>
        <pt x="1044" y="1808" on="1"/>
        <pt x="1014" y="1585" on="1"/>
        <pt x="809" y="1585" on="1"/>
        <pt x="840" y="1808" on="1"/>
      </contour>
      <contour>
        <pt x="686" y="1808" on="1"/>
        <pt x="655" y="1585" on="1"/>
        <pt x="453" y="1585" on="1"/>
        <pt x="481" y="1808" on="1"/>
      </contour>
      <contour>
        <pt x="57" y="0" on="1"/>
        <pt x="254" y="1405" on="1"/>
        <pt x="1139" y="1405" on="1"/>
        <pt x="1106" y="1171" on="1"/>
        <pt x="481" y="1171" on="1"/>
        <pt x="434" y="836" on="1"/>
        <pt x="971" y="836" on="1"/>
        <pt x="938" y="602" on="1"/>
        <pt x="401" y="602" on="1"/>
        <pt x="348" y="233" on="1"/>
        <pt x="987" y="233" on="1"/>
        <pt x="954" y="0" on="1"/>
      </contour>
    </TTGlyph>
    <TTGlyph name="Edotaccent" xMin="57" yMin="0" xMax="1139" yMax="1808">
      <contour>
        <pt x="872" y="1808" on="1"/>
        <pt x="838" y="1573" on="1"/>
        <pt x="618" y="1573" on="1"/>
        <pt x="653" y="1808" on="1"/>
      </contour>
      <contour>
        <pt x="57" y="0" on="1"/>
        <pt x="254" y="1405" on="1"/>
        <pt x="1139" y="1405" on="1"/>
        <pt x="1106" y="1171" on="1"/>
        <pt x="481" y="1171" on="1"/>
        <pt x="434" y="836" on="1"/>
        <pt x="971" y="836" on="1"/>
        <pt x="938" y="602" on="1"/>
        <pt x="401" y="602" on="1"/>
        <pt x="348" y="233" on="1"/>
        <pt x="987" y="233" on="1"/>
        <pt x="954" y="0" on="1"/>
      </contour>
    </TTGlyph>
    <TTGlyph name="Egrave" xMin="57" yMin="0" xMax="1139" yMax="1808">
      <contour>
        <pt x="481" y="1808" on="1"/>
        <pt x="727" y="1808" on="1"/>
        <pt x="864" y="1538" on="1"/>
        <pt x="662" y="1538" on="1"/>
        <pt x="477" y="1802" on="1"/>
      </contour>
      <contour>
        <pt x="57" y="0" on="1"/>
        <pt x="254" y="1405" on="1"/>
        <pt x="1139" y="1405" on="1"/>
        <pt x="1106" y="1171" on="1"/>
        <pt x="481" y="1171" on="1"/>
        <pt x="434" y="836" on="1"/>
        <pt x="971" y="836" on="1"/>
        <pt x="938" y="602" on="1"/>
        <pt x="401" y="602" on="1"/>
        <pt x="348" y="233" on="1"/>
        <pt x="987" y="233" on="1"/>
        <pt x="954" y="0" on="1"/>
      </contour>
    </TTGlyph>
    <TTGlyph name="Emacron" xMin="57" yMin="0" xMax="1139" yMax="1733">
      <contour>
        <pt x="1012" y="1733" on="1"/>
        <pt x="985" y="1554" on="1"/>
        <pt x="463" y="1554" on="1"/>
        <pt x="489" y="1733" on="1"/>
      </contour>
      <contour>
        <pt x="57" y="0" on="1"/>
        <pt x="254" y="1405" on="1"/>
        <pt x="1139" y="1405" on="1"/>
        <pt x="1106" y="1171" on="1"/>
        <pt x="481" y="1171" on="1"/>
        <pt x="434" y="836" on="1"/>
        <pt x="971" y="836" on="1"/>
        <pt x="938" y="602" on="1"/>
        <pt x="401" y="602" on="1"/>
        <pt x="348" y="233" on="1"/>
        <pt x="987" y="233" on="1"/>
        <pt x="954" y="0" on="1"/>
      </contour>
    </TTGlyph>
    <TTGlyph name="Eng" xMin="57" yMin="-373" xMax="1210" yMax="1405">
      <contour>
        <pt x="655" y="-166" on="1"/>
        <pt x="703" y="-166" on="0"/>
        <pt x="756" y="-116" on="0"/>
        <pt x="764" y="-68" on="1"/>
        <pt x="776" y="14" on="1"/>
        <pt x="461" y="774" on="1"/>
        <pt x="456" y="785" on="0"/>
        <pt x="442" y="828" on="0"/>
        <pt x="434" y="850" on="1"/>
        <pt x="425" y="876" on="0"/>
        <pt x="416" y="905" on="1"/>
        <pt x="408" y="899" on="1"/>
        <pt x="406" y="876" on="0"/>
        <pt x="404" y="854" on="1"/>
        <pt x="402" y="835" on="0"/>
        <pt x="397" y="796" on="0"/>
        <pt x="395" y="782" on="1"/>
        <pt x="287" y="0" on="1"/>
        <pt x="57" y="0" on="1"/>
        <pt x="254" y="1405" on="1"/>
        <pt x="483" y="1405" on="1"/>
        <pt x="805" y="631" on="1"/>
        <pt x="810" y="617" on="0"/>
        <pt x="825" y="573" on="0"/>
        <pt x="833" y="552" on="1"/>
        <pt x="841" y="527" on="0"/>
        <pt x="850" y="500" on="1"/>
        <pt x="856" y="506" on="1"/>
        <pt x="858" y="533" on="0"/>
        <pt x="861" y="556" on="1"/>
        <pt x="863" y="576" on="0"/>
        <pt x="868" y="614" on="0"/>
        <pt x="870" y="623" on="1"/>
        <pt x="979" y="1405" on="1"/>
        <pt x="1210" y="1405" on="1"/>
        <pt x="1001" y="-84" on="1"/>
        <pt x="993" y="-138" on="0"/>
        <pt x="957" y="-241" on="0"/>
        <pt x="891" y="-323" on="0"/>
        <pt x="791" y="-373" on="0"/>
        <pt x="719" y="-373" on="1"/>
        <pt x="696" y="-373" on="0"/>
        <pt x="646" y="-369" on="0"/>
        <pt x="599" y="-361" on="0"/>
        <pt x="558" y="-353" on="0"/>
        <pt x="543" y="-348" on="1"/>
        <pt x="567" y="-166" on="1"/>
      </contour>
    </TTGlyph>
    <TTGlyph name="Eogonek" xMin="57" yMin="-389" xMax="1139" yMax="1405">
      <contour>
        <pt x="662" y="-231" on="1"/>
        <pt x="662" y="-191" on="0"/>
        <pt x="681" y="-123" on="0"/>
        <pt x="714" y="-67" on="0"/>
        <pt x="756" y="-20" on="0"/>
        <pt x="780" y="0" on="1"/>
        <pt x="57" y="0" on="1"/>
        <pt x="254" y="1405" on="1"/>
        <pt x="1139" y="1405" on="1"/>
        <pt x="1106" y="1171" on="1"/>
        <pt x="481" y="1171" on="1"/>
        <pt x="434" y="836" on="1"/>
        <pt x="971" y="836" on="1"/>
        <pt x="938" y="602" on="1"/>
        <pt x="401" y="602" on="1"/>
        <pt x="348" y="233" on="1"/>
        <pt x="987" y="233" on="1"/>
        <pt x="954" y="0" on="1"/>
        <pt x="942" y="-12" on="0"/>
        <pt x="913" y="-49" on="0"/>
        <pt x="887" y="-92" on="0"/>
        <pt x="870" y="-141" on="0"/>
        <pt x="870" y="-166" on="1"/>
        <pt x="870" y="-200" on="0"/>
        <pt x="907" y="-248" on="0"/>
        <pt x="950" y="-248" on="1"/>
        <pt x="995" y="-248" on="1"/>
        <pt x="979" y="-360" on="1"/>
        <pt x="942" y="-374" on="0"/>
        <pt x="874" y="-389" on="0"/>
        <pt x="840" y="-389" on="1"/>
        <pt x="808" y="-389" on="0"/>
        <pt x="744" y="-374" on="0"/>
        <pt x="693" y="-337" on="0"/>
        <pt x="662" y="-276" on="0"/>
      </contour>
    </TTGlyph>
    <TTGlyph name="Eth" xMin="47" yMin="0" xMax="1180" yMax="1405">
      <contour>
        <pt x="57" y="0" on="1"/>
        <pt x="145" y="639" on="1"/>
        <pt x="47" y="639" on="1"/>
        <pt x="70" y="813" on="1"/>
        <pt x="170" y="813" on="1"/>
        <pt x="254" y="1405" on="1"/>
        <pt x="686" y="1405" on="1"/>
        <pt x="803" y="1405" on="0"/>
        <pt x="986" y="1338" on="0"/>
        <pt x="1113" y="1205" on="0"/>
        <pt x="1180" y="1005" on="0"/>
        <pt x="1180" y="872" on="1"/>
        <pt x="1180" y="777" on="0"/>
        <pt x="1150" y="574" on="0"/>
        <pt x="1085" y="380" on="0"/>
        <pt x="984" y="207" on="0"/>
        <pt x="842" y="76" on="0"/>
        <pt x="657" y="0" on="0"/>
        <pt x="541" y="0" on="1"/>
      </contour>
      <contour>
        <pt x="481" y="1171" on="1"/>
        <pt x="430" y="813" on="1"/>
        <pt x="684" y="813" on="1"/>
        <pt x="659" y="639" on="1"/>
        <pt x="406" y="639" on="1"/>
        <pt x="350" y="233" on="1"/>
        <pt x="518" y="233" on="1"/>
        <pt x="596" y="233" on="0"/>
        <pt x="716" y="291" on="0"/>
        <pt x="804" y="388" on="0"/>
        <pt x="864" y="515" on="0"/>
        <pt x="900" y="653" on="0"/>
        <pt x="915" y="792" on="0"/>
        <pt x="915" y="854" on="1"/>
        <pt x="915" y="1013" on="0"/>
        <pt x="774" y="1171" on="0"/>
        <pt x="649" y="1171" on="1"/>
      </contour>
    </TTGlyph>
    <TTGlyph name="Euro" xMin="12" yMin="-25" xMax="1012" yMax="1430">
      <contour>
        <pt x="135" y="631" on="1"/>
        <pt x="135" y="648" on="0"/>
        <pt x="140" y="684" on="0"/>
        <pt x="143" y="702" on="1"/>
        <pt x="145" y="721" on="0"/>
        <pt x="151" y="756" on="0"/>
        <pt x="154" y="774" on="1"/>
        <pt x="53" y="774" on="1"/>
        <pt x="78" y="940" on="1"/>
        <pt x="201" y="940" on="1"/>
        <pt x="244" y="1054" on="0"/>
        <pt x="363" y="1235" on="0"/>
        <pt x="524" y="1362" on="0"/>
        <pt x="731" y="1430" on="0"/>
        <pt x="862" y="1430" on="1"/>
        <pt x="900" y="1430" on="0"/>
        <pt x="978" y="1420" on="0"/>
        <pt x="1012" y="1409" on="1"/>
        <pt x="983" y="1204" on="1"/>
        <pt x="926" y="1223" on="0"/>
        <pt x="854" y="1223" on="1"/>
        <pt x="787" y="1223" on="0"/>
        <pt x="669" y="1183" on="0"/>
        <pt x="568" y="1110" on="0"/>
        <pt x="486" y="1005" on="0"/>
        <pt x="455" y="940" on="1"/>
        <pt x="823" y="940" on="1"/>
        <pt x="799" y="774" on="1"/>
        <pt x="399" y="774" on="1"/>
        <pt x="396" y="756" on="0"/>
        <pt x="391" y="721" on="0"/>
        <pt x="389" y="702" on="1"/>
        <pt x="386" y="684" on="0"/>
        <pt x="381" y="648" on="0"/>
        <pt x="381" y="631" on="1"/>
        <pt x="780" y="631" on="1"/>
        <pt x="756" y="465" on="1"/>
        <pt x="387" y="465" on="1"/>
        <pt x="397" y="399" on="0"/>
        <pt x="443" y="294" on="0"/>
        <pt x="520" y="221" on="0"/>
        <pt x="632" y="182" on="0"/>
        <pt x="709" y="182" on="1"/>
        <pt x="779" y="182" on="0"/>
        <pt x="842" y="201" on="1"/>
        <pt x="813" y="-2" on="1"/>
        <pt x="775" y="-13" on="0"/>
        <pt x="700" y="-25" on="0"/>
        <pt x="659" y="-25" on="1"/>
        <pt x="544" y="-25" on="0"/>
        <pt x="359" y="43" on="0"/>
        <pt x="225" y="170" on="0"/>
        <pt x="144" y="351" on="0"/>
        <pt x="133" y="465" on="1"/>
        <pt x="12" y="465" on="1"/>
        <pt x="35" y="631" on="1"/>
      </contour>
    </TTGlyph>
    <TTGlyph name="F" xMin="57" yMin="0" xMax="1071" yMax="1405">
      <contour>
        <pt x="57" y="0" on="1"/>
        <pt x="256" y="1405" on="1"/>
        <pt x="1071" y="1405" on="1"/>
        <pt x="1040" y="1171" on="1"/>
        <pt x="481" y="1171" on="1"/>
        <pt x="432" y="817" on="1"/>
        <pt x="907" y="817" on="1"/>
        <pt x="874" y="584" on="1"/>
        <pt x="399" y="584" on="1"/>
        <pt x="317" y="0" on="1"/>
      </contour>
    </TTGlyph>
    <TTGlyph name="G" xMin="92" yMin="-25" xMax="1255" yMax="1430">
      <contour>
        <pt x="92" y="512" on="1"/>
        <pt x="92" y="615" on="0"/>
        <pt x="122" y="831" on="0"/>
        <pt x="188" y="1035" on="0"/>
        <pt x="292" y="1216" on="0"/>
        <pt x="438" y="1351" on="0"/>
        <pt x="631" y="1430" on="0"/>
        <pt x="752" y="1430" on="1"/>
        <pt x="868" y="1430" on="0"/>
        <pt x="1054" y="1367" on="0"/>
        <pt x="1185" y="1239" on="0"/>
        <pt x="1255" y="1045" on="0"/>
        <pt x="1255" y="915" on="1"/>
        <pt x="989" y="915" on="1"/>
        <pt x="989" y="934" on="1"/>
        <pt x="989" y="1067" on="0"/>
        <pt x="867" y="1204" on="0"/>
        <pt x="762" y="1204" on="1"/>
        <pt x="679" y="1204" on="0"/>
        <pt x="555" y="1139" on="0"/>
        <pt x="465" y="1031" on="0"/>
        <pt x="406" y="891" on="0"/>
        <pt x="370" y="739" on="0"/>
        <pt x="356" y="587" on="0"/>
        <pt x="356" y="522" on="1"/>
        <pt x="356" y="370" on="0"/>
        <pt x="477" y="201" on="0"/>
        <pt x="608" y="201" on="1"/>
        <pt x="681" y="201" on="0"/>
        <pt x="794" y="250" on="0"/>
        <pt x="876" y="338" on="0"/>
        <pt x="928" y="463" on="0"/>
        <pt x="940" y="539" on="1"/>
        <pt x="627" y="539" on="1"/>
        <pt x="659" y="764" on="1"/>
        <pt x="1237" y="764" on="1"/>
        <pt x="1130" y="0" on="1"/>
        <pt x="963" y="0" on="1"/>
        <pt x="938" y="156" on="1"/>
        <pt x="867" y="72" on="0"/>
        <pt x="676" y="-25" on="0"/>
        <pt x="551" y="-25" on="1"/>
        <pt x="442" y="-25" on="0"/>
        <pt x="271" y="40" on="0"/>
        <pt x="154" y="173" on="0"/>
        <pt x="92" y="375" on="0"/>
      </contour>
    </TTGlyph>
    <TTGlyph name="Gbreve" xMin="92" yMin="-25" xMax="1255" yMax="1809">
      <contour>
        <pt x="92" y="512" on="1"/>
        <pt x="92" y="615" on="0"/>
        <pt x="122" y="831" on="0"/>
        <pt x="188" y="1035" on="0"/>
        <pt x="292" y="1216" on="0"/>
        <pt x="438" y="1351" on="0"/>
        <pt x="631" y="1430" on="0"/>
        <pt x="752" y="1430" on="1"/>
        <pt x="868" y="1430" on="0"/>
        <pt x="1054" y="1367" on="0"/>
        <pt x="1185" y="1239" on="0"/>
        <pt x="1255" y="1045" on="0"/>
        <pt x="1255" y="915" on="1"/>
        <pt x="989" y="915" on="1"/>
        <pt x="989" y="934" on="1"/>
        <pt x="989" y="1067" on="0"/>
        <pt x="867" y="1204" on="0"/>
        <pt x="762" y="1204" on="1"/>
        <pt x="679" y="1204" on="0"/>
        <pt x="555" y="1139" on="0"/>
        <pt x="465" y="1031" on="0"/>
        <pt x="406" y="891" on="0"/>
        <pt x="370" y="739" on="0"/>
        <pt x="356" y="587" on="0"/>
        <pt x="356" y="522" on="1"/>
        <pt x="356" y="370" on="0"/>
        <pt x="477" y="201" on="0"/>
        <pt x="608" y="201" on="1"/>
        <pt x="681" y="201" on="0"/>
        <pt x="794" y="250" on="0"/>
        <pt x="876" y="338" on="0"/>
        <pt x="928" y="463" on="0"/>
        <pt x="940" y="539" on="1"/>
        <pt x="627" y="539" on="1"/>
        <pt x="659" y="764" on="1"/>
        <pt x="1237" y="764" on="1"/>
        <pt x="1130" y="0" on="1"/>
        <pt x="963" y="0" on="1"/>
        <pt x="938" y="156" on="1"/>
        <pt x="867" y="72" on="0"/>
        <pt x="676" y="-25" on="0"/>
        <pt x="551" y="-25" on="1"/>
        <pt x="442" y="-25" on="0"/>
        <pt x="271" y="40" on="0"/>
        <pt x="154" y="173" on="0"/>
        <pt x="92" y="375" on="0"/>
      </contour>
      <contour>
        <pt x="790" y="1590" on="1"/>
        <pt x="729" y="1590" on="0"/>
        <pt x="635" y="1624" on="0"/>
        <pt x="570" y="1680" on="0"/>
        <pt x="536" y="1750" on="0"/>
        <pt x="536" y="1786" on="1"/>
        <pt x="536" y="1797" on="1"/>
        <pt x="536" y="1803" on="0"/>
        <pt x="538" y="1809" on="1"/>
        <pt x="690" y="1809" on="1"/>
        <pt x="691" y="1798" on="0"/>
        <pt x="706" y="1774" on="0"/>
        <pt x="735" y="1754" on="0"/>
        <pt x="775" y="1741" on="0"/>
        <pt x="801" y="1741" on="1"/>
        <pt x="827" y="1741" on="0"/>
        <pt x="872" y="1754" on="0"/>
        <pt x="908" y="1774" on="0"/>
        <pt x="931" y="1798" on="0"/>
        <pt x="934" y="1809" on="1"/>
        <pt x="1085" y="1809" on="1"/>
        <pt x="1080" y="1770" on="0"/>
        <pt x="1032" y="1692" on="0"/>
        <pt x="955" y="1629" on="0"/>
        <pt x="851" y="1590" on="0"/>
      </contour>
    </TTGlyph>
    <TTGlyph name="Gcircumflex" xMin="92" yMin="-25" xMax="1255" yMax="1809">
      <contour>
        <pt x="92" y="512" on="1"/>
        <pt x="92" y="615" on="0"/>
        <pt x="122" y="831" on="0"/>
        <pt x="188" y="1035" on="0"/>
        <pt x="292" y="1216" on="0"/>
        <pt x="438" y="1351" on="0"/>
        <pt x="631" y="1430" on="0"/>
        <pt x="752" y="1430" on="1"/>
        <pt x="868" y="1430" on="0"/>
        <pt x="1054" y="1367" on="0"/>
        <pt x="1185" y="1239" on="0"/>
        <pt x="1255" y="1045" on="0"/>
        <pt x="1255" y="915" on="1"/>
        <pt x="989" y="915" on="1"/>
        <pt x="989" y="934" on="1"/>
        <pt x="989" y="1067" on="0"/>
        <pt x="867" y="1204" on="0"/>
        <pt x="762" y="1204" on="1"/>
        <pt x="679" y="1204" on="0"/>
        <pt x="555" y="1139" on="0"/>
        <pt x="465" y="1031" on="0"/>
        <pt x="406" y="891" on="0"/>
        <pt x="370" y="739" on="0"/>
        <pt x="356" y="587" on="0"/>
        <pt x="356" y="522" on="1"/>
        <pt x="356" y="370" on="0"/>
        <pt x="477" y="201" on="0"/>
        <pt x="608" y="201" on="1"/>
        <pt x="681" y="201" on="0"/>
        <pt x="794" y="250" on="0"/>
        <pt x="876" y="338" on="0"/>
        <pt x="928" y="463" on="0"/>
        <pt x="940" y="539" on="1"/>
        <pt x="627" y="539" on="1"/>
        <pt x="659" y="764" on="1"/>
        <pt x="1237" y="764" on="1"/>
        <pt x="1130" y="0" on="1"/>
        <pt x="963" y="0" on="1"/>
        <pt x="938" y="156" on="1"/>
        <pt x="867" y="72" on="0"/>
        <pt x="676" y="-25" on="0"/>
        <pt x="551" y="-25" on="1"/>
        <pt x="442" y="-25" on="0"/>
        <pt x="271" y="40" on="0"/>
        <pt x="154" y="173" on="0"/>
        <pt x="92" y="375" on="0"/>
      </contour>
      <contour>
        <pt x="911" y="1809" on="1"/>
        <pt x="1046" y="1532" on="1"/>
        <pt x="862" y="1532" on="1"/>
        <pt x="792" y="1674" on="1"/>
        <pt x="688" y="1532" on="1"/>
        <pt x="497" y="1532" on="1"/>
        <pt x="710" y="1809" on="1"/>
      </contour>
    </TTGlyph>
    <TTGlyph name="Gcommaaccent" xMin="92" yMin="-538" xMax="1255" yMax="1430">
      <contour>
        <pt x="92" y="512" on="1"/>
        <pt x="92" y="615" on="0"/>
        <pt x="122" y="831" on="0"/>
        <pt x="188" y="1035" on="0"/>
        <pt x="292" y="1216" on="0"/>
        <pt x="438" y="1351" on="0"/>
        <pt x="631" y="1430" on="0"/>
        <pt x="752" y="1430" on="1"/>
        <pt x="868" y="1430" on="0"/>
        <pt x="1054" y="1367" on="0"/>
        <pt x="1185" y="1239" on="0"/>
        <pt x="1255" y="1045" on="0"/>
        <pt x="1255" y="915" on="1"/>
        <pt x="989" y="915" on="1"/>
        <pt x="989" y="934" on="1"/>
        <pt x="989" y="1067" on="0"/>
        <pt x="867" y="1204" on="0"/>
        <pt x="762" y="1204" on="1"/>
        <pt x="679" y="1204" on="0"/>
        <pt x="555" y="1139" on="0"/>
        <pt x="465" y="1031" on="0"/>
        <pt x="406" y="891" on="0"/>
        <pt x="370" y="739" on="0"/>
        <pt x="356" y="587" on="0"/>
        <pt x="356" y="522" on="1"/>
        <pt x="356" y="370" on="0"/>
        <pt x="477" y="201" on="0"/>
        <pt x="608" y="201" on="1"/>
        <pt x="681" y="201" on="0"/>
        <pt x="794" y="250" on="0"/>
        <pt x="876" y="338" on="0"/>
        <pt x="928" y="463" on="0"/>
        <pt x="940" y="539" on="1"/>
        <pt x="627" y="539" on="1"/>
        <pt x="659" y="764" on="1"/>
        <pt x="1237" y="764" on="1"/>
        <pt x="1130" y="0" on="1"/>
        <pt x="963" y="0" on="1"/>
        <pt x="938" y="156" on="1"/>
        <pt x="867" y="72" on="0"/>
        <pt x="676" y="-25" on="0"/>
        <pt x="551" y="-25" on="1"/>
        <pt x="442" y="-25" on="0"/>
        <pt x="271" y="40" on="0"/>
        <pt x="154" y="173" on="0"/>
        <pt x="92" y="375" on="0"/>
      </contour>
      <contour>
        <pt x="637" y="-342" on="1"/>
        <pt x="513" y="-538" on="1"/>
        <pt x="380" y="-538" on="1"/>
        <pt x="474" y="-365" on="1"/>
        <pt x="381" y="-365" on="1"/>
        <pt x="416" y="-113" on="1"/>
        <pt x="670" y="-113" on="1"/>
      </contour>
    </TTGlyph>
    <TTGlyph name="Gdotaccent" xMin="92" yMin="-25" xMax="1255" yMax="1809">
      <contour>
        <pt x="92" y="512" on="1"/>
        <pt x="92" y="615" on="0"/>
        <pt x="122" y="831" on="0"/>
        <pt x="188" y="1035" on="0"/>
        <pt x="292" y="1216" on="0"/>
        <pt x="438" y="1351" on="0"/>
        <pt x="631" y="1430" on="0"/>
        <pt x="752" y="1430" on="1"/>
        <pt x="868" y="1430" on="0"/>
        <pt x="1054" y="1367" on="0"/>
        <pt x="1185" y="1239" on="0"/>
        <pt x="1255" y="1045" on="0"/>
        <pt x="1255" y="915" on="1"/>
        <pt x="989" y="915" on="1"/>
        <pt x="989" y="934" on="1"/>
        <pt x="989" y="1067" on="0"/>
        <pt x="867" y="1204" on="0"/>
        <pt x="762" y="1204" on="1"/>
        <pt x="679" y="1204" on="0"/>
        <pt x="555" y="1139" on="0"/>
        <pt x="465" y="1031" on="0"/>
        <pt x="406" y="891" on="0"/>
        <pt x="370" y="739" on="0"/>
        <pt x="356" y="587" on="0"/>
        <pt x="356" y="522" on="1"/>
        <pt x="356" y="370" on="0"/>
        <pt x="477" y="201" on="0"/>
        <pt x="608" y="201" on="1"/>
        <pt x="681" y="201" on="0"/>
        <pt x="794" y="250" on="0"/>
        <pt x="876" y="338" on="0"/>
        <pt x="928" y="463" on="0"/>
        <pt x="940" y="539" on="1"/>
        <pt x="627" y="539" on="1"/>
        <pt x="659" y="764" on="1"/>
        <pt x="1237" y="764" on="1"/>
        <pt x="1130" y="0" on="1"/>
        <pt x="963" y="0" on="1"/>
        <pt x="938" y="156" on="1"/>
        <pt x="867" y="72" on="0"/>
        <pt x="676" y="-25" on="0"/>
        <pt x="551" y="-25" on="1"/>
        <pt x="442" y="-25" on="0"/>
        <pt x="271" y="40" on="0"/>
        <pt x="154" y="173" on="0"/>
        <pt x="92" y="375" on="0"/>
      </contour>
      <contour>
        <pt x="922" y="1809" on="1"/>
        <pt x="887" y="1573" on="1"/>
        <pt x="668" y="1573" on="1"/>
        <pt x="702" y="1809" on="1"/>
      </contour>
    </TTGlyph>
    <TTGlyph name="H" xMin="57" yMin="0" xMax="1210" yMax="1405">
      <contour>
        <pt x="840" y="602" on="1"/>
        <pt x="401" y="602" on="1"/>
        <pt x="317" y="0" on="1"/>
        <pt x="57" y="0" on="1"/>
        <pt x="254" y="1405" on="1"/>
        <pt x="514" y="1405" on="1"/>
        <pt x="434" y="836" on="1"/>
        <pt x="872" y="836" on="1"/>
        <pt x="950" y="1405" on="1"/>
        <pt x="1210" y="1405" on="1"/>
        <pt x="1014" y="0" on="1"/>
        <pt x="754" y="0" on="1"/>
      </contour>
    </TTGlyph>
    <TTGlyph name="Hbar" xMin="57" yMin="0" xMax="1280" yMax="1405">
      <contour>
        <pt x="514" y="1405" on="1"/>
        <pt x="483" y="1182" on="1"/>
        <pt x="920" y="1182" on="1"/>
        <pt x="950" y="1405" on="1"/>
        <pt x="1210" y="1405" on="1"/>
        <pt x="1178" y="1182" on="1"/>
        <pt x="1280" y="1182" on="1"/>
        <pt x="1251" y="1004" on="1"/>
        <pt x="1153" y="1004" on="1"/>
        <pt x="1014" y="0" on="1"/>
        <pt x="754" y="0" on="1"/>
        <pt x="838" y="586" on="1"/>
        <pt x="399" y="586" on="1"/>
        <pt x="317" y="0" on="1"/>
        <pt x="57" y="0" on="1"/>
        <pt x="197" y="1004" on="1"/>
        <pt x="96" y="1004" on="1"/>
        <pt x="123" y="1182" on="1"/>
        <pt x="223" y="1182" on="1"/>
        <pt x="254" y="1405" on="1"/>
      </contour>
      <contour>
        <pt x="870" y="819" on="1"/>
        <pt x="895" y="1004" on="1"/>
        <pt x="457" y="1004" on="1"/>
        <pt x="432" y="819" on="1"/>
      </contour>
    </TTGlyph>
    <TTGlyph name="Hcircumflex" xMin="57" yMin="0" xMax="1210" yMax="1808">
      <contour>
        <pt x="893" y="1808" on="1"/>
        <pt x="1028" y="1532" on="1"/>
        <pt x="844" y="1532" on="1"/>
        <pt x="774" y="1673" on="1"/>
        <pt x="670" y="1532" on="1"/>
        <pt x="479" y="1532" on="1"/>
        <pt x="692" y="1808" on="1"/>
      </contour>
      <contour>
        <pt x="840" y="602" on="1"/>
        <pt x="401" y="602" on="1"/>
        <pt x="317" y="0" on="1"/>
        <pt x="57" y="0" on="1"/>
        <pt x="254" y="1405" on="1"/>
        <pt x="514" y="1405" on="1"/>
        <pt x="434" y="836" on="1"/>
        <pt x="872" y="836" on="1"/>
        <pt x="950" y="1405" on="1"/>
        <pt x="1210" y="1405" on="1"/>
        <pt x="1014" y="0" on="1"/>
        <pt x="754" y="0" on="1"/>
      </contour>
    </TTGlyph>
    <TTGlyph name="I" xMin="37" yMin="0" xMax="494" yMax="1405">
      <contour>
        <pt x="494" y="1405" on="1"/>
        <pt x="297" y="0" on="1"/>
        <pt x="37" y="0" on="1"/>
        <pt x="233" y="1405" on="1"/>
      </contour>
    </TTGlyph>
    <TTGlyph name="IJ" xMin="37" yMin="-25" xMax="1403" yMax="1405">
      <contour>
        <pt x="494" y="1405" on="1"/>
        <pt x="297" y="0" on="1"/>
        <pt x="37" y="0" on="1"/>
        <pt x="233" y="1405" on="1"/>
      </contour>
      <contour>
        <pt x="739" y="442" on="1"/>
        <pt x="734" y="405" on="0"/>
        <pt x="728" y="361" on="0"/>
        <pt x="725" y="337" on="0"/>
        <pt x="725" y="327" on="0"/>
        <pt x="725" y="324" on="1"/>
        <pt x="725" y="264" on="0"/>
        <pt x="789" y="201" on="0"/>
        <pt x="852" y="201" on="1"/>
        <pt x="915" y="201" on="0"/>
        <pt x="984" y="280" on="0"/>
        <pt x="995" y="354" on="1"/>
        <pt x="1143" y="1405" on="1"/>
        <pt x="1403" y="1405" on="1"/>
        <pt x="1251" y="334" on="1"/>
        <pt x="1227" y="157" on="0"/>
        <pt x="1022" y="-25" on="0"/>
        <pt x="852" y="-25" on="1"/>
        <pt x="668" y="-25" on="0"/>
        <pt x="471" y="122" on="0"/>
        <pt x="471" y="264" on="1"/>
        <pt x="471" y="273" on="0"/>
        <pt x="472" y="293" on="0"/>
        <pt x="477" y="330" on="0"/>
        <pt x="485" y="392" on="0"/>
        <pt x="492" y="442" on="1"/>
      </contour>
    </TTGlyph>
    <TTGlyph name="Iacute" xMin="37" yMin="0" xMax="679" yMax="1809">
      <contour>
        <pt x="494" y="1405" on="1"/>
        <pt x="297" y="0" on="1"/>
        <pt x="37" y="0" on="1"/>
        <pt x="233" y="1405" on="1"/>
      </contour>
      <contour>
        <pt x="677" y="1809" on="1"/>
        <pt x="679" y="1803" on="1"/>
        <pt x="457" y="1538" on="1"/>
        <pt x="255" y="1538" on="1"/>
        <pt x="431" y="1809" on="1"/>
      </contour>
    </TTGlyph>
    <TTGlyph name="Ibreve" xMin="37" yMin="0" xMax="695" yMax="1809">
      <contour>
        <pt x="494" y="1405" on="1"/>
        <pt x="297" y="0" on="1"/>
        <pt x="37" y="0" on="1"/>
        <pt x="233" y="1405" on="1"/>
      </contour>
      <contour>
        <pt x="400" y="1590" on="1"/>
        <pt x="339" y="1590" on="0"/>
        <pt x="245" y="1624" on="0"/>
        <pt x="180" y="1680" on="0"/>
        <pt x="146" y="1750" on="0"/>
        <pt x="146" y="1786" on="1"/>
        <pt x="146" y="1797" on="1"/>
        <pt x="146" y="1803" on="0"/>
        <pt x="148" y="1809" on="1"/>
        <pt x="300" y="1809" on="1"/>
        <pt x="301" y="1798" on="0"/>
        <pt x="316" y="1774" on="0"/>
        <pt x="345" y="1754" on="0"/>
        <pt x="385" y="1741" on="0"/>
        <pt x="411" y="1741" on="1"/>
        <pt x="437" y="1741" on="0"/>
        <pt x="482" y="1754" on="0"/>
        <pt x="518" y="1774" on="0"/>
        <pt x="541" y="1798" on="0"/>
        <pt x="544" y="1809" on="1"/>
        <pt x="695" y="1809" on="1"/>
        <pt x="690" y="1770" on="0"/>
        <pt x="642" y="1692" on="0"/>
        <pt x="565" y="1629" on="0"/>
        <pt x="461" y="1590" on="0"/>
      </contour>
    </TTGlyph>
    <TTGlyph name="Icircumflex" xMin="37" yMin="0" xMax="656" yMax="1809">
      <contour>
        <pt x="494" y="1405" on="1"/>
        <pt x="297" y="0" on="1"/>
        <pt x="37" y="0" on="1"/>
        <pt x="233" y="1405" on="1"/>
      </contour>
      <contour>
        <pt x="521" y="1809" on="1"/>
        <pt x="656" y="1532" on="1"/>
        <pt x="472" y="1532" on="1"/>
        <pt x="402" y="1674" on="1"/>
        <pt x="298" y="1532" on="1"/>
        <pt x="107" y="1532" on="1"/>
        <pt x="320" y="1809" on="1"/>
      </contour>
    </TTGlyph>
    <TTGlyph name="Idieresis" xMin="37" yMin="0" xMax="703" yMax="1809">
      <contour>
        <pt x="494" y="1405" on="1"/>
        <pt x="297" y="0" on="1"/>
        <pt x="37" y="0" on="1"/>
        <pt x="233" y="1405" on="1"/>
      </contour>
      <contour>
        <pt x="703" y="1809" on="1"/>
        <pt x="673" y="1585" on="1"/>
        <pt x="468" y="1585" on="1"/>
        <pt x="498" y="1809" on="1"/>
      </contour>
      <contour>
        <pt x="345" y="1809" on="1"/>
        <pt x="314" y="1585" on="1"/>
        <pt x="111" y="1585" on="1"/>
        <pt x="140" y="1809" on="1"/>
      </contour>
    </TTGlyph>
    <TTGlyph name="Idotaccent" xMin="37" yMin="0" xMax="532" yMax="1809">
      <contour>
        <pt x="494" y="1405" on="1"/>
        <pt x="297" y="0" on="1"/>
        <pt x="37" y="0" on="1"/>
        <pt x="233" y="1405" on="1"/>
      </contour>
      <contour>
        <pt x="532" y="1809" on="1"/>
        <pt x="497" y="1573" on="1"/>
        <pt x="278" y="1573" on="1"/>
        <pt x="312" y="1809" on="1"/>
      </contour>
    </TTGlyph>
    <TTGlyph name="Igrave" xMin="37" yMin="0" xMax="524" yMax="1809">
      <contour>
        <pt x="494" y="1405" on="1"/>
        <pt x="297" y="0" on="1"/>
        <pt x="37" y="0" on="1"/>
        <pt x="233" y="1405" on="1"/>
      </contour>
      <contour>
        <pt x="141" y="1809" on="1"/>
        <pt x="387" y="1809" on="1"/>
        <pt x="524" y="1538" on="1"/>
        <pt x="321" y="1538" on="1"/>
        <pt x="137" y="1803" on="1"/>
      </contour>
    </TTGlyph>
    <TTGlyph name="Imacron" xMin="37" yMin="0" xMax="670" yMax="1733">
      <contour>
        <pt x="494" y="1405" on="1"/>
        <pt x="297" y="0" on="1"/>
        <pt x="37" y="0" on="1"/>
        <pt x="233" y="1405" on="1"/>
      </contour>
      <contour>
        <pt x="670" y="1733" on="1"/>
        <pt x="643" y="1555" on="1"/>
        <pt x="121" y="1555" on="1"/>
        <pt x="148" y="1733" on="1"/>
      </contour>
    </TTGlyph>
    <TTGlyph name="Iogonek" xMin="4" yMin="-389" xMax="494" yMax="1405">
      <contour>
        <pt x="4" y="-231" on="1"/>
        <pt x="4" y="-190" on="0"/>
        <pt x="23" y="-123" on="0"/>
        <pt x="56" y="-67" on="0"/>
        <pt x="99" y="-20" on="0"/>
        <pt x="122" y="0" on="1"/>
        <pt x="37" y="0" on="1"/>
        <pt x="233" y="1405" on="1"/>
        <pt x="494" y="1405" on="1"/>
        <pt x="297" y="0" on="1"/>
        <pt x="285" y="-12" on="0"/>
        <pt x="255" y="-48" on="0"/>
        <pt x="230" y="-92" on="0"/>
        <pt x="213" y="-141" on="0"/>
        <pt x="213" y="-166" on="1"/>
        <pt x="213" y="-200" on="0"/>
        <pt x="249" y="-247" on="0"/>
        <pt x="293" y="-247" on="1"/>
        <pt x="338" y="-247" on="1"/>
        <pt x="321" y="-360" on="1"/>
        <pt x="284" y="-374" on="0"/>
        <pt x="216" y="-389" on="0"/>
        <pt x="182" y="-389" on="1"/>
        <pt x="150" y="-389" on="0"/>
        <pt x="86" y="-374" on="0"/>
        <pt x="35" y="-337" on="0"/>
        <pt x="4" y="-276" on="0"/>
      </contour>
    </TTGlyph>
    <TTGlyph name="Itilde" xMin="37" yMin="0" xMax="768" yMax="1809">
      <contour>
        <pt x="494" y="1405" on="1"/>
        <pt x="297" y="0" on="1"/>
        <pt x="37" y="0" on="1"/>
        <pt x="233" y="1405" on="1"/>
      </contour>
      <contour>
        <pt x="55" y="1559" on="1"/>
        <pt x="55" y="1599" on="0"/>
        <pt x="87" y="1688" on="0"/>
        <pt x="147" y="1761" on="0"/>
        <pt x="232" y="1809" on="0"/>
        <pt x="286" y="1809" on="1"/>
        <pt x="323" y="1809" on="0"/>
        <pt x="388" y="1785" on="0"/>
        <pt x="449" y="1757" on="0"/>
        <pt x="510" y="1733" on="0"/>
        <pt x="544" y="1733" on="1"/>
        <pt x="576" y="1733" on="0"/>
        <pt x="622" y="1765" on="0"/>
        <pt x="635" y="1809" on="1"/>
        <pt x="768" y="1809" on="1"/>
        <pt x="768" y="1767" on="0"/>
        <pt x="735" y="1678" on="0"/>
        <pt x="674" y="1605" on="0"/>
        <pt x="587" y="1559" on="0"/>
        <pt x="532" y="1559" on="1"/>
        <pt x="496" y="1559" on="0"/>
        <pt x="432" y="1583" on="0"/>
        <pt x="371" y="1611" on="0"/>
        <pt x="310" y="1635" on="0"/>
        <pt x="276" y="1635" on="1"/>
        <pt x="244" y="1635" on="0"/>
        <pt x="198" y="1601" on="0"/>
        <pt x="186" y="1559" on="1"/>
      </contour>
    </TTGlyph>
    <TTGlyph name="J" xMin="4" yMin="-25" xMax="936" yMax="1405">
      <contour>
        <pt x="272" y="442" on="1"/>
        <pt x="267" y="405" on="0"/>
        <pt x="261" y="361" on="0"/>
        <pt x="258" y="337" on="0"/>
        <pt x="258" y="327" on="0"/>
        <pt x="258" y="324" on="1"/>
        <pt x="258" y="264" on="0"/>
        <pt x="322" y="201" on="0"/>
        <pt x="385" y="201" on="1"/>
        <pt x="448" y="201" on="0"/>
        <pt x="517" y="280" on="0"/>
        <pt x="528" y="354" on="1"/>
        <pt x="676" y="1405" on="1"/>
        <pt x="936" y="1405" on="1"/>
        <pt x="784" y="334" on="1"/>
        <pt x="760" y="157" on="0"/>
        <pt x="555" y="-25" on="0"/>
        <pt x="385" y="-25" on="1"/>
        <pt x="201" y="-25" on="0"/>
        <pt x="4" y="122" on="0"/>
        <pt x="4" y="264" on="1"/>
        <pt x="4" y="273" on="0"/>
        <pt x="5" y="293" on="0"/>
        <pt x="10" y="330" on="0"/>
        <pt x="18" y="392" on="0"/>
        <pt x="25" y="442" on="1"/>
      </contour>
    </TTGlyph>
    <TTGlyph name="Jcircumflex" xMin="4" yMin="-25" xMax="1116" yMax="1808">
      <contour>
        <pt x="981" y="1808" on="1"/>
        <pt x="1116" y="1532" on="1"/>
        <pt x="932" y="1532" on="1"/>
        <pt x="862" y="1673" on="1"/>
        <pt x="758" y="1532" on="1"/>
        <pt x="567" y="1532" on="1"/>
        <pt x="780" y="1808" on="1"/>
      </contour>
      <contour>
        <pt x="272" y="442" on="1"/>
        <pt x="267" y="405" on="0"/>
        <pt x="261" y="361" on="0"/>
        <pt x="258" y="337" on="0"/>
        <pt x="258" y="327" on="0"/>
        <pt x="258" y="324" on="1"/>
        <pt x="258" y="264" on="0"/>
        <pt x="322" y="201" on="0"/>
        <pt x="385" y="201" on="1"/>
        <pt x="448" y="201" on="0"/>
        <pt x="517" y="280" on="0"/>
        <pt x="528" y="354" on="1"/>
        <pt x="676" y="1405" on="1"/>
        <pt x="936" y="1405" on="1"/>
        <pt x="784" y="334" on="1"/>
        <pt x="760" y="157" on="0"/>
        <pt x="555" y="-25" on="0"/>
        <pt x="385" y="-25" on="1"/>
        <pt x="201" y="-25" on="0"/>
        <pt x="4" y="122" on="0"/>
        <pt x="4" y="264" on="1"/>
        <pt x="4" y="273" on="0"/>
        <pt x="5" y="293" on="0"/>
        <pt x="10" y="330" on="0"/>
        <pt x="18" y="392" on="0"/>
        <pt x="25" y="442" on="1"/>
      </contour>
    </TTGlyph>
    <TTGlyph name="K" xMin="57" yMin="0" xMax="1315" yMax="1405">
      <contour>
        <pt x="418" y="713" on="1"/>
        <pt x="1008" y="1405" on="1"/>
        <pt x="1315" y="1405" on="1"/>
        <pt x="817" y="829" on="1"/>
        <pt x="1130" y="0" on="1"/>
        <pt x="844" y="0" on="1"/>
        <pt x="623" y="629" on="1"/>
        <pt x="369" y="358" on="1"/>
        <pt x="319" y="0" on="1"/>
        <pt x="57" y="0" on="1"/>
        <pt x="254" y="1405" on="1"/>
        <pt x="516" y="1405" on="1"/>
      </contour>
    </TTGlyph>
    <TTGlyph name="Kcommaaccent" xMin="57" yMin="-539" xMax="1315" yMax="1405">
      <contour>
        <pt x="616" y="-342" on="1"/>
        <pt x="492" y="-539" on="1"/>
        <pt x="358" y="-539" on="1"/>
        <pt x="453" y="-365" on="1"/>
        <pt x="360" y="-365" on="1"/>
        <pt x="395" y="-113" on="1"/>
        <pt x="649" y="-113" on="1"/>
      </contour>
      <contour>
        <pt x="418" y="713" on="1"/>
        <pt x="1008" y="1405" on="1"/>
        <pt x="1315" y="1405" on="1"/>
        <pt x="817" y="829" on="1"/>
        <pt x="1130" y="0" on="1"/>
        <pt x="844" y="0" on="1"/>
        <pt x="623" y="629" on="1"/>
        <pt x="369" y="358" on="1"/>
        <pt x="319" y="0" on="1"/>
        <pt x="57" y="0" on="1"/>
        <pt x="254" y="1405" on="1"/>
        <pt x="516" y="1405" on="1"/>
      </contour>
    </TTGlyph>
    <TTGlyph name="L" xMin="57" yMin="0" xMax="940" yMax="1405">
      <contour>
        <pt x="254" y="1405" on="1"/>
        <pt x="514" y="1405" on="1"/>
        <pt x="352" y="246" on="1"/>
        <pt x="940" y="246" on="1"/>
        <pt x="905" y="0" on="1"/>
        <pt x="57" y="0" on="1"/>
      </contour>
    </TTGlyph>
    <TTGlyph name="Lacute" xMin="57" yMin="0" xMax="940" yMax="1808">
      <contour>
        <pt x="682" y="1808" on="1"/>
        <pt x="684" y="1802" on="1"/>
        <pt x="463" y="1538" on="1"/>
        <pt x="260" y="1538" on="1"/>
        <pt x="436" y="1808" on="1"/>
      </contour>
      <contour>
        <pt x="254" y="1405" on="1"/>
        <pt x="514" y="1405" on="1"/>
        <pt x="352" y="246" on="1"/>
        <pt x="940" y="246" on="1"/>
        <pt x="905" y="0" on="1"/>
        <pt x="57" y="0" on="1"/>
      </contour>
    </TTGlyph>
    <TTGlyph name="Lcaron" xMin="57" yMin="0" xMax="1001" yMax="1405">
      <contour>
        <pt x="680" y="1124" on="1"/>
        <pt x="719" y="1405" on="1"/>
        <pt x="1001" y="1405" on="1"/>
        <pt x="967" y="1149" on="1"/>
        <pt x="782" y="805" on="1"/>
        <pt x="635" y="805" on="1"/>
        <pt x="784" y="1124" on="1"/>
      </contour>
      <contour>
        <pt x="254" y="1405" on="1"/>
        <pt x="514" y="1405" on="1"/>
        <pt x="352" y="246" on="1"/>
        <pt x="940" y="246" on="1"/>
        <pt x="905" y="0" on="1"/>
        <pt x="57" y="0" on="1"/>
      </contour>
    </TTGlyph>
    <TTGlyph name="Lcommaaccent" xMin="57" yMin="-539" xMax="940" yMax="1405">
      <contour>
        <pt x="616" y="-342" on="1"/>
        <pt x="492" y="-539" on="1"/>
        <pt x="358" y="-539" on="1"/>
        <pt x="453" y="-365" on="1"/>
        <pt x="360" y="-365" on="1"/>
        <pt x="395" y="-113" on="1"/>
        <pt x="649" y="-113" on="1"/>
      </contour>
      <contour>
        <pt x="254" y="1405" on="1"/>
        <pt x="514" y="1405" on="1"/>
        <pt x="352" y="246" on="1"/>
        <pt x="940" y="246" on="1"/>
        <pt x="905" y="0" on="1"/>
        <pt x="57" y="0" on="1"/>
      </contour>
    </TTGlyph>
    <TTGlyph name="Ldot" xMin="57" yMin="0" xMax="940" yMax="1405">
      <contour>
        <pt x="934" y="1077" on="1"/>
        <pt x="897" y="842" on="1"/>
        <pt x="680" y="842" on="1"/>
        <pt x="713" y="1077" on="1"/>
      </contour>
      <contour>
        <pt x="254" y="1405" on="1"/>
        <pt x="514" y="1405" on="1"/>
        <pt x="352" y="246" on="1"/>
        <pt x="940" y="246" on="1"/>
        <pt x="905" y="0" on="1"/>
        <pt x="57" y="0" on="1"/>
      </contour>
    </TTGlyph>
    <TTGlyph name="Lslash" xMin="-20" yMin="0" xMax="940" yMax="1405">
      <contour>
        <pt x="514" y="1405" on="1"/>
        <pt x="449" y="940" on="1"/>
        <pt x="711" y="1147" on="1"/>
        <pt x="682" y="926" on="1"/>
        <pt x="418" y="719" on="1"/>
        <pt x="352" y="246" on="1"/>
        <pt x="940" y="246" on="1"/>
        <pt x="905" y="0" on="1"/>
        <pt x="57" y="0" on="1"/>
        <pt x="127" y="492" on="1"/>
        <pt x="-20" y="377" on="1"/>
        <pt x="6" y="594" on="1"/>
        <pt x="158" y="711" on="1"/>
        <pt x="254" y="1405" on="1"/>
      </contour>
    </TTGlyph>
    <TTGlyph name="M" xMin="43" yMin="0" xMax="1411" yMax="1405">
      <contour>
        <pt x="975" y="0" on="1"/>
        <pt x="1100" y="895" on="1"/>
        <pt x="1103" y="918" on="0"/>
        <pt x="1116" y="995" on="0"/>
        <pt x="1123" y="1031" on="1"/>
        <pt x="1131" y="1073" on="0"/>
        <pt x="1141" y="1120" on="1"/>
        <pt x="1133" y="1120" on="1"/>
        <pt x="733" y="0" on="1"/>
        <pt x="508" y="0" on="1"/>
        <pt x="420" y="1120" on="1"/>
        <pt x="412" y="1120" on="1"/>
        <pt x="408" y="1071" on="0"/>
        <pt x="404" y="1028" on="1"/>
        <pt x="402" y="1010" on="0"/>
        <pt x="399" y="971" on="0"/>
        <pt x="396" y="935" on="0"/>
        <pt x="392" y="905" on="0"/>
        <pt x="391" y="895" on="1"/>
        <pt x="264" y="0" on="1"/>
        <pt x="43" y="0" on="1"/>
        <pt x="240" y="1405" on="1"/>
        <pt x="602" y="1405" on="1"/>
        <pt x="666" y="631" on="1"/>
        <pt x="667" y="614" on="0"/>
        <pt x="670" y="568" on="0"/>
        <pt x="673" y="517" on="0"/>
        <pt x="675" y="462" on="0"/>
        <pt x="676" y="437" on="1"/>
        <pt x="678" y="377" on="0"/>
        <pt x="680" y="313" on="1"/>
        <pt x="688" y="313" on="1"/>
        <pt x="706" y="383" on="0"/>
        <pt x="723" y="445" on="1"/>
        <pt x="730" y="472" on="0"/>
        <pt x="745" y="527" on="0"/>
        <pt x="760" y="579" on="0"/>
        <pt x="774" y="624" on="0"/>
        <pt x="780" y="639" on="1"/>
        <pt x="1057" y="1405" on="1"/>
        <pt x="1411" y="1405" on="1"/>
        <pt x="1214" y="0" on="1"/>
      </contour>
    </TTGlyph>
    <TTGlyph name="N" xMin="57" yMin="0" xMax="1210" yMax="1405">
      <contour>
        <pt x="782" y="0" on="1"/>
        <pt x="461" y="774" on="1"/>
        <pt x="456" y="785" on="0"/>
        <pt x="442" y="828" on="0"/>
        <pt x="434" y="850" on="1"/>
        <pt x="425" y="876" on="0"/>
        <pt x="416" y="905" on="1"/>
        <pt x="408" y="899" on="1"/>
        <pt x="406" y="876" on="0"/>
        <pt x="404" y="854" on="1"/>
        <pt x="402" y="835" on="0"/>
        <pt x="397" y="796" on="0"/>
        <pt x="395" y="782" on="1"/>
        <pt x="287" y="0" on="1"/>
        <pt x="57" y="0" on="1"/>
        <pt x="254" y="1405" on="1"/>
        <pt x="483" y="1405" on="1"/>
        <pt x="805" y="631" on="1"/>
        <pt x="810" y="617" on="0"/>
        <pt x="825" y="573" on="0"/>
        <pt x="833" y="552" on="1"/>
        <pt x="841" y="527" on="0"/>
        <pt x="850" y="500" on="1"/>
        <pt x="856" y="506" on="1"/>
        <pt x="858" y="533" on="0"/>
        <pt x="861" y="556" on="1"/>
        <pt x="863" y="576" on="0"/>
        <pt x="868" y="614" on="0"/>
        <pt x="870" y="623" on="1"/>
        <pt x="979" y="1405" on="1"/>
        <pt x="1210" y="1405" on="1"/>
        <pt x="1014" y="0" on="1"/>
      </contour>
    </TTGlyph>
    <TTGlyph name="Nacute" xMin="57" yMin="0" xMax="1210" yMax="1808">
      <contour>
        <pt x="1049" y="1808" on="1"/>
        <pt x="1051" y="1802" on="1"/>
        <pt x="829" y="1538" on="1"/>
        <pt x="627" y="1538" on="1"/>
        <pt x="803" y="1808" on="1"/>
      </contour>
      <contour>
        <pt x="782" y="0" on="1"/>
        <pt x="461" y="774" on="1"/>
        <pt x="456" y="785" on="0"/>
        <pt x="442" y="828" on="0"/>
        <pt x="434" y="850" on="1"/>
        <pt x="425" y="876" on="0"/>
        <pt x="416" y="905" on="1"/>
        <pt x="408" y="899" on="1"/>
        <pt x="406" y="876" on="0"/>
        <pt x="404" y="854" on="1"/>
        <pt x="402" y="835" on="0"/>
        <pt x="397" y="796" on="0"/>
        <pt x="395" y="782" on="1"/>
        <pt x="287" y="0" on="1"/>
        <pt x="57" y="0" on="1"/>
        <pt x="254" y="1405" on="1"/>
        <pt x="483" y="1405" on="1"/>
        <pt x="805" y="631" on="1"/>
        <pt x="810" y="617" on="0"/>
        <pt x="825" y="573" on="0"/>
        <pt x="833" y="552" on="1"/>
        <pt x="841" y="527" on="0"/>
        <pt x="850" y="500" on="1"/>
        <pt x="856" y="506" on="1"/>
        <pt x="858" y="533" on="0"/>
        <pt x="861" y="556" on="1"/>
        <pt x="863" y="576" on="0"/>
        <pt x="868" y="614" on="0"/>
        <pt x="870" y="623" on="1"/>
        <pt x="979" y="1405" on="1"/>
        <pt x="1210" y="1405" on="1"/>
        <pt x="1014" y="0" on="1"/>
      </contour>
    </TTGlyph>
    <TTGlyph name="Ncaron" xMin="57" yMin="0" xMax="1210" yMax="1808">
      <contour>
        <pt x="698" y="1808" on="1"/>
        <pt x="770" y="1667" on="1"/>
        <pt x="872" y="1808" on="1"/>
        <pt x="1065" y="1808" on="1"/>
        <pt x="852" y="1532" on="1"/>
        <pt x="651" y="1532" on="1"/>
        <pt x="514" y="1808" on="1"/>
      </contour>
      <contour>
        <pt x="782" y="0" on="1"/>
        <pt x="461" y="774" on="1"/>
        <pt x="456" y="785" on="0"/>
        <pt x="442" y="828" on="0"/>
        <pt x="434" y="850" on="1"/>
        <pt x="425" y="876" on="0"/>
        <pt x="416" y="905" on="1"/>
        <pt x="408" y="899" on="1"/>
        <pt x="406" y="876" on="0"/>
        <pt x="404" y="854" on="1"/>
        <pt x="402" y="835" on="0"/>
        <pt x="397" y="796" on="0"/>
        <pt x="395" y="782" on="1"/>
        <pt x="287" y="0" on="1"/>
        <pt x="57" y="0" on="1"/>
        <pt x="254" y="1405" on="1"/>
        <pt x="483" y="1405" on="1"/>
        <pt x="805" y="631" on="1"/>
        <pt x="810" y="617" on="0"/>
        <pt x="825" y="573" on="0"/>
        <pt x="833" y="552" on="1"/>
        <pt x="841" y="527" on="0"/>
        <pt x="850" y="500" on="1"/>
        <pt x="856" y="506" on="1"/>
        <pt x="858" y="533" on="0"/>
        <pt x="861" y="556" on="1"/>
        <pt x="863" y="576" on="0"/>
        <pt x="868" y="614" on="0"/>
        <pt x="870" y="623" on="1"/>
        <pt x="979" y="1405" on="1"/>
        <pt x="1210" y="1405" on="1"/>
        <pt x="1014" y="0" on="1"/>
      </contour>
    </TTGlyph>
    <TTGlyph name="Ncommaaccent" xMin="57" yMin="-539" xMax="1210" yMax="1405">
      <contour>
        <pt x="616" y="-342" on="1"/>
        <pt x="492" y="-539" on="1"/>
        <pt x="358" y="-539" on="1"/>
        <pt x="453" y="-365" on="1"/>
        <pt x="360" y="-365" on="1"/>
        <pt x="395" y="-113" on="1"/>
        <pt x="649" y="-113" on="1"/>
      </contour>
      <contour>
        <pt x="782" y="0" on="1"/>
        <pt x="461" y="774" on="1"/>
        <pt x="456" y="785" on="0"/>
        <pt x="442" y="828" on="0"/>
        <pt x="434" y="850" on="1"/>
        <pt x="425" y="876" on="0"/>
        <pt x="416" y="905" on="1"/>
        <pt x="408" y="899" on="1"/>
        <pt x="406" y="876" on="0"/>
        <pt x="404" y="854" on="1"/>
        <pt x="402" y="835" on="0"/>
        <pt x="397" y="796" on="0"/>
        <pt x="395" y="782" on="1"/>
        <pt x="287" y="0" on="1"/>
        <pt x="57" y="0" on="1"/>
        <pt x="254" y="1405" on="1"/>
        <pt x="483" y="1405" on="1"/>
        <pt x="805" y="631" on="1"/>
        <pt x="810" y="617" on="0"/>
        <pt x="825" y="573" on="0"/>
        <pt x="833" y="552" on="1"/>
        <pt x="841" y="527" on="0"/>
        <pt x="850" y="500" on="1"/>
        <pt x="856" y="506" on="1"/>
        <pt x="858" y="533" on="0"/>
        <pt x="861" y="556" on="1"/>
        <pt x="863" y="576" on="0"/>
        <pt x="868" y="614" on="0"/>
        <pt x="870" y="623" on="1"/>
        <pt x="979" y="1405" on="1"/>
        <pt x="1210" y="1405" on="1"/>
        <pt x="1014" y="0" on="1"/>
      </contour>
    </TTGlyph>
    <TTGlyph name="Ntilde" xMin="57" yMin="0" xMax="1210" yMax="1808">
      <contour>
        <pt x="426" y="1559" on="1"/>
        <pt x="426" y="1599" on="0"/>
        <pt x="458" y="1687" on="0"/>
        <pt x="518" y="1761" on="0"/>
        <pt x="603" y="1808" on="0"/>
        <pt x="657" y="1808" on="1"/>
        <pt x="694" y="1808" on="0"/>
        <pt x="759" y="1785" on="0"/>
        <pt x="820" y="1756" on="0"/>
        <pt x="881" y="1733" on="0"/>
        <pt x="915" y="1733" on="1"/>
        <pt x="947" y="1733" on="0"/>
        <pt x="993" y="1765" on="0"/>
        <pt x="1006" y="1808" on="1"/>
        <pt x="1139" y="1808" on="1"/>
        <pt x="1139" y="1766" on="0"/>
        <pt x="1106" y="1678" on="0"/>
        <pt x="1045" y="1605" on="0"/>
        <pt x="958" y="1559" on="0"/>
        <pt x="903" y="1559" on="1"/>
        <pt x="867" y="1559" on="0"/>
        <pt x="803" y="1582" on="0"/>
        <pt x="742" y="1611" on="0"/>
        <pt x="681" y="1634" on="0"/>
        <pt x="647" y="1634" on="1"/>
        <pt x="615" y="1634" on="0"/>
        <pt x="569" y="1601" on="0"/>
        <pt x="557" y="1559" on="1"/>
      </contour>
      <contour>
        <pt x="782" y="0" on="1"/>
        <pt x="461" y="774" on="1"/>
        <pt x="456" y="785" on="0"/>
        <pt x="442" y="828" on="0"/>
        <pt x="434" y="850" on="1"/>
        <pt x="425" y="876" on="0"/>
        <pt x="416" y="905" on="1"/>
        <pt x="408" y="899" on="1"/>
        <pt x="406" y="876" on="0"/>
        <pt x="404" y="854" on="1"/>
        <pt x="402" y="835" on="0"/>
        <pt x="397" y="796" on="0"/>
        <pt x="395" y="782" on="1"/>
        <pt x="287" y="0" on="1"/>
        <pt x="57" y="0" on="1"/>
        <pt x="254" y="1405" on="1"/>
        <pt x="483" y="1405" on="1"/>
        <pt x="805" y="631" on="1"/>
        <pt x="810" y="617" on="0"/>
        <pt x="825" y="573" on="0"/>
        <pt x="833" y="552" on="1"/>
        <pt x="841" y="527" on="0"/>
        <pt x="850" y="500" on="1"/>
        <pt x="856" y="506" on="1"/>
        <pt x="858" y="533" on="0"/>
        <pt x="861" y="556" on="1"/>
        <pt x="863" y="576" on="0"/>
        <pt x="868" y="614" on="0"/>
        <pt x="870" y="623" on="1"/>
        <pt x="979" y="1405" on="1"/>
        <pt x="1210" y="1405" on="1"/>
        <pt x="1014" y="0" on="1"/>
      </contour>
    </TTGlyph>
    <TTGlyph name="O" xMin="92" yMin="-25" xMax="1276" yMax="1430">
      <contour>
        <pt x="92" y="512" on="1"/>
        <pt x="92" y="615" on="0"/>
        <pt x="122" y="831" on="0"/>
        <pt x="188" y="1035" on="0"/>
        <pt x="292" y="1216" on="0"/>
        <pt x="439" y="1351" on="0"/>
        <pt x="632" y="1430" on="0"/>
        <pt x="754" y="1430" on="1"/>
        <pt x="877" y="1430" on="0"/>
        <pt x="1070" y="1364" on="0"/>
        <pt x="1205" y="1231" on="0"/>
        <pt x="1276" y="1028" on="0"/>
        <pt x="1276" y="891" on="1"/>
        <pt x="1276" y="788" on="0"/>
        <pt x="1245" y="572" on="0"/>
        <pt x="1179" y="369" on="0"/>
        <pt x="1074" y="188" on="0"/>
        <pt x="926" y="53" on="0"/>
        <pt x="733" y="-25" on="0"/>
        <pt x="612" y="-25" on="1"/>
        <pt x="489" y="-25" on="0"/>
        <pt x="296" y="40" on="0"/>
        <pt x="163" y="173" on="0"/>
        <pt x="92" y="375" on="0"/>
      </contour>
      <contour>
        <pt x="356" y="522" on="1"/>
        <pt x="356" y="370" on="0"/>
        <pt x="476" y="201" on="0"/>
        <pt x="602" y="201" on="1"/>
        <pt x="684" y="201" on="0"/>
        <pt x="809" y="266" on="0"/>
        <pt x="900" y="373" on="0"/>
        <pt x="960" y="514" on="0"/>
        <pt x="995" y="665" on="0"/>
        <pt x="1010" y="816" on="0"/>
        <pt x="1010" y="881" on="1"/>
        <pt x="1010" y="1034" on="0"/>
        <pt x="888" y="1204" on="0"/>
        <pt x="764" y="1204" on="1"/>
        <pt x="681" y="1204" on="0"/>
        <pt x="556" y="1139" on="0"/>
        <pt x="465" y="1031" on="0"/>
        <pt x="406" y="891" on="0"/>
        <pt x="370" y="739" on="0"/>
        <pt x="356" y="587" on="0"/>
      </contour>
    </TTGlyph>
    <TTGlyph name="OE" xMin="82" yMin="-25" xMax="1733" yMax="1430">
      <contour>
        <pt x="82" y="475" on="1"/>
        <pt x="82" y="538" on="0"/>
        <pt x="94" y="688" on="0"/>
        <pt x="121" y="846" on="0"/>
        <pt x="164" y="1006" on="0"/>
        <pt x="227" y="1153" on="0"/>
        <pt x="310" y="1281" on="0"/>
        <pt x="418" y="1376" on="0"/>
        <pt x="550" y="1430" on="0"/>
        <pt x="631" y="1430" on="1"/>
        <pt x="734" y="1430" on="0"/>
        <pt x="894" y="1355" on="0"/>
        <pt x="946" y="1278" on="1"/>
        <pt x="965" y="1405" on="1"/>
        <pt x="1733" y="1405" on="1"/>
        <pt x="1700" y="1171" on="1"/>
        <pt x="1192" y="1171" on="1"/>
        <pt x="1145" y="836" on="1"/>
        <pt x="1565" y="836" on="1"/>
        <pt x="1532" y="602" on="1"/>
        <pt x="1112" y="602" on="1"/>
        <pt x="1059" y="233" on="1"/>
        <pt x="1581" y="233" on="1"/>
        <pt x="1550" y="0" on="1"/>
        <pt x="768" y="0" on="1"/>
        <pt x="786" y="125" on="1"/>
        <pt x="717" y="48" on="0"/>
        <pt x="554" y="-25" on="0"/>
        <pt x="461" y="-25" on="1"/>
        <pt x="372" y="-25" on="0"/>
        <pt x="231" y="36" on="0"/>
        <pt x="133" y="159" on="0"/>
        <pt x="82" y="347" on="0"/>
      </contour>
      <contour>
        <pt x="375" y="754" on="1"/>
        <pt x="366" y="691" on="0"/>
        <pt x="354" y="602" on="0"/>
        <pt x="348" y="539" on="0"/>
        <pt x="346" y="495" on="0"/>
        <pt x="346" y="477" on="1"/>
        <pt x="346" y="331" on="0"/>
        <pt x="446" y="201" on="0"/>
        <pt x="545" y="201" on="1"/>
        <pt x="607" y="201" on="0"/>
        <pt x="707" y="251" on="0"/>
        <pt x="784" y="360" on="0"/>
        <pt x="839" y="531" on="0"/>
        <pt x="856" y="651" on="1"/>
        <pt x="865" y="714" on="0"/>
        <pt x="876" y="803" on="0"/>
        <pt x="882" y="866" on="0"/>
        <pt x="885" y="910" on="0"/>
        <pt x="885" y="928" on="1"/>
        <pt x="885" y="1003" on="0"/>
        <pt x="857" y="1108" on="0"/>
        <pt x="802" y="1174" on="0"/>
        <pt x="722" y="1204" on="0"/>
        <pt x="670" y="1204" on="1"/>
        <pt x="551" y="1204" on="0"/>
        <pt x="407" y="987" on="0"/>
      </contour>
    </TTGlyph>
    <TTGlyph name="Oacute" xMin="92" yMin="-25" xMax="1276" yMax="1809">
      <contour>
        <pt x="92" y="512" on="1"/>
        <pt x="92" y="615" on="0"/>
        <pt x="122" y="831" on="0"/>
        <pt x="188" y="1035" on="0"/>
        <pt x="292" y="1216" on="0"/>
        <pt x="439" y="1351" on="0"/>
        <pt x="632" y="1430" on="0"/>
        <pt x="754" y="1430" on="1"/>
        <pt x="877" y="1430" on="0"/>
        <pt x="1070" y="1364" on="0"/>
        <pt x="1205" y="1231" on="0"/>
        <pt x="1276" y="1028" on="0"/>
        <pt x="1276" y="891" on="1"/>
        <pt x="1276" y="788" on="0"/>
        <pt x="1245" y="572" on="0"/>
        <pt x="1179" y="369" on="0"/>
        <pt x="1074" y="188" on="0"/>
        <pt x="926" y="53" on="0"/>
        <pt x="733" y="-25" on="0"/>
        <pt x="612" y="-25" on="1"/>
        <pt x="489" y="-25" on="0"/>
        <pt x="296" y="40" on="0"/>
        <pt x="163" y="173" on="0"/>
        <pt x="92" y="375" on="0"/>
      </contour>
      <contour>
        <pt x="356" y="522" on="1"/>
        <pt x="356" y="370" on="0"/>
        <pt x="476" y="201" on="0"/>
        <pt x="602" y="201" on="1"/>
        <pt x="684" y="201" on="0"/>
        <pt x="809" y="266" on="0"/>
        <pt x="900" y="373" on="0"/>
        <pt x="960" y="514" on="0"/>
        <pt x="995" y="665" on="0"/>
        <pt x="1010" y="816" on="0"/>
        <pt x="1010" y="881" on="1"/>
        <pt x="1010" y="1034" on="0"/>
        <pt x="888" y="1204" on="0"/>
        <pt x="764" y="1204" on="1"/>
        <pt x="681" y="1204" on="0"/>
        <pt x="556" y="1139" on="0"/>
        <pt x="465" y="1031" on="0"/>
        <pt x="406" y="891" on="0"/>
        <pt x="370" y="739" on="0"/>
        <pt x="356" y="587" on="0"/>
      </contour>
      <contour>
        <pt x="1098" y="1809" on="1"/>
        <pt x="1100" y="1803" on="1"/>
        <pt x="878" y="1538" on="1"/>
        <pt x="676" y="1538" on="1"/>
        <pt x="852" y="1809" on="1"/>
      </contour>
    </TTGlyph>
    <TTGlyph name="Obreve" xMin="92" yMin="-25" xMax="1276" yMax="1809">
      <contour>
        <pt x="92" y="512" on="1"/>
        <pt x="92" y="615" on="0"/>
        <pt x="122" y="831" on="0"/>
        <pt x="188" y="1035" on="0"/>
        <pt x="292" y="1216" on="0"/>
        <pt x="439" y="1351" on="0"/>
        <pt x="632" y="1430" on="0"/>
        <pt x="754" y="1430" on="1"/>
        <pt x="877" y="1430" on="0"/>
        <pt x="1070" y="1364" on="0"/>
        <pt x="1205" y="1231" on="0"/>
        <pt x="1276" y="1028" on="0"/>
        <pt x="1276" y="891" on="1"/>
        <pt x="1276" y="788" on="0"/>
        <pt x="1245" y="572" on="0"/>
        <pt x="1179" y="369" on="0"/>
        <pt x="1074" y="188" on="0"/>
        <pt x="926" y="53" on="0"/>
        <pt x="733" y="-25" on="0"/>
        <pt x="612" y="-25" on="1"/>
        <pt x="489" y="-25" on="0"/>
        <pt x="296" y="40" on="0"/>
        <pt x="163" y="173" on="0"/>
        <pt x="92" y="375" on="0"/>
      </contour>
      <contour>
        <pt x="356" y="522" on="1"/>
        <pt x="356" y="370" on="0"/>
        <pt x="476" y="201" on="0"/>
        <pt x="602" y="201" on="1"/>
        <pt x="684" y="201" on="0"/>
        <pt x="809" y="266" on="0"/>
        <pt x="900" y="373" on="0"/>
        <pt x="960" y="514" on="0"/>
        <pt x="995" y="665" on="0"/>
        <pt x="1010" y="816" on="0"/>
        <pt x="1010" y="881" on="1"/>
        <pt x="1010" y="1034" on="0"/>
        <pt x="888" y="1204" on="0"/>
        <pt x="764" y="1204" on="1"/>
        <pt x="681" y="1204" on="0"/>
        <pt x="556" y="1139" on="0"/>
        <pt x="465" y="1031" on="0"/>
        <pt x="406" y="891" on="0"/>
        <pt x="370" y="739" on="0"/>
        <pt x="356" y="587" on="0"/>
      </contour>
      <contour>
        <pt x="821" y="1590" on="1"/>
        <pt x="760" y="1590" on="0"/>
        <pt x="666" y="1624" on="0"/>
        <pt x="601" y="1680" on="0"/>
        <pt x="567" y="1750" on="0"/>
        <pt x="567" y="1786" on="1"/>
        <pt x="567" y="1797" on="1"/>
        <pt x="567" y="1803" on="0"/>
        <pt x="569" y="1809" on="1"/>
        <pt x="721" y="1809" on="1"/>
        <pt x="722" y="1798" on="0"/>
        <pt x="737" y="1774" on="0"/>
        <pt x="766" y="1754" on="0"/>
        <pt x="806" y="1741" on="0"/>
        <pt x="832" y="1741" on="1"/>
        <pt x="858" y="1741" on="0"/>
        <pt x="903" y="1754" on="0"/>
        <pt x="939" y="1774" on="0"/>
        <pt x="962" y="1798" on="0"/>
        <pt x="965" y="1809" on="1"/>
        <pt x="1116" y="1809" on="1"/>
        <pt x="1111" y="1770" on="0"/>
        <pt x="1063" y="1692" on="0"/>
        <pt x="986" y="1629" on="0"/>
        <pt x="882" y="1590" on="0"/>
      </contour>
    </TTGlyph>
    <TTGlyph name="Ocircumflex" xMin="92" yMin="-25" xMax="1276" yMax="1809">
      <contour>
        <pt x="92" y="512" on="1"/>
        <pt x="92" y="615" on="0"/>
        <pt x="122" y="831" on="0"/>
        <pt x="188" y="1035" on="0"/>
        <pt x="292" y="1216" on="0"/>
        <pt x="439" y="1351" on="0"/>
        <pt x="632" y="1430" on="0"/>
        <pt x="754" y="1430" on="1"/>
        <pt x="877" y="1430" on="0"/>
        <pt x="1070" y="1364" on="0"/>
        <pt x="1205" y="1231" on="0"/>
        <pt x="1276" y="1028" on="0"/>
        <pt x="1276" y="891" on="1"/>
        <pt x="1276" y="788" on="0"/>
        <pt x="1245" y="572" on="0"/>
        <pt x="1179" y="369" on="0"/>
        <pt x="1074" y="188" on="0"/>
        <pt x="926" y="53" on="0"/>
        <pt x="733" y="-25" on="0"/>
        <pt x="612" y="-25" on="1"/>
        <pt x="489" y="-25" on="0"/>
        <pt x="296" y="40" on="0"/>
        <pt x="163" y="173" on="0"/>
        <pt x="92" y="375" on="0"/>
      </contour>
      <contour>
        <pt x="356" y="522" on="1"/>
        <pt x="356" y="370" on="0"/>
        <pt x="476" y="201" on="0"/>
        <pt x="602" y="201" on="1"/>
        <pt x="684" y="201" on="0"/>
        <pt x="809" y="266" on="0"/>
        <pt x="900" y="373" on="0"/>
        <pt x="960" y="514" on="0"/>
        <pt x="995" y="665" on="0"/>
        <pt x="1010" y="816" on="0"/>
        <pt x="1010" y="881" on="1"/>
        <pt x="1010" y="1034" on="0"/>
        <pt x="888" y="1204" on="0"/>
        <pt x="764" y="1204" on="1"/>
        <pt x="681" y="1204" on="0"/>
        <pt x="556" y="1139" on="0"/>
        <pt x="465" y="1031" on="0"/>
        <pt x="406" y="891" on="0"/>
        <pt x="370" y="739" on="0"/>
        <pt x="356" y="587" on="0"/>
      </contour>
      <contour>
        <pt x="942" y="1809" on="1"/>
        <pt x="1077" y="1532" on="1"/>
        <pt x="893" y="1532" on="1"/>
        <pt x="823" y="1674" on="1"/>
        <pt x="719" y="1532" on="1"/>
        <pt x="528" y="1532" on="1"/>
        <pt x="741" y="1809" on="1"/>
      </contour>
    </TTGlyph>
    <TTGlyph name="Odieresis" xMin="92" yMin="-25" xMax="1276" yMax="1809">
      <contour>
        <pt x="92" y="512" on="1"/>
        <pt x="92" y="615" on="0"/>
        <pt x="122" y="831" on="0"/>
        <pt x="188" y="1035" on="0"/>
        <pt x="292" y="1216" on="0"/>
        <pt x="439" y="1351" on="0"/>
        <pt x="632" y="1430" on="0"/>
        <pt x="754" y="1430" on="1"/>
        <pt x="877" y="1430" on="0"/>
        <pt x="1070" y="1364" on="0"/>
        <pt x="1205" y="1231" on="0"/>
        <pt x="1276" y="1028" on="0"/>
        <pt x="1276" y="891" on="1"/>
        <pt x="1276" y="788" on="0"/>
        <pt x="1245" y="572" on="0"/>
        <pt x="1179" y="369" on="0"/>
        <pt x="1074" y="188" on="0"/>
        <pt x="926" y="53" on="0"/>
        <pt x="733" y="-25" on="0"/>
        <pt x="612" y="-25" on="1"/>
        <pt x="489" y="-25" on="0"/>
        <pt x="296" y="40" on="0"/>
        <pt x="163" y="173" on="0"/>
        <pt x="92" y="375" on="0"/>
      </contour>
      <contour>
        <pt x="356" y="522" on="1"/>
        <pt x="356" y="370" on="0"/>
        <pt x="476" y="201" on="0"/>
        <pt x="602" y="201" on="1"/>
        <pt x="684" y="201" on="0"/>
        <pt x="809" y="266" on="0"/>
        <pt x="900" y="373" on="0"/>
        <pt x="960" y="514" on="0"/>
        <pt x="995" y="665" on="0"/>
        <pt x="1010" y="816" on="0"/>
        <pt x="1010" y="881" on="1"/>
        <pt x="1010" y="1034" on="0"/>
        <pt x="888" y="1204" on="0"/>
        <pt x="764" y="1204" on="1"/>
        <pt x="681" y="1204" on="0"/>
        <pt x="556" y="1139" on="0"/>
        <pt x="465" y="1031" on="0"/>
        <pt x="406" y="891" on="0"/>
        <pt x="370" y="739" on="0"/>
        <pt x="356" y="587" on="0"/>
      </contour>
      <contour>
        <pt x="1124" y="1809" on="1"/>
        <pt x="1094" y="1585" on="1"/>
        <pt x="889" y="1585" on="1"/>
        <pt x="919" y="1809" on="1"/>
      </contour>
      <contour>
        <pt x="766" y="1809" on="1"/>
        <pt x="735" y="1585" on="1"/>
        <pt x="532" y="1585" on="1"/>
        <pt x="561" y="1809" on="1"/>
      </contour>
    </TTGlyph>
    <TTGlyph name="Ograve" xMin="92" yMin="-25" xMax="1276" yMax="1809">
      <contour>
        <pt x="92" y="512" on="1"/>
        <pt x="92" y="615" on="0"/>
        <pt x="122" y="831" on="0"/>
        <pt x="188" y="1035" on="0"/>
        <pt x="292" y="1216" on="0"/>
        <pt x="439" y="1351" on="0"/>
        <pt x="632" y="1430" on="0"/>
        <pt x="754" y="1430" on="1"/>
        <pt x="877" y="1430" on="0"/>
        <pt x="1070" y="1364" on="0"/>
        <pt x="1205" y="1231" on="0"/>
        <pt x="1276" y="1028" on="0"/>
        <pt x="1276" y="891" on="1"/>
        <pt x="1276" y="788" on="0"/>
        <pt x="1245" y="572" on="0"/>
        <pt x="1179" y="369" on="0"/>
        <pt x="1074" y="188" on="0"/>
        <pt x="926" y="53" on="0"/>
        <pt x="733" y="-25" on="0"/>
        <pt x="612" y="-25" on="1"/>
        <pt x="489" y="-25" on="0"/>
        <pt x="296" y="40" on="0"/>
        <pt x="163" y="173" on="0"/>
        <pt x="92" y="375" on="0"/>
      </contour>
      <contour>
        <pt x="356" y="522" on="1"/>
        <pt x="356" y="370" on="0"/>
        <pt x="476" y="201" on="0"/>
        <pt x="602" y="201" on="1"/>
        <pt x="684" y="201" on="0"/>
        <pt x="809" y="266" on="0"/>
        <pt x="900" y="373" on="0"/>
        <pt x="960" y="514" on="0"/>
        <pt x="995" y="665" on="0"/>
        <pt x="1010" y="816" on="0"/>
        <pt x="1010" y="881" on="1"/>
        <pt x="1010" y="1034" on="0"/>
        <pt x="888" y="1204" on="0"/>
        <pt x="764" y="1204" on="1"/>
        <pt x="681" y="1204" on="0"/>
        <pt x="556" y="1139" on="0"/>
        <pt x="465" y="1031" on="0"/>
        <pt x="406" y="891" on="0"/>
        <pt x="370" y="739" on="0"/>
        <pt x="356" y="587" on="0"/>
      </contour>
      <contour>
        <pt x="562" y="1809" on="1"/>
        <pt x="808" y="1809" on="1"/>
        <pt x="945" y="1538" on="1"/>
        <pt x="742" y="1538" on="1"/>
        <pt x="558" y="1803" on="1"/>
      </contour>
    </TTGlyph>
    <TTGlyph name="Ohungarumlaut" xMin="92" yMin="-25" xMax="1276" yMax="1809">
      <contour>
        <pt x="92" y="512" on="1"/>
        <pt x="92" y="615" on="0"/>
        <pt x="122" y="831" on="0"/>
        <pt x="188" y="1035" on="0"/>
        <pt x="292" y="1216" on="0"/>
        <pt x="439" y="1351" on="0"/>
        <pt x="632" y="1430" on="0"/>
        <pt x="754" y="1430" on="1"/>
        <pt x="877" y="1430" on="0"/>
        <pt x="1070" y="1364" on="0"/>
        <pt x="1205" y="1231" on="0"/>
        <pt x="1276" y="1028" on="0"/>
        <pt x="1276" y="891" on="1"/>
        <pt x="1276" y="788" on="0"/>
        <pt x="1245" y="572" on="0"/>
        <pt x="1179" y="369" on="0"/>
        <pt x="1074" y="188" on="0"/>
        <pt x="926" y="53" on="0"/>
        <pt x="733" y="-25" on="0"/>
        <pt x="612" y="-25" on="1"/>
        <pt x="489" y="-25" on="0"/>
        <pt x="296" y="40" on="0"/>
        <pt x="163" y="173" on="0"/>
        <pt x="92" y="375" on="0"/>
      </contour>
      <contour>
        <pt x="356" y="522" on="1"/>
        <pt x="356" y="370" on="0"/>
        <pt x="476" y="201" on="0"/>
        <pt x="602" y="201" on="1"/>
        <pt x="684" y="201" on="0"/>
        <pt x="809" y="266" on="0"/>
        <pt x="900" y="373" on="0"/>
        <pt x="960" y="514" on="0"/>
        <pt x="995" y="665" on="0"/>
        <pt x="1010" y="816" on="0"/>
        <pt x="1010" y="881" on="1"/>
        <pt x="1010" y="1034" on="0"/>
        <pt x="888" y="1204" on="0"/>
        <pt x="764" y="1204" on="1"/>
        <pt x="681" y="1204" on="0"/>
        <pt x="556" y="1139" on="0"/>
        <pt x="465" y="1031" on="0"/>
        <pt x="406" y="891" on="0"/>
        <pt x="370" y="739" on="0"/>
        <pt x="356" y="587" on="0"/>
      </contour>
      <contour>
        <pt x="1177" y="1809" on="1"/>
        <pt x="1179" y="1803" on="1"/>
        <pt x="1007" y="1538" on="1"/>
        <pt x="845" y="1538" on="1"/>
        <pt x="972" y="1809" on="1"/>
      </contour>
      <contour>
        <pt x="890" y="1809" on="1"/>
        <pt x="892" y="1803" on="1"/>
        <pt x="720" y="1538" on="1"/>
        <pt x="558" y="1538" on="1"/>
        <pt x="685" y="1809" on="1"/>
      </contour>
    </TTGlyph>
    <TTGlyph name="Omacron" xMin="92" yMin="-25" xMax="1276" yMax="1733">
      <contour>
        <pt x="92" y="512" on="1"/>
        <pt x="92" y="615" on="0"/>
        <pt x="122" y="831" on="0"/>
        <pt x="188" y="1035" on="0"/>
        <pt x="292" y="1216" on="0"/>
        <pt x="439" y="1351" on="0"/>
        <pt x="632" y="1430" on="0"/>
        <pt x="754" y="1430" on="1"/>
        <pt x="877" y="1430" on="0"/>
        <pt x="1070" y="1364" on="0"/>
        <pt x="1205" y="1231" on="0"/>
        <pt x="1276" y="1028" on="0"/>
        <pt x="1276" y="891" on="1"/>
        <pt x="1276" y="788" on="0"/>
        <pt x="1245" y="572" on="0"/>
        <pt x="1179" y="369" on="0"/>
        <pt x="1074" y="188" on="0"/>
        <pt x="926" y="53" on="0"/>
        <pt x="733" y="-25" on="0"/>
        <pt x="612" y="-25" on="1"/>
        <pt x="489" y="-25" on="0"/>
        <pt x="296" y="40" on="0"/>
        <pt x="163" y="173" on="0"/>
        <pt x="92" y="375" on="0"/>
      </contour>
      <contour>
        <pt x="356" y="522" on="1"/>
        <pt x="356" y="370" on="0"/>
        <pt x="476" y="201" on="0"/>
        <pt x="602" y="201" on="1"/>
        <pt x="684" y="201" on="0"/>
        <pt x="809" y="266" on="0"/>
        <pt x="900" y="373" on="0"/>
        <pt x="960" y="514" on="0"/>
        <pt x="995" y="665" on="0"/>
        <pt x="1010" y="816" on="0"/>
        <pt x="1010" y="881" on="1"/>
        <pt x="1010" y="1034" on="0"/>
        <pt x="888" y="1204" on="0"/>
        <pt x="764" y="1204" on="1"/>
        <pt x="681" y="1204" on="0"/>
        <pt x="556" y="1139" on="0"/>
        <pt x="465" y="1031" on="0"/>
        <pt x="406" y="891" on="0"/>
        <pt x="370" y="739" on="0"/>
        <pt x="356" y="587" on="0"/>
      </contour>
      <contour>
        <pt x="1091" y="1733" on="1"/>
        <pt x="1064" y="1555" on="1"/>
        <pt x="542" y="1555" on="1"/>
        <pt x="569" y="1733" on="1"/>
      </contour>
    </TTGlyph>
    <TTGlyph name="Omega" xMin="162" yMin="0" xMax="1430" yMax="1430">
      <contour>
        <pt x="244" y="233" on="1"/>
        <pt x="267" y="233" on="0"/>
        <pt x="347" y="211" on="0"/>
        <pt x="392" y="205" on="1"/>
        <pt x="327" y="268" on="0"/>
        <pt x="250" y="453" on="0"/>
        <pt x="250" y="578" on="1"/>
        <pt x="250" y="680" on="0"/>
        <pt x="285" y="885" on="0"/>
        <pt x="356" y="1074" on="0"/>
        <pt x="464" y="1239" on="0"/>
        <pt x="610" y="1360" on="0"/>
        <pt x="795" y="1430" on="0"/>
        <pt x="908" y="1430" on="1"/>
        <pt x="1031" y="1430" on="0"/>
        <pt x="1224" y="1365" on="0"/>
        <pt x="1359" y="1231" on="0"/>
        <pt x="1430" y="1029" on="0"/>
        <pt x="1430" y="893" on="1"/>
        <pt x="1430" y="770" on="0"/>
        <pt x="1389" y="562" on="0"/>
        <pt x="1314" y="390" on="0"/>
        <pt x="1208" y="255" on="0"/>
        <pt x="1143" y="205" on="1"/>
        <pt x="1165" y="208" on="0"/>
        <pt x="1211" y="217" on="0"/>
        <pt x="1252" y="226" on="0"/>
        <pt x="1287" y="233" on="0"/>
        <pt x="1299" y="233" on="1"/>
        <pt x="1348" y="233" on="1"/>
        <pt x="1317" y="0" on="1"/>
        <pt x="816" y="0" on="1"/>
        <pt x="840" y="166" on="1"/>
        <pt x="901" y="181" on="0"/>
        <pt x="999" y="255" on="0"/>
        <pt x="1072" y="368" on="0"/>
        <pt x="1121" y="516" on="0"/>
        <pt x="1133" y="606" on="1"/>
        <pt x="1143" y="679" on="0"/>
        <pt x="1155" y="773" on="0"/>
        <pt x="1162" y="833" on="0"/>
        <pt x="1164" y="868" on="0"/>
        <pt x="1164" y="883" on="1"/>
        <pt x="1164" y="959" on="0"/>
        <pt x="1132" y="1078" on="0"/>
        <pt x="1069" y="1160" on="0"/>
        <pt x="972" y="1204" on="0"/>
        <pt x="908" y="1204" on="1"/>
        <pt x="831" y="1204" on="0"/>
        <pt x="705" y="1142" on="0"/>
        <pt x="609" y="1026" on="0"/>
        <pt x="546" y="859" on="0"/>
        <pt x="533" y="754" on="1"/>
        <pt x="524" y="682" on="0"/>
        <pt x="512" y="589" on="0"/>
        <pt x="506" y="531" on="0"/>
        <pt x="504" y="497" on="0"/>
        <pt x="504" y="483" on="1"/>
        <pt x="504" y="355" on="0"/>
        <pt x="594" y="194" on="0"/>
        <pt x="687" y="168" on="1"/>
        <pt x="662" y="0" on="1"/>
        <pt x="162" y="0" on="1"/>
        <pt x="193" y="233" on="1"/>
      </contour>
    </TTGlyph>
    <TTGlyph name="Oslash" xMin="92" yMin="-76" xMax="1276" yMax="1481">
      <contour>
        <pt x="217" y="119" on="1"/>
        <pt x="92" y="253" on="0"/>
        <pt x="92" y="512" on="1"/>
        <pt x="92" y="615" on="0"/>
        <pt x="122" y="831" on="0"/>
        <pt x="188" y="1035" on="0"/>
        <pt x="292" y="1216" on="0"/>
        <pt x="439" y="1351" on="0"/>
        <pt x="632" y="1430" on="0"/>
        <pt x="754" y="1430" on="1"/>
        <pt x="835" y="1430" on="0"/>
        <pt x="975" y="1401" on="0"/>
        <pt x="1032" y="1372" on="1"/>
        <pt x="1104" y="1481" on="1"/>
        <pt x="1276" y="1481" on="1"/>
        <pt x="1149" y="1286" on="1"/>
        <pt x="1211" y="1218" on="0"/>
        <pt x="1276" y="1022" on="0"/>
        <pt x="1276" y="891" on="1"/>
        <pt x="1276" y="788" on="0"/>
        <pt x="1245" y="572" on="0"/>
        <pt x="1179" y="369" on="0"/>
        <pt x="1074" y="188" on="0"/>
        <pt x="926" y="53" on="0"/>
        <pt x="733" y="-25" on="0"/>
        <pt x="612" y="-25" on="1"/>
        <pt x="531" y="-25" on="0"/>
        <pt x="393" y="5" on="0"/>
        <pt x="334" y="33" on="1"/>
        <pt x="264" y="-76" on="1"/>
        <pt x="92" y="-76" on="1"/>
      </contour>
      <contour>
        <pt x="899" y="1167" on="1"/>
        <pt x="873" y="1186" on="0"/>
        <pt x="804" y="1204" on="0"/>
        <pt x="764" y="1204" on="1"/>
        <pt x="681" y="1204" on="0"/>
        <pt x="556" y="1139" on="0"/>
        <pt x="465" y="1031" on="0"/>
        <pt x="406" y="891" on="0"/>
        <pt x="370" y="739" on="0"/>
        <pt x="356" y="587" on="0"/>
        <pt x="356" y="522" on="1"/>
        <pt x="356" y="476" on="0"/>
        <pt x="366" y="397" on="0"/>
        <pt x="377" y="362" on="1"/>
      </contour>
      <contour>
        <pt x="467" y="236" on="1"/>
        <pt x="520" y="201" on="0"/>
        <pt x="602" y="201" on="1"/>
        <pt x="684" y="201" on="0"/>
        <pt x="809" y="266" on="0"/>
        <pt x="900" y="373" on="0"/>
        <pt x="960" y="514" on="0"/>
        <pt x="995" y="665" on="0"/>
        <pt x="1010" y="816" on="0"/>
        <pt x="1010" y="881" on="1"/>
        <pt x="1010" y="926" on="0"/>
        <pt x="998" y="1004" on="0"/>
        <pt x="987" y="1038" on="1"/>
      </contour>
    </TTGlyph>
    <TTGlyph name="Oslashacute" xMin="92" yMin="-76" xMax="1276" yMax="1809">
      <contour>
        <pt x="217" y="119" on="1"/>
        <pt x="92" y="253" on="0"/>
        <pt x="92" y="512" on="1"/>
        <pt x="92" y="615" on="0"/>
        <pt x="122" y="831" on="0"/>
        <pt x="188" y="1035" on="0"/>
        <pt x="292" y="1216" on="0"/>
        <pt x="439" y="1351" on="0"/>
        <pt x="632" y="1430" on="0"/>
        <pt x="754" y="1430" on="1"/>
        <pt x="835" y="1430" on="0"/>
        <pt x="975" y="1401" on="0"/>
        <pt x="1032" y="1372" on="1"/>
        <pt x="1104" y="1481" on="1"/>
        <pt x="1276" y="1481" on="1"/>
        <pt x="1149" y="1286" on="1"/>
        <pt x="1211" y="1218" on="0"/>
        <pt x="1276" y="1022" on="0"/>
        <pt x="1276" y="891" on="1"/>
        <pt x="1276" y="788" on="0"/>
        <pt x="1245" y="572" on="0"/>
        <pt x="1179" y="369" on="0"/>
        <pt x="1074" y="188" on="0"/>
        <pt x="926" y="53" on="0"/>
        <pt x="733" y="-25" on="0"/>
        <pt x="612" y="-25" on="1"/>
        <pt x="531" y="-25" on="0"/>
        <pt x="393" y="5" on="0"/>
        <pt x="334" y="33" on="1"/>
        <pt x="264" y="-76" on="1"/>
        <pt x="92" y="-76" on="1"/>
      </contour>
      <contour>
        <pt x="899" y="1167" on="1"/>
        <pt x="873" y="1186" on="0"/>
        <pt x="804" y="1204" on="0"/>
        <pt x="764" y="1204" on="1"/>
        <pt x="681" y="1204" on="0"/>
        <pt x="556" y="1139" on="0"/>
        <pt x="465" y="1031" on="0"/>
        <pt x="406" y="891" on="0"/>
        <pt x="370" y="739" on="0"/>
        <pt x="356" y="587" on="0"/>
        <pt x="356" y="522" on="1"/>
        <pt x="356" y="476" on="0"/>
        <pt x="366" y="397" on="0"/>
        <pt x="377" y="362" on="1"/>
      </contour>
      <contour>
        <pt x="467" y="236" on="1"/>
        <pt x="520" y="201" on="0"/>
        <pt x="602" y="201" on="1"/>
        <pt x="684" y="201" on="0"/>
        <pt x="809" y="266" on="0"/>
        <pt x="900" y="373" on="0"/>
        <pt x="960" y="514" on="0"/>
        <pt x="995" y="665" on="0"/>
        <pt x="1010" y="816" on="0"/>
        <pt x="1010" y="881" on="1"/>
        <pt x="1010" y="926" on="0"/>
        <pt x="998" y="1004" on="0"/>
        <pt x="987" y="1038" on="1"/>
      </contour>
      <contour>
        <pt x="1098" y="1809" on="1"/>
        <pt x="1100" y="1803" on="1"/>
        <pt x="878" y="1538" on="1"/>
        <pt x="676" y="1538" on="1"/>
        <pt x="852" y="1809" on="1"/>
      </contour>
    </TTGlyph>
    <TTGlyph name="Otilde" xMin="92" yMin="-25" xMax="1276" yMax="1809">
      <contour>
        <pt x="92" y="512" on="1"/>
        <pt x="92" y="615" on="0"/>
        <pt x="122" y="831" on="0"/>
        <pt x="188" y="1035" on="0"/>
        <pt x="292" y="1216" on="0"/>
        <pt x="439" y="1351" on="0"/>
        <pt x="632" y="1430" on="0"/>
        <pt x="754" y="1430" on="1"/>
        <pt x="877" y="1430" on="0"/>
        <pt x="1070" y="1364" on="0"/>
        <pt x="1205" y="1231" on="0"/>
        <pt x="1276" y="1028" on="0"/>
        <pt x="1276" y="891" on="1"/>
        <pt x="1276" y="788" on="0"/>
        <pt x="1245" y="572" on="0"/>
        <pt x="1179" y="369" on="0"/>
        <pt x="1074" y="188" on="0"/>
        <pt x="926" y="53" on="0"/>
        <pt x="733" y="-25" on="0"/>
        <pt x="612" y="-25" on="1"/>
        <pt x="489" y="-25" on="0"/>
        <pt x="296" y="40" on="0"/>
        <pt x="163" y="173" on="0"/>
        <pt x="92" y="375" on="0"/>
      </contour>
      <contour>
        <pt x="356" y="522" on="1"/>
        <pt x="356" y="370" on="0"/>
        <pt x="476" y="201" on="0"/>
        <pt x="602" y="201" on="1"/>
        <pt x="684" y="201" on="0"/>
        <pt x="809" y="266" on="0"/>
        <pt x="900" y="373" on="0"/>
        <pt x="960" y="514" on="0"/>
        <pt x="995" y="665" on="0"/>
        <pt x="1010" y="816" on="0"/>
        <pt x="1010" y="881" on="1"/>
        <pt x="1010" y="1034" on="0"/>
        <pt x="888" y="1204" on="0"/>
        <pt x="764" y="1204" on="1"/>
        <pt x="681" y="1204" on="0"/>
        <pt x="556" y="1139" on="0"/>
        <pt x="465" y="1031" on="0"/>
        <pt x="406" y="891" on="0"/>
        <pt x="370" y="739" on="0"/>
        <pt x="356" y="587" on="0"/>
      </contour>
      <contour>
        <pt x="476" y="1559" on="1"/>
        <pt x="476" y="1599" on="0"/>
        <pt x="508" y="1688" on="0"/>
        <pt x="568" y="1761" on="0"/>
        <pt x="653" y="1809" on="0"/>
        <pt x="707" y="1809" on="1"/>
        <pt x="744" y="1809" on="0"/>
        <pt x="809" y="1785" on="0"/>
        <pt x="870" y="1757" on="0"/>
        <pt x="931" y="1733" on="0"/>
        <pt x="965" y="1733" on="1"/>
        <pt x="997" y="1733" on="0"/>
        <pt x="1043" y="1765" on="0"/>
        <pt x="1056" y="1809" on="1"/>
        <pt x="1189" y="1809" on="1"/>
        <pt x="1189" y="1767" on="0"/>
        <pt x="1156" y="1678" on="0"/>
        <pt x="1095" y="1605" on="0"/>
        <pt x="1008" y="1559" on="0"/>
        <pt x="953" y="1559" on="1"/>
        <pt x="917" y="1559" on="0"/>
        <pt x="853" y="1583" on="0"/>
        <pt x="792" y="1611" on="0"/>
        <pt x="731" y="1635" on="0"/>
        <pt x="697" y="1635" on="1"/>
        <pt x="665" y="1635" on="0"/>
        <pt x="619" y="1601" on="0"/>
        <pt x="607" y="1559" on="1"/>
      </contour>
    </TTGlyph>
    <TTGlyph name="P" xMin="57" yMin="0" xMax="1130" yMax="1405">
      <contour>
        <pt x="393" y="545" on="1"/>
        <pt x="315" y="0" on="1"/>
        <pt x="57" y="0" on="1"/>
        <pt x="254" y="1405" on="1"/>
        <pt x="739" y="1405" on="1"/>
        <pt x="838" y="1405" on="0"/>
        <pt x="985" y="1351" on="0"/>
        <pt x="1082" y="1254" on="0"/>
        <pt x="1130" y="1121" on="0"/>
        <pt x="1130" y="1042" on="1"/>
        <pt x="1130" y="930" on="0"/>
        <pt x="1058" y="747" on="0"/>
        <pt x="932" y="616" on="0"/>
        <pt x="761" y="545" on="0"/>
        <pt x="662" y="545" on="1"/>
      </contour>
      <contour>
        <pt x="481" y="1171" on="1"/>
        <pt x="426" y="776" on="1"/>
        <pt x="647" y="776" on="1"/>
        <pt x="694" y="776" on="0"/>
        <pt x="773" y="807" on="0"/>
        <pt x="830" y="865" on="0"/>
        <pt x="862" y="948" on="0"/>
        <pt x="862" y="1001" on="1"/>
        <pt x="862" y="1079" on="0"/>
        <pt x="774" y="1171" on="0"/>
        <pt x="692" y="1171" on="1"/>
      </contour>
    </TTGlyph>
    <TTGlyph name="Q" xMin="92" yMin="-254" xMax="1276" yMax="1430">
      <contour>
        <pt x="606" y="-25" on="1"/>
        <pt x="485" y="-24" on="0"/>
        <pt x="294" y="42" on="0"/>
        <pt x="162" y="175" on="0"/>
        <pt x="92" y="376" on="0"/>
        <pt x="92" y="512" on="1"/>
        <pt x="92" y="615" on="0"/>
        <pt x="122" y="831" on="0"/>
        <pt x="188" y="1035" on="0"/>
        <pt x="292" y="1216" on="0"/>
        <pt x="439" y="1351" on="0"/>
        <pt x="632" y="1430" on="0"/>
        <pt x="754" y="1430" on="1"/>
        <pt x="877" y="1430" on="0"/>
        <pt x="1070" y="1364" on="0"/>
        <pt x="1205" y="1231" on="0"/>
        <pt x="1276" y="1028" on="0"/>
        <pt x="1276" y="891" on="1"/>
        <pt x="1276" y="808" on="0"/>
        <pt x="1256" y="636" on="0"/>
        <pt x="1214" y="468" on="0"/>
        <pt x="1149" y="310" on="0"/>
        <pt x="1058" y="174" on="0"/>
        <pt x="940" y="64" on="0"/>
        <pt x="866" y="29" on="1"/>
        <pt x="1096" y="-254" on="1"/>
        <pt x="778" y="-254" on="1"/>
      </contour>
      <contour>
        <pt x="764" y="1204" on="1"/>
        <pt x="681" y="1204" on="0"/>
        <pt x="556" y="1139" on="0"/>
        <pt x="465" y="1031" on="0"/>
        <pt x="406" y="891" on="0"/>
        <pt x="370" y="739" on="0"/>
        <pt x="356" y="587" on="0"/>
        <pt x="356" y="522" on="1"/>
        <pt x="356" y="370" on="0"/>
        <pt x="476" y="201" on="0"/>
        <pt x="602" y="201" on="1"/>
        <pt x="684" y="201" on="0"/>
        <pt x="809" y="266" on="0"/>
        <pt x="900" y="373" on="0"/>
        <pt x="960" y="514" on="0"/>
        <pt x="995" y="665" on="0"/>
        <pt x="1010" y="816" on="0"/>
        <pt x="1010" y="881" on="1"/>
        <pt x="1010" y="1034" on="0"/>
        <pt x="888" y="1204" on="0"/>
      </contour>
    </TTGlyph>
    <TTGlyph name="R" xMin="57" yMin="0" xMax="1208" yMax="1405">
      <contour>
        <pt x="1100" y="0" on="1"/>
        <pt x="819" y="0" on="1"/>
        <pt x="655" y="586" on="1"/>
        <pt x="397" y="586" on="1"/>
        <pt x="317" y="0" on="1"/>
        <pt x="57" y="0" on="1"/>
        <pt x="254" y="1405" on="1"/>
        <pt x="805" y="1405" on="1"/>
        <pt x="907" y="1405" on="0"/>
        <pt x="1058" y="1355" on="0"/>
        <pt x="1159" y="1263" on="0"/>
        <pt x="1208" y="1136" on="0"/>
        <pt x="1208" y="1059" on="1"/>
        <pt x="1208" y="983" on="0"/>
        <pt x="1167" y="849" on="0"/>
        <pt x="1090" y="740" on="0"/>
        <pt x="980" y="660" on="0"/>
        <pt x="911" y="637" on="1"/>
      </contour>
      <contour>
        <pt x="481" y="1171" on="1"/>
        <pt x="430" y="817" on="1"/>
        <pt x="707" y="817" on="1"/>
        <pt x="810" y="817" on="0"/>
        <pt x="928" y="926" on="0"/>
        <pt x="928" y="1022" on="1"/>
        <pt x="928" y="1091" on="0"/>
        <pt x="851" y="1171" on="0"/>
        <pt x="766" y="1171" on="1"/>
      </contour>
    </TTGlyph>
    <TTGlyph name="Racute" xMin="57" yMin="0" xMax="1208" yMax="1808">
      <contour>
        <pt x="1049" y="1808" on="1"/>
        <pt x="1051" y="1802" on="1"/>
        <pt x="829" y="1538" on="1"/>
        <pt x="627" y="1538" on="1"/>
        <pt x="803" y="1808" on="1"/>
      </contour>
      <contour>
        <pt x="1100" y="0" on="1"/>
        <pt x="819" y="0" on="1"/>
        <pt x="655" y="586" on="1"/>
        <pt x="397" y="586" on="1"/>
        <pt x="317" y="0" on="1"/>
        <pt x="57" y="0" on="1"/>
        <pt x="254" y="1405" on="1"/>
        <pt x="805" y="1405" on="1"/>
        <pt x="907" y="1405" on="0"/>
        <pt x="1058" y="1355" on="0"/>
        <pt x="1159" y="1263" on="0"/>
        <pt x="1208" y="1136" on="0"/>
        <pt x="1208" y="1059" on="1"/>
        <pt x="1208" y="983" on="0"/>
        <pt x="1167" y="849" on="0"/>
        <pt x="1090" y="740" on="0"/>
        <pt x="980" y="660" on="0"/>
        <pt x="911" y="637" on="1"/>
      </contour>
      <contour>
        <pt x="481" y="1171" on="1"/>
        <pt x="430" y="817" on="1"/>
        <pt x="707" y="817" on="1"/>
        <pt x="810" y="817" on="0"/>
        <pt x="928" y="926" on="0"/>
        <pt x="928" y="1022" on="1"/>
        <pt x="928" y="1091" on="0"/>
        <pt x="851" y="1171" on="0"/>
        <pt x="766" y="1171" on="1"/>
      </contour>
    </TTGlyph>
    <TTGlyph name="Rcaron" xMin="57" yMin="0" xMax="1208" yMax="1808">
      <contour>
        <pt x="698" y="1808" on="1"/>
        <pt x="770" y="1667" on="1"/>
        <pt x="872" y="1808" on="1"/>
        <pt x="1065" y="1808" on="1"/>
        <pt x="852" y="1532" on="1"/>
        <pt x="651" y="1532" on="1"/>
        <pt x="514" y="1808" on="1"/>
      </contour>
      <contour>
        <pt x="1100" y="0" on="1"/>
        <pt x="819" y="0" on="1"/>
        <pt x="655" y="586" on="1"/>
        <pt x="397" y="586" on="1"/>
        <pt x="317" y="0" on="1"/>
        <pt x="57" y="0" on="1"/>
        <pt x="254" y="1405" on="1"/>
        <pt x="805" y="1405" on="1"/>
        <pt x="907" y="1405" on="0"/>
        <pt x="1058" y="1355" on="0"/>
        <pt x="1159" y="1263" on="0"/>
        <pt x="1208" y="1136" on="0"/>
        <pt x="1208" y="1059" on="1"/>
        <pt x="1208" y="983" on="0"/>
        <pt x="1167" y="849" on="0"/>
        <pt x="1090" y="740" on="0"/>
        <pt x="980" y="660" on="0"/>
        <pt x="911" y="637" on="1"/>
      </contour>
      <contour>
        <pt x="481" y="1171" on="1"/>
        <pt x="430" y="817" on="1"/>
        <pt x="707" y="817" on="1"/>
        <pt x="810" y="817" on="0"/>
        <pt x="928" y="926" on="0"/>
        <pt x="928" y="1022" on="1"/>
        <pt x="928" y="1091" on="0"/>
        <pt x="851" y="1171" on="0"/>
        <pt x="766" y="1171" on="1"/>
      </contour>
    </TTGlyph>
    <TTGlyph name="Rcommaaccent" xMin="57" yMin="-539" xMax="1208" yMax="1405">
      <contour>
        <pt x="616" y="-342" on="1"/>
        <pt x="492" y="-539" on="1"/>
        <pt x="358" y="-539" on="1"/>
        <pt x="453" y="-365" on="1"/>
        <pt x="360" y="-365" on="1"/>
        <pt x="395" y="-113" on="1"/>
        <pt x="649" y="-113" on="1"/>
      </contour>
      <contour>
        <pt x="1100" y="0" on="1"/>
        <pt x="819" y="0" on="1"/>
        <pt x="655" y="586" on="1"/>
        <pt x="397" y="586" on="1"/>
        <pt x="317" y="0" on="1"/>
        <pt x="57" y="0" on="1"/>
        <pt x="254" y="1405" on="1"/>
        <pt x="805" y="1405" on="1"/>
        <pt x="907" y="1405" on="0"/>
        <pt x="1058" y="1355" on="0"/>
        <pt x="1159" y="1263" on="0"/>
        <pt x="1208" y="1136" on="0"/>
        <pt x="1208" y="1059" on="1"/>
        <pt x="1208" y="983" on="0"/>
        <pt x="1167" y="849" on="0"/>
        <pt x="1090" y="740" on="0"/>
        <pt x="980" y="660" on="0"/>
        <pt x="911" y="637" on="1"/>
      </contour>
      <contour>
        <pt x="481" y="1171" on="1"/>
        <pt x="430" y="817" on="1"/>
        <pt x="707" y="817" on="1"/>
        <pt x="810" y="817" on="0"/>
        <pt x="928" y="926" on="0"/>
        <pt x="928" y="1022" on="1"/>
        <pt x="928" y="1091" on="0"/>
        <pt x="851" y="1171" on="0"/>
        <pt x="766" y="1171" on="1"/>
      </contour>
    </TTGlyph>
    <TTGlyph name="S" xMin="63" yMin="-25" xMax="1090" yMax="1430">
      <contour>
        <pt x="63" y="352" on="1"/>
        <pt x="63" y="370" on="0"/>
        <pt x="65" y="407" on="0"/>
        <pt x="69" y="442" on="0"/>
        <pt x="72" y="469" on="0"/>
        <pt x="74" y="477" on="1"/>
        <pt x="344" y="477" on="1"/>
        <pt x="341" y="465" on="0"/>
        <pt x="334" y="417" on="0"/>
        <pt x="334" y="379" on="1"/>
        <pt x="334" y="352" on="0"/>
        <pt x="349" y="290" on="0"/>
        <pt x="395" y="236" on="0"/>
        <pt x="479" y="201" on="0"/>
        <pt x="547" y="201" on="1"/>
        <pt x="601" y="201" on="0"/>
        <pt x="685" y="231" on="0"/>
        <pt x="741" y="282" on="0"/>
        <pt x="770" y="348" on="0"/>
        <pt x="770" y="383" on="1"/>
        <pt x="770" y="437" on="0"/>
        <pt x="719" y="515" on="0"/>
        <pt x="635" y="574" on="0"/>
        <pt x="529" y="623" on="0"/>
        <pt x="417" y="674" on="0"/>
        <pt x="311" y="734" on="0"/>
        <pt x="227" y="817" on="0"/>
        <pt x="176" y="929" on="0"/>
        <pt x="176" y="1006" on="1"/>
        <pt x="176" y="1082" on="0"/>
        <pt x="226" y="1234" on="0"/>
        <pt x="338" y="1355" on="0"/>
        <pt x="520" y="1430" on="0"/>
        <pt x="651" y="1430" on="1"/>
        <pt x="784" y="1430" on="0"/>
        <pt x="955" y="1359" on="0"/>
        <pt x="1053" y="1239" on="0"/>
        <pt x="1090" y="1079" on="0"/>
        <pt x="1090" y="991" on="1"/>
        <pt x="825" y="991" on="1"/>
        <pt x="825" y="1036" on="0"/>
        <pt x="804" y="1113" on="0"/>
        <pt x="758" y="1170" on="0"/>
        <pt x="687" y="1202" on="0"/>
        <pt x="637" y="1202" on="1"/>
        <pt x="620" y="1202" on="0"/>
        <pt x="558" y="1194" on="0"/>
        <pt x="496" y="1165" on="0"/>
        <pt x="451" y="1107" on="0"/>
        <pt x="451" y="1057" on="1"/>
        <pt x="451" y="1009" on="0"/>
        <pt x="502" y="943" on="0"/>
        <pt x="585" y="891" on="0"/>
        <pt x="691" y="847" on="0"/>
        <pt x="802" y="797" on="0"/>
        <pt x="908" y="734" on="0"/>
        <pt x="991" y="644" on="0"/>
        <pt x="1042" y="521" on="0"/>
        <pt x="1042" y="436" on="1"/>
        <pt x="1042" y="325" on="0"/>
        <pt x="963" y="154" on="0"/>
        <pt x="825" y="36" on="0"/>
        <pt x="638" y="-25" on="0"/>
        <pt x="530" y="-25" on="1"/>
        <pt x="478" y="-25" on="0"/>
        <pt x="369" y="-7" on="0"/>
        <pt x="265" y="30" on="0"/>
        <pt x="173" y="90" on="0"/>
        <pt x="104" y="173" on="0"/>
        <pt x="63" y="283" on="0"/>
      </contour>
    </TTGlyph>
    <TTGlyph name="Sacute" xMin="63" yMin="-25" xMax="1090" yMax="1809">
      <contour>
        <pt x="63" y="352" on="1"/>
        <pt x="63" y="370" on="0"/>
        <pt x="65" y="407" on="0"/>
        <pt x="69" y="442" on="0"/>
        <pt x="72" y="469" on="0"/>
        <pt x="74" y="477" on="1"/>
        <pt x="344" y="477" on="1"/>
        <pt x="341" y="465" on="0"/>
        <pt x="334" y="417" on="0"/>
        <pt x="334" y="379" on="1"/>
        <pt x="334" y="352" on="0"/>
        <pt x="349" y="290" on="0"/>
        <pt x="395" y="236" on="0"/>
        <pt x="479" y="201" on="0"/>
        <pt x="547" y="201" on="1"/>
        <pt x="601" y="201" on="0"/>
        <pt x="685" y="231" on="0"/>
        <pt x="741" y="282" on="0"/>
        <pt x="770" y="348" on="0"/>
        <pt x="770" y="383" on="1"/>
        <pt x="770" y="437" on="0"/>
        <pt x="719" y="515" on="0"/>
        <pt x="635" y="574" on="0"/>
        <pt x="529" y="623" on="0"/>
        <pt x="417" y="674" on="0"/>
        <pt x="311" y="734" on="0"/>
        <pt x="227" y="817" on="0"/>
        <pt x="176" y="929" on="0"/>
        <pt x="176" y="1006" on="1"/>
        <pt x="176" y="1082" on="0"/>
        <pt x="226" y="1234" on="0"/>
        <pt x="338" y="1355" on="0"/>
        <pt x="520" y="1430" on="0"/>
        <pt x="651" y="1430" on="1"/>
        <pt x="784" y="1430" on="0"/>
        <pt x="955" y="1359" on="0"/>
        <pt x="1053" y="1239" on="0"/>
        <pt x="1090" y="1079" on="0"/>
        <pt x="1090" y="991" on="1"/>
        <pt x="825" y="991" on="1"/>
        <pt x="825" y="1036" on="0"/>
        <pt x="804" y="1113" on="0"/>
        <pt x="758" y="1170" on="0"/>
        <pt x="687" y="1202" on="0"/>
        <pt x="637" y="1202" on="1"/>
        <pt x="620" y="1202" on="0"/>
        <pt x="558" y="1194" on="0"/>
        <pt x="496" y="1165" on="0"/>
        <pt x="451" y="1107" on="0"/>
        <pt x="451" y="1057" on="1"/>
        <pt x="451" y="1009" on="0"/>
        <pt x="502" y="943" on="0"/>
        <pt x="585" y="891" on="0"/>
        <pt x="691" y="847" on="0"/>
        <pt x="802" y="797" on="0"/>
        <pt x="908" y="734" on="0"/>
        <pt x="991" y="644" on="0"/>
        <pt x="1042" y="521" on="0"/>
        <pt x="1042" y="436" on="1"/>
        <pt x="1042" y="325" on="0"/>
        <pt x="963" y="154" on="0"/>
        <pt x="825" y="36" on="0"/>
        <pt x="638" y="-25" on="0"/>
        <pt x="530" y="-25" on="1"/>
        <pt x="478" y="-25" on="0"/>
        <pt x="369" y="-7" on="0"/>
        <pt x="265" y="30" on="0"/>
        <pt x="173" y="90" on="0"/>
        <pt x="104" y="173" on="0"/>
        <pt x="63" y="283" on="0"/>
      </contour>
      <contour>
        <pt x="1009" y="1809" on="1"/>
        <pt x="1011" y="1803" on="1"/>
        <pt x="789" y="1538" on="1"/>
        <pt x="587" y="1538" on="1"/>
        <pt x="763" y="1809" on="1"/>
      </contour>
    </TTGlyph>
    <TTGlyph name="Scaron" xMin="63" yMin="-25" xMax="1090" yMax="1809">
      <contour>
        <pt x="63" y="352" on="1"/>
        <pt x="63" y="370" on="0"/>
        <pt x="65" y="407" on="0"/>
        <pt x="69" y="442" on="0"/>
        <pt x="72" y="469" on="0"/>
        <pt x="74" y="477" on="1"/>
        <pt x="344" y="477" on="1"/>
        <pt x="341" y="465" on="0"/>
        <pt x="334" y="417" on="0"/>
        <pt x="334" y="379" on="1"/>
        <pt x="334" y="352" on="0"/>
        <pt x="349" y="290" on="0"/>
        <pt x="395" y="236" on="0"/>
        <pt x="479" y="201" on="0"/>
        <pt x="547" y="201" on="1"/>
        <pt x="601" y="201" on="0"/>
        <pt x="685" y="231" on="0"/>
        <pt x="741" y="282" on="0"/>
        <pt x="770" y="348" on="0"/>
        <pt x="770" y="383" on="1"/>
        <pt x="770" y="437" on="0"/>
        <pt x="719" y="515" on="0"/>
        <pt x="635" y="574" on="0"/>
        <pt x="529" y="623" on="0"/>
        <pt x="417" y="674" on="0"/>
        <pt x="311" y="734" on="0"/>
        <pt x="227" y="817" on="0"/>
        <pt x="176" y="929" on="0"/>
        <pt x="176" y="1006" on="1"/>
        <pt x="176" y="1082" on="0"/>
        <pt x="226" y="1234" on="0"/>
        <pt x="338" y="1355" on="0"/>
        <pt x="520" y="1430" on="0"/>
        <pt x="651" y="1430" on="1"/>
        <pt x="784" y="1430" on="0"/>
        <pt x="955" y="1359" on="0"/>
        <pt x="1053" y="1239" on="0"/>
        <pt x="1090" y="1079" on="0"/>
        <pt x="1090" y="991" on="1"/>
        <pt x="825" y="991" on="1"/>
        <pt x="825" y="1036" on="0"/>
        <pt x="804" y="1113" on="0"/>
        <pt x="758" y="1170" on="0"/>
        <pt x="687" y="1202" on="0"/>
        <pt x="637" y="1202" on="1"/>
        <pt x="620" y="1202" on="0"/>
        <pt x="558" y="1194" on="0"/>
        <pt x="496" y="1165" on="0"/>
        <pt x="451" y="1107" on="0"/>
        <pt x="451" y="1057" on="1"/>
        <pt x="451" y="1009" on="0"/>
        <pt x="502" y="943" on="0"/>
        <pt x="585" y="891" on="0"/>
        <pt x="691" y="847" on="0"/>
        <pt x="802" y="797" on="0"/>
        <pt x="908" y="734" on="0"/>
        <pt x="991" y="644" on="0"/>
        <pt x="1042" y="521" on="0"/>
        <pt x="1042" y="436" on="1"/>
        <pt x="1042" y="325" on="0"/>
        <pt x="963" y="154" on="0"/>
        <pt x="825" y="36" on="0"/>
        <pt x="638" y="-25" on="0"/>
        <pt x="530" y="-25" on="1"/>
        <pt x="478" y="-25" on="0"/>
        <pt x="369" y="-7" on="0"/>
        <pt x="265" y="30" on="0"/>
        <pt x="173" y="90" on="0"/>
        <pt x="104" y="173" on="0"/>
        <pt x="63" y="283" on="0"/>
      </contour>
      <contour>
        <pt x="660" y="1809" on="1"/>
        <pt x="731" y="1667" on="1"/>
        <pt x="834" y="1809" on="1"/>
        <pt x="1026" y="1809" on="1"/>
        <pt x="813" y="1532" on="1"/>
        <pt x="613" y="1532" on="1"/>
        <pt x="475" y="1809" on="1"/>
      </contour>
    </TTGlyph>
    <TTGlyph name="Scedilla" xMin="63" yMin="-373" xMax="1090" yMax="1430">
      <contour>
        <pt x="63" y="352" on="1"/>
        <pt x="63" y="370" on="0"/>
        <pt x="65" y="407" on="0"/>
        <pt x="69" y="442" on="0"/>
        <pt x="72" y="469" on="0"/>
        <pt x="74" y="477" on="1"/>
        <pt x="344" y="477" on="1"/>
        <pt x="341" y="465" on="0"/>
        <pt x="334" y="417" on="0"/>
        <pt x="334" y="379" on="1"/>
        <pt x="334" y="352" on="0"/>
        <pt x="349" y="290" on="0"/>
        <pt x="395" y="236" on="0"/>
        <pt x="479" y="201" on="0"/>
        <pt x="547" y="201" on="1"/>
        <pt x="601" y="201" on="0"/>
        <pt x="685" y="231" on="0"/>
        <pt x="741" y="282" on="0"/>
        <pt x="770" y="348" on="0"/>
        <pt x="770" y="383" on="1"/>
        <pt x="770" y="437" on="0"/>
        <pt x="719" y="515" on="0"/>
        <pt x="635" y="574" on="0"/>
        <pt x="529" y="623" on="0"/>
        <pt x="417" y="674" on="0"/>
        <pt x="311" y="734" on="0"/>
        <pt x="227" y="817" on="0"/>
        <pt x="176" y="929" on="0"/>
        <pt x="176" y="1006" on="1"/>
        <pt x="176" y="1082" on="0"/>
        <pt x="226" y="1234" on="0"/>
        <pt x="338" y="1355" on="0"/>
        <pt x="520" y="1430" on="0"/>
        <pt x="651" y="1430" on="1"/>
        <pt x="784" y="1430" on="0"/>
        <pt x="955" y="1359" on="0"/>
        <pt x="1053" y="1239" on="0"/>
        <pt x="1090" y="1079" on="0"/>
        <pt x="1090" y="991" on="1"/>
        <pt x="825" y="991" on="1"/>
        <pt x="825" y="1036" on="0"/>
        <pt x="804" y="1113" on="0"/>
        <pt x="758" y="1170" on="0"/>
        <pt x="687" y="1202" on="0"/>
        <pt x="637" y="1202" on="1"/>
        <pt x="620" y="1202" on="0"/>
        <pt x="558" y="1194" on="0"/>
        <pt x="496" y="1165" on="0"/>
        <pt x="451" y="1107" on="0"/>
        <pt x="451" y="1057" on="1"/>
        <pt x="451" y="1009" on="0"/>
        <pt x="502" y="943" on="0"/>
        <pt x="585" y="891" on="0"/>
        <pt x="691" y="847" on="0"/>
        <pt x="802" y="797" on="0"/>
        <pt x="908" y="734" on="0"/>
        <pt x="991" y="644" on="0"/>
        <pt x="1042" y="521" on="0"/>
        <pt x="1042" y="436" on="1"/>
        <pt x="1042" y="328" on="0"/>
        <pt x="967" y="160" on="0"/>
        <pt x="836" y="43" on="0"/>
        <pt x="658" y="-21" on="0"/>
        <pt x="554" y="-24" on="1"/>
        <pt x="544" y="-68" on="1"/>
        <pt x="573" y="-70" on="0"/>
        <pt x="625" y="-85" on="0"/>
        <pt x="664" y="-113" on="0"/>
        <pt x="687" y="-155" on="0"/>
        <pt x="687" y="-184" on="1"/>
        <pt x="687" y="-243" on="0"/>
        <pt x="641" y="-316" on="0"/>
        <pt x="569" y="-358" on="0"/>
        <pt x="481" y="-373" on="0"/>
        <pt x="439" y="-373" on="1"/>
        <pt x="396" y="-373" on="0"/>
        <pt x="304" y="-364" on="0"/>
        <pt x="269" y="-356" on="1"/>
        <pt x="283" y="-256" on="1"/>
        <pt x="429" y="-256" on="1"/>
        <pt x="466" y="-256" on="0"/>
        <pt x="511" y="-232" on="0"/>
        <pt x="511" y="-195" on="1"/>
        <pt x="511" y="-176" on="0"/>
        <pt x="481" y="-158" on="0"/>
        <pt x="447" y="-158" on="1"/>
        <pt x="380" y="-158" on="1"/>
        <pt x="417" y="-15" on="1"/>
        <pt x="350" y="-3" on="0"/>
        <pt x="223" y="50" on="0"/>
        <pt x="124" y="140" on="0"/>
        <pt x="63" y="267" on="0"/>
      </contour>
    </TTGlyph>
    <TTGlyph name="Scircumflex" xMin="63" yMin="-25" xMax="1090" yMax="1809">
      <contour>
        <pt x="63" y="352" on="1"/>
        <pt x="63" y="370" on="0"/>
        <pt x="65" y="407" on="0"/>
        <pt x="69" y="442" on="0"/>
        <pt x="72" y="469" on="0"/>
        <pt x="74" y="477" on="1"/>
        <pt x="344" y="477" on="1"/>
        <pt x="341" y="465" on="0"/>
        <pt x="334" y="417" on="0"/>
        <pt x="334" y="379" on="1"/>
        <pt x="334" y="352" on="0"/>
        <pt x="349" y="290" on="0"/>
        <pt x="395" y="236" on="0"/>
        <pt x="479" y="201" on="0"/>
        <pt x="547" y="201" on="1"/>
        <pt x="601" y="201" on="0"/>
        <pt x="685" y="231" on="0"/>
        <pt x="741" y="282" on="0"/>
        <pt x="770" y="348" on="0"/>
        <pt x="770" y="383" on="1"/>
        <pt x="770" y="437" on="0"/>
        <pt x="719" y="515" on="0"/>
        <pt x="635" y="574" on="0"/>
        <pt x="529" y="623" on="0"/>
        <pt x="417" y="674" on="0"/>
        <pt x="311" y="734" on="0"/>
        <pt x="227" y="817" on="0"/>
        <pt x="176" y="929" on="0"/>
        <pt x="176" y="1006" on="1"/>
        <pt x="176" y="1082" on="0"/>
        <pt x="226" y="1234" on="0"/>
        <pt x="338" y="1355" on="0"/>
        <pt x="520" y="1430" on="0"/>
        <pt x="651" y="1430" on="1"/>
        <pt x="784" y="1430" on="0"/>
        <pt x="955" y="1359" on="0"/>
        <pt x="1053" y="1239" on="0"/>
        <pt x="1090" y="1079" on="0"/>
        <pt x="1090" y="991" on="1"/>
        <pt x="825" y="991" on="1"/>
        <pt x="825" y="1036" on="0"/>
        <pt x="804" y="1113" on="0"/>
        <pt x="758" y="1170" on="0"/>
        <pt x="687" y="1202" on="0"/>
        <pt x="637" y="1202" on="1"/>
        <pt x="620" y="1202" on="0"/>
        <pt x="558" y="1194" on="0"/>
        <pt x="496" y="1165" on="0"/>
        <pt x="451" y="1107" on="0"/>
        <pt x="451" y="1057" on="1"/>
        <pt x="451" y="1009" on="0"/>
        <pt x="502" y="943" on="0"/>
        <pt x="585" y="891" on="0"/>
        <pt x="691" y="847" on="0"/>
        <pt x="802" y="797" on="0"/>
        <pt x="908" y="734" on="0"/>
        <pt x="991" y="644" on="0"/>
        <pt x="1042" y="521" on="0"/>
        <pt x="1042" y="436" on="1"/>
        <pt x="1042" y="325" on="0"/>
        <pt x="963" y="154" on="0"/>
        <pt x="825" y="36" on="0"/>
        <pt x="638" y="-25" on="0"/>
        <pt x="530" y="-25" on="1"/>
        <pt x="478" y="-25" on="0"/>
        <pt x="369" y="-7" on="0"/>
        <pt x="265" y="30" on="0"/>
        <pt x="173" y="90" on="0"/>
        <pt x="104" y="173" on="0"/>
        <pt x="63" y="283" on="0"/>
      </contour>
      <contour>
        <pt x="853" y="1809" on="1"/>
        <pt x="988" y="1532" on="1"/>
        <pt x="804" y="1532" on="1"/>
        <pt x="734" y="1674" on="1"/>
        <pt x="630" y="1532" on="1"/>
        <pt x="439" y="1532" on="1"/>
        <pt x="652" y="1809" on="1"/>
      </contour>
    </TTGlyph>
    <TTGlyph name="T" xMin="131" yMin="0" xMax="1114" yMax="1405">
      <contour>
        <pt x="131" y="1171" on="1"/>
        <pt x="164" y="1405" on="1"/>
        <pt x="1114" y="1405" on="1"/>
        <pt x="1081" y="1171" on="1"/>
        <pt x="735" y="1171" on="1"/>
        <pt x="571" y="0" on="1"/>
        <pt x="313" y="0" on="1"/>
        <pt x="477" y="1171" on="1"/>
      </contour>
    </TTGlyph>
    <TTGlyph name="Tbar" xMin="131" yMin="0" xMax="1114" yMax="1405">
      <contour>
        <pt x="131" y="1171" on="1"/>
        <pt x="164" y="1405" on="1"/>
        <pt x="1114" y="1405" on="1"/>
        <pt x="1081" y="1171" on="1"/>
        <pt x="735" y="1171" on="1"/>
        <pt x="683" y="804" on="1"/>
        <pt x="925" y="804" on="1"/>
        <pt x="899" y="626" on="1"/>
        <pt x="658" y="626" on="1"/>
        <pt x="571" y="0" on="1"/>
        <pt x="313" y="0" on="1"/>
        <pt x="400" y="626" on="1"/>
        <pt x="176" y="626" on="1"/>
        <pt x="202" y="804" on="1"/>
        <pt x="425" y="804" on="1"/>
        <pt x="477" y="1171" on="1"/>
      </contour>
    </TTGlyph>
    <TTGlyph name="Tcaron" xMin="131" yMin="0" xMax="1114" yMax="1809">
      <contour>
        <pt x="131" y="1171" on="1"/>
        <pt x="164" y="1405" on="1"/>
        <pt x="1114" y="1405" on="1"/>
        <pt x="1081" y="1171" on="1"/>
        <pt x="735" y="1171" on="1"/>
        <pt x="571" y="0" on="1"/>
        <pt x="313" y="0" on="1"/>
        <pt x="477" y="1171" on="1"/>
      </contour>
      <contour>
        <pt x="600" y="1809" on="1"/>
        <pt x="671" y="1667" on="1"/>
        <pt x="774" y="1809" on="1"/>
        <pt x="966" y="1809" on="1"/>
        <pt x="753" y="1532" on="1"/>
        <pt x="553" y="1532" on="1"/>
        <pt x="415" y="1809" on="1"/>
      </contour>
    </TTGlyph>
    <TTGlyph name="Tcommaaccent" xMin="131" yMin="-538" xMax="1114" yMax="1405">
      <contour>
        <pt x="131" y="1171" on="1"/>
        <pt x="164" y="1405" on="1"/>
        <pt x="1114" y="1405" on="1"/>
        <pt x="1081" y="1171" on="1"/>
        <pt x="735" y="1171" on="1"/>
        <pt x="571" y="0" on="1"/>
        <pt x="313" y="0" on="1"/>
        <pt x="477" y="1171" on="1"/>
      </contour>
      <contour>
        <pt x="518" y="-342" on="1"/>
        <pt x="394" y="-538" on="1"/>
        <pt x="261" y="-538" on="1"/>
        <pt x="355" y="-365" on="1"/>
        <pt x="262" y="-365" on="1"/>
        <pt x="297" y="-113" on="1"/>
        <pt x="551" y="-113" on="1"/>
      </contour>
    </TTGlyph>
    <TTGlyph name="Thorn" xMin="57" yMin="0" xMax="1096" yMax="1405">
      <contour>
        <pt x="254" y="1405" on="1"/>
        <pt x="514" y="1405" on="1"/>
        <pt x="479" y="1151" on="1"/>
        <pt x="705" y="1151" on="1"/>
        <pt x="804" y="1151" on="0"/>
        <pt x="951" y="1097" on="0"/>
        <pt x="1048" y="1000" on="0"/>
        <pt x="1096" y="867" on="0"/>
        <pt x="1096" y="788" on="1"/>
        <pt x="1096" y="676" on="0"/>
        <pt x="1024" y="493" on="0"/>
        <pt x="897" y="362" on="0"/>
        <pt x="726" y="291" on="0"/>
        <pt x="627" y="291" on="1"/>
        <pt x="358" y="291" on="1"/>
        <pt x="317" y="0" on="1"/>
        <pt x="57" y="0" on="1"/>
      </contour>
      <contour>
        <pt x="446" y="918" on="1"/>
        <pt x="391" y="522" on="1"/>
        <pt x="612" y="522" on="1"/>
        <pt x="659" y="522" on="0"/>
        <pt x="738" y="553" on="0"/>
        <pt x="795" y="611" on="0"/>
        <pt x="827" y="695" on="0"/>
        <pt x="827" y="748" on="1"/>
        <pt x="827" y="825" on="0"/>
        <pt x="739" y="918" on="0"/>
        <pt x="657" y="918" on="1"/>
      </contour>
    </TTGlyph>
    <TTGlyph name="U" xMin="121" yMin="-25" xMax="1214" yMax="1405">
      <contour>
        <pt x="520" y="1405" on="1"/>
        <pt x="481" y="1141" on="0"/>
        <pt x="451" y="928" on="1"/>
        <pt x="438" y="837" on="0"/>
        <pt x="414" y="660" on="0"/>
        <pt x="395" y="516" on="0"/>
        <pt x="383" y="418" on="0"/>
        <pt x="383" y="408" on="1"/>
        <pt x="383" y="305" on="0"/>
        <pt x="484" y="201" on="0"/>
        <pt x="578" y="201" on="1"/>
        <pt x="680" y="201" on="0"/>
        <pt x="805" y="335" on="0"/>
        <pt x="823" y="465" on="1"/>
        <pt x="954" y="1405" on="1"/>
        <pt x="1214" y="1405" on="1"/>
        <pt x="1081" y="457" on="1"/>
        <pt x="1064" y="338" on="0"/>
        <pt x="980" y="158" on="0"/>
        <pt x="852" y="37" on="0"/>
        <pt x="681" y="-25" on="0"/>
        <pt x="578" y="-25" on="1"/>
        <pt x="469" y="-25" on="0"/>
        <pt x="299" y="25" on="0"/>
        <pt x="182" y="122" on="0"/>
        <pt x="121" y="266" on="0"/>
        <pt x="121" y="360" on="1"/>
        <pt x="121" y="378" on="0"/>
        <pt x="133" y="487" on="0"/>
        <pt x="152" y="641" on="0"/>
        <pt x="177" y="826" on="0"/>
        <pt x="190" y="919" on="1"/>
        <pt x="221" y="1138" on="0"/>
        <pt x="260" y="1405" on="1"/>
      </contour>
    </TTGlyph>
    <TTGlyph name="Uacute" xMin="121" yMin="-25" xMax="1214" yMax="1808">
      <contour>
        <pt x="1049" y="1808" on="1"/>
        <pt x="1051" y="1802" on="1"/>
        <pt x="829" y="1538" on="1"/>
        <pt x="627" y="1538" on="1"/>
        <pt x="803" y="1808" on="1"/>
      </contour>
      <contour>
        <pt x="520" y="1405" on="1"/>
        <pt x="481" y="1141" on="0"/>
        <pt x="451" y="928" on="1"/>
        <pt x="438" y="837" on="0"/>
        <pt x="414" y="660" on="0"/>
        <pt x="395" y="516" on="0"/>
        <pt x="383" y="418" on="0"/>
        <pt x="383" y="408" on="1"/>
        <pt x="383" y="305" on="0"/>
        <pt x="484" y="201" on="0"/>
        <pt x="578" y="201" on="1"/>
        <pt x="680" y="201" on="0"/>
        <pt x="805" y="335" on="0"/>
        <pt x="823" y="465" on="1"/>
        <pt x="954" y="1405" on="1"/>
        <pt x="1214" y="1405" on="1"/>
        <pt x="1081" y="457" on="1"/>
        <pt x="1064" y="338" on="0"/>
        <pt x="980" y="158" on="0"/>
        <pt x="852" y="37" on="0"/>
        <pt x="681" y="-25" on="0"/>
        <pt x="578" y="-25" on="1"/>
        <pt x="469" y="-25" on="0"/>
        <pt x="299" y="25" on="0"/>
        <pt x="182" y="122" on="0"/>
        <pt x="121" y="266" on="0"/>
        <pt x="121" y="360" on="1"/>
        <pt x="121" y="378" on="0"/>
        <pt x="133" y="487" on="0"/>
        <pt x="152" y="641" on="0"/>
        <pt x="177" y="826" on="0"/>
        <pt x="190" y="919" on="1"/>
        <pt x="221" y="1138" on="0"/>
        <pt x="260" y="1405" on="1"/>
      </contour>
    </TTGlyph>
    <TTGlyph name="Ubreve" xMin="121" yMin="-25" xMax="1214" yMax="1808">
      <contour>
        <pt x="772" y="1589" on="1"/>
        <pt x="711" y="1589" on="0"/>
        <pt x="617" y="1624" on="0"/>
        <pt x="552" y="1679" on="0"/>
        <pt x="518" y="1750" on="0"/>
        <pt x="518" y="1786" on="1"/>
        <pt x="518" y="1792" on="0"/>
        <pt x="518" y="1802" on="0"/>
        <pt x="520" y="1808" on="1"/>
        <pt x="672" y="1808" on="1"/>
        <pt x="673" y="1797" on="0"/>
        <pt x="688" y="1774" on="0"/>
        <pt x="717" y="1754" on="0"/>
        <pt x="757" y="1741" on="0"/>
        <pt x="782" y="1741" on="1"/>
        <pt x="808" y="1741" on="0"/>
        <pt x="854" y="1754" on="0"/>
        <pt x="889" y="1774" on="0"/>
        <pt x="912" y="1797" on="0"/>
        <pt x="915" y="1808" on="1"/>
        <pt x="1067" y="1808" on="1"/>
        <pt x="1062" y="1770" on="0"/>
        <pt x="1014" y="1692" on="0"/>
        <pt x="937" y="1629" on="0"/>
        <pt x="833" y="1589" on="0"/>
      </contour>
      <contour>
        <pt x="520" y="1405" on="1"/>
        <pt x="481" y="1141" on="0"/>
        <pt x="451" y="928" on="1"/>
        <pt x="438" y="837" on="0"/>
        <pt x="414" y="660" on="0"/>
        <pt x="395" y="516" on="0"/>
        <pt x="383" y="418" on="0"/>
        <pt x="383" y="408" on="1"/>
        <pt x="383" y="305" on="0"/>
        <pt x="484" y="201" on="0"/>
        <pt x="578" y="201" on="1"/>
        <pt x="680" y="201" on="0"/>
        <pt x="805" y="335" on="0"/>
        <pt x="823" y="465" on="1"/>
        <pt x="954" y="1405" on="1"/>
        <pt x="1214" y="1405" on="1"/>
        <pt x="1081" y="457" on="1"/>
        <pt x="1064" y="338" on="0"/>
        <pt x="980" y="158" on="0"/>
        <pt x="852" y="37" on="0"/>
        <pt x="681" y="-25" on="0"/>
        <pt x="578" y="-25" on="1"/>
        <pt x="469" y="-25" on="0"/>
        <pt x="299" y="25" on="0"/>
        <pt x="182" y="122" on="0"/>
        <pt x="121" y="266" on="0"/>
        <pt x="121" y="360" on="1"/>
        <pt x="121" y="378" on="0"/>
        <pt x="133" y="487" on="0"/>
        <pt x="152" y="641" on="0"/>
        <pt x="177" y="826" on="0"/>
        <pt x="190" y="919" on="1"/>
        <pt x="221" y="1138" on="0"/>
        <pt x="260" y="1405" on="1"/>
      </contour>
    </TTGlyph>
    <TTGlyph name="Ucircumflex" xMin="121" yMin="-25" xMax="1214" yMax="1808">
      <contour>
        <pt x="893" y="1808" on="1"/>
        <pt x="1028" y="1532" on="1"/>
        <pt x="844" y="1532" on="1"/>
        <pt x="774" y="1673" on="1"/>
        <pt x="670" y="1532" on="1"/>
        <pt x="479" y="1532" on="1"/>
        <pt x="692" y="1808" on="1"/>
      </contour>
      <contour>
        <pt x="520" y="1405" on="1"/>
        <pt x="481" y="1141" on="0"/>
        <pt x="451" y="928" on="1"/>
        <pt x="438" y="837" on="0"/>
        <pt x="414" y="660" on="0"/>
        <pt x="395" y="516" on="0"/>
        <pt x="383" y="418" on="0"/>
        <pt x="383" y="408" on="1"/>
        <pt x="383" y="305" on="0"/>
        <pt x="484" y="201" on="0"/>
        <pt x="578" y="201" on="1"/>
        <pt x="680" y="201" on="0"/>
        <pt x="805" y="335" on="0"/>
        <pt x="823" y="465" on="1"/>
        <pt x="954" y="1405" on="1"/>
        <pt x="1214" y="1405" on="1"/>
        <pt x="1081" y="457" on="1"/>
        <pt x="1064" y="338" on="0"/>
        <pt x="980" y="158" on="0"/>
        <pt x="852" y="37" on="0"/>
        <pt x="681" y="-25" on="0"/>
        <pt x="578" y="-25" on="1"/>
        <pt x="469" y="-25" on="0"/>
        <pt x="299" y="25" on="0"/>
        <pt x="182" y="122" on="0"/>
        <pt x="121" y="266" on="0"/>
        <pt x="121" y="360" on="1"/>
        <pt x="121" y="378" on="0"/>
        <pt x="133" y="487" on="0"/>
        <pt x="152" y="641" on="0"/>
        <pt x="177" y="826" on="0"/>
        <pt x="190" y="919" on="1"/>
        <pt x="221" y="1138" on="0"/>
        <pt x="260" y="1405" on="1"/>
      </contour>
    </TTGlyph>
    <TTGlyph name="Udieresis" xMin="121" yMin="-25" xMax="1214" yMax="1808">
      <contour>
        <pt x="1075" y="1808" on="1"/>
        <pt x="1044" y="1585" on="1"/>
        <pt x="840" y="1585" on="1"/>
        <pt x="870" y="1808" on="1"/>
      </contour>
      <contour>
        <pt x="717" y="1808" on="1"/>
        <pt x="686" y="1585" on="1"/>
        <pt x="483" y="1585" on="1"/>
        <pt x="512" y="1808" on="1"/>
      </contour>
      <contour>
        <pt x="520" y="1405" on="1"/>
        <pt x="481" y="1141" on="0"/>
        <pt x="451" y="928" on="1"/>
        <pt x="438" y="837" on="0"/>
        <pt x="414" y="660" on="0"/>
        <pt x="395" y="516" on="0"/>
        <pt x="383" y="418" on="0"/>
        <pt x="383" y="408" on="1"/>
        <pt x="383" y="305" on="0"/>
        <pt x="484" y="201" on="0"/>
        <pt x="578" y="201" on="1"/>
        <pt x="680" y="201" on="0"/>
        <pt x="805" y="335" on="0"/>
        <pt x="823" y="465" on="1"/>
        <pt x="954" y="1405" on="1"/>
        <pt x="1214" y="1405" on="1"/>
        <pt x="1081" y="457" on="1"/>
        <pt x="1064" y="338" on="0"/>
        <pt x="980" y="158" on="0"/>
        <pt x="852" y="37" on="0"/>
        <pt x="681" y="-25" on="0"/>
        <pt x="578" y="-25" on="1"/>
        <pt x="469" y="-25" on="0"/>
        <pt x="299" y="25" on="0"/>
        <pt x="182" y="122" on="0"/>
        <pt x="121" y="266" on="0"/>
        <pt x="121" y="360" on="1"/>
        <pt x="121" y="378" on="0"/>
        <pt x="133" y="487" on="0"/>
        <pt x="152" y="641" on="0"/>
        <pt x="177" y="826" on="0"/>
        <pt x="190" y="919" on="1"/>
        <pt x="221" y="1138" on="0"/>
        <pt x="260" y="1405" on="1"/>
      </contour>
    </TTGlyph>
    <TTGlyph name="Ugrave" xMin="121" yMin="-25" xMax="1214" yMax="1808">
      <contour>
        <pt x="512" y="1808" on="1"/>
        <pt x="758" y="1808" on="1"/>
        <pt x="895" y="1538" on="1"/>
        <pt x="692" y="1538" on="1"/>
        <pt x="508" y="1802" on="1"/>
      </contour>
      <contour>
        <pt x="520" y="1405" on="1"/>
        <pt x="481" y="1141" on="0"/>
        <pt x="451" y="928" on="1"/>
        <pt x="438" y="837" on="0"/>
        <pt x="414" y="660" on="0"/>
        <pt x="395" y="516" on="0"/>
        <pt x="383" y="418" on="0"/>
        <pt x="383" y="408" on="1"/>
        <pt x="383" y="305" on="0"/>
        <pt x="484" y="201" on="0"/>
        <pt x="578" y="201" on="1"/>
        <pt x="680" y="201" on="0"/>
        <pt x="805" y="335" on="0"/>
        <pt x="823" y="465" on="1"/>
        <pt x="954" y="1405" on="1"/>
        <pt x="1214" y="1405" on="1"/>
        <pt x="1081" y="457" on="1"/>
        <pt x="1064" y="338" on="0"/>
        <pt x="980" y="158" on="0"/>
        <pt x="852" y="37" on="0"/>
        <pt x="681" y="-25" on="0"/>
        <pt x="578" y="-25" on="1"/>
        <pt x="469" y="-25" on="0"/>
        <pt x="299" y="25" on="0"/>
        <pt x="182" y="122" on="0"/>
        <pt x="121" y="266" on="0"/>
        <pt x="121" y="360" on="1"/>
        <pt x="121" y="378" on="0"/>
        <pt x="133" y="487" on="0"/>
        <pt x="152" y="641" on="0"/>
        <pt x="177" y="826" on="0"/>
        <pt x="190" y="919" on="1"/>
        <pt x="221" y="1138" on="0"/>
        <pt x="260" y="1405" on="1"/>
      </contour>
    </TTGlyph>
    <TTGlyph name="Uhungarumlaut" xMin="121" yMin="-25" xMax="1214" yMax="1808">
      <contour>
        <pt x="1126" y="1808" on="1"/>
        <pt x="1128" y="1802" on="1"/>
        <pt x="956" y="1538" on="1"/>
        <pt x="795" y="1538" on="1"/>
        <pt x="922" y="1808" on="1"/>
      </contour>
      <contour>
        <pt x="840" y="1808" on="1"/>
        <pt x="842" y="1802" on="1"/>
        <pt x="670" y="1538" on="1"/>
        <pt x="508" y="1538" on="1"/>
        <pt x="635" y="1808" on="1"/>
      </contour>
      <contour>
        <pt x="520" y="1405" on="1"/>
        <pt x="481" y="1141" on="0"/>
        <pt x="451" y="928" on="1"/>
        <pt x="438" y="837" on="0"/>
        <pt x="414" y="660" on="0"/>
        <pt x="395" y="516" on="0"/>
        <pt x="383" y="418" on="0"/>
        <pt x="383" y="408" on="1"/>
        <pt x="383" y="305" on="0"/>
        <pt x="484" y="201" on="0"/>
        <pt x="578" y="201" on="1"/>
        <pt x="680" y="201" on="0"/>
        <pt x="805" y="335" on="0"/>
        <pt x="823" y="465" on="1"/>
        <pt x="954" y="1405" on="1"/>
        <pt x="1214" y="1405" on="1"/>
        <pt x="1081" y="457" on="1"/>
        <pt x="1064" y="338" on="0"/>
        <pt x="980" y="158" on="0"/>
        <pt x="852" y="37" on="0"/>
        <pt x="681" y="-25" on="0"/>
        <pt x="578" y="-25" on="1"/>
        <pt x="469" y="-25" on="0"/>
        <pt x="299" y="25" on="0"/>
        <pt x="182" y="122" on="0"/>
        <pt x="121" y="266" on="0"/>
        <pt x="121" y="360" on="1"/>
        <pt x="121" y="378" on="0"/>
        <pt x="133" y="487" on="0"/>
        <pt x="152" y="641" on="0"/>
        <pt x="177" y="826" on="0"/>
        <pt x="190" y="919" on="1"/>
        <pt x="221" y="1138" on="0"/>
        <pt x="260" y="1405" on="1"/>
      </contour>
    </TTGlyph>
    <TTGlyph name="Umacron" xMin="121" yMin="-25" xMax="1214" yMax="1733">
      <contour>
        <pt x="1040" y="1733" on="1"/>
        <pt x="1014" y="1554" on="1"/>
        <pt x="492" y="1554" on="1"/>
        <pt x="518" y="1733" on="1"/>
      </contour>
      <contour>
        <pt x="520" y="1405" on="1"/>
        <pt x="481" y="1141" on="0"/>
        <pt x="451" y="928" on="1"/>
        <pt x="438" y="837" on="0"/>
        <pt x="414" y="660" on="0"/>
        <pt x="395" y="516" on="0"/>
        <pt x="383" y="418" on="0"/>
        <pt x="383" y="408" on="1"/>
        <pt x="383" y="305" on="0"/>
        <pt x="484" y="201" on="0"/>
        <pt x="578" y="201" on="1"/>
        <pt x="680" y="201" on="0"/>
        <pt x="805" y="335" on="0"/>
        <pt x="823" y="465" on="1"/>
        <pt x="954" y="1405" on="1"/>
        <pt x="1214" y="1405" on="1"/>
        <pt x="1081" y="457" on="1"/>
        <pt x="1064" y="338" on="0"/>
        <pt x="980" y="158" on="0"/>
        <pt x="852" y="37" on="0"/>
        <pt x="681" y="-25" on="0"/>
        <pt x="578" y="-25" on="1"/>
        <pt x="469" y="-25" on="0"/>
        <pt x="299" y="25" on="0"/>
        <pt x="182" y="122" on="0"/>
        <pt x="121" y="266" on="0"/>
        <pt x="121" y="360" on="1"/>
        <pt x="121" y="378" on="0"/>
        <pt x="133" y="487" on="0"/>
        <pt x="152" y="641" on="0"/>
        <pt x="177" y="826" on="0"/>
        <pt x="190" y="919" on="1"/>
        <pt x="221" y="1138" on="0"/>
        <pt x="260" y="1405" on="1"/>
      </contour>
    </TTGlyph>
    <TTGlyph name="Uogonek" xMin="121" yMin="-379" xMax="1214" yMax="1405">
      <contour>
        <pt x="485" y="-221" on="1"/>
        <pt x="485" y="-155" on="0"/>
        <pt x="533" y="-62" on="0"/>
        <pt x="567" y="-25" on="1"/>
        <pt x="460" y="-25" on="0"/>
        <pt x="294" y="25" on="0"/>
        <pt x="180" y="122" on="0"/>
        <pt x="121" y="266" on="0"/>
        <pt x="121" y="360" on="1"/>
        <pt x="121" y="378" on="0"/>
        <pt x="133" y="487" on="0"/>
        <pt x="152" y="641" on="0"/>
        <pt x="177" y="826" on="0"/>
        <pt x="190" y="919" on="1"/>
        <pt x="221" y="1138" on="0"/>
        <pt x="260" y="1405" on="1"/>
        <pt x="520" y="1405" on="1"/>
        <pt x="481" y="1141" on="0"/>
        <pt x="451" y="928" on="1"/>
        <pt x="438" y="837" on="0"/>
        <pt x="414" y="660" on="0"/>
        <pt x="395" y="516" on="0"/>
        <pt x="383" y="418" on="0"/>
        <pt x="383" y="408" on="1"/>
        <pt x="383" y="305" on="0"/>
        <pt x="484" y="201" on="0"/>
        <pt x="578" y="201" on="1"/>
        <pt x="680" y="201" on="0"/>
        <pt x="805" y="335" on="0"/>
        <pt x="823" y="465" on="1"/>
        <pt x="954" y="1405" on="1"/>
        <pt x="1214" y="1405" on="1"/>
        <pt x="1081" y="457" on="1"/>
        <pt x="1057" y="282" on="0"/>
        <pt x="903" y="58" on="0"/>
        <pt x="778" y="10" on="1"/>
        <pt x="766" y="-2" on="0"/>
        <pt x="736" y="-39" on="0"/>
        <pt x="711" y="-82" on="0"/>
        <pt x="694" y="-131" on="0"/>
        <pt x="694" y="-156" on="1"/>
        <pt x="694" y="-190" on="0"/>
        <pt x="731" y="-238" on="0"/>
        <pt x="774" y="-238" on="1"/>
        <pt x="819" y="-238" on="1"/>
        <pt x="803" y="-350" on="1"/>
        <pt x="766" y="-364" on="0"/>
        <pt x="698" y="-379" on="0"/>
        <pt x="664" y="-379" on="1"/>
        <pt x="632" y="-379" on="0"/>
        <pt x="568" y="-364" on="0"/>
        <pt x="517" y="-327" on="0"/>
        <pt x="485" y="-266" on="0"/>
      </contour>
    </TTGlyph>
    <TTGlyph name="Uring" xMin="121" yMin="-25" xMax="1214" yMax="1870">
      <contour>
        <pt x="774" y="1477" on="1"/>
        <pt x="734" y="1477" on="0"/>
        <pt x="663" y="1507" on="0"/>
        <pt x="609" y="1560" on="0"/>
        <pt x="578" y="1632" on="0"/>
        <pt x="578" y="1673" on="1"/>
        <pt x="578" y="1714" on="0"/>
        <pt x="609" y="1786" on="0"/>
        <pt x="662" y="1839" on="0"/>
        <pt x="733" y="1870" on="0"/>
        <pt x="774" y="1870" on="1"/>
        <pt x="816" y="1870" on="0"/>
        <pt x="888" y="1839" on="0"/>
        <pt x="941" y="1785" on="0"/>
        <pt x="971" y="1713" on="0"/>
        <pt x="971" y="1673" on="1"/>
        <pt x="971" y="1632" on="0"/>
        <pt x="940" y="1561" on="0"/>
        <pt x="887" y="1508" on="0"/>
        <pt x="815" y="1477" on="0"/>
      </contour>
      <contour>
        <pt x="774" y="1579" on="1"/>
        <pt x="793" y="1579" on="0"/>
        <pt x="827" y="1593" on="0"/>
        <pt x="853" y="1619" on="0"/>
        <pt x="868" y="1653" on="0"/>
        <pt x="868" y="1673" on="1"/>
        <pt x="868" y="1693" on="0"/>
        <pt x="853" y="1727" on="0"/>
        <pt x="827" y="1753" on="0"/>
        <pt x="793" y="1767" on="0"/>
        <pt x="774" y="1767" on="1"/>
        <pt x="734" y="1767" on="0"/>
        <pt x="680" y="1713" on="0"/>
        <pt x="680" y="1673" on="1"/>
        <pt x="680" y="1633" on="0"/>
        <pt x="734" y="1579" on="0"/>
      </contour>
      <contour>
        <pt x="520" y="1405" on="1"/>
        <pt x="481" y="1141" on="0"/>
        <pt x="451" y="928" on="1"/>
        <pt x="438" y="837" on="0"/>
        <pt x="414" y="660" on="0"/>
        <pt x="395" y="516" on="0"/>
        <pt x="383" y="418" on="0"/>
        <pt x="383" y="408" on="1"/>
        <pt x="383" y="305" on="0"/>
        <pt x="484" y="201" on="0"/>
        <pt x="578" y="201" on="1"/>
        <pt x="680" y="201" on="0"/>
        <pt x="805" y="335" on="0"/>
        <pt x="823" y="465" on="1"/>
        <pt x="954" y="1405" on="1"/>
        <pt x="1214" y="1405" on="1"/>
        <pt x="1081" y="457" on="1"/>
        <pt x="1064" y="338" on="0"/>
        <pt x="980" y="158" on="0"/>
        <pt x="852" y="37" on="0"/>
        <pt x="681" y="-25" on="0"/>
        <pt x="578" y="-25" on="1"/>
        <pt x="469" y="-25" on="0"/>
        <pt x="299" y="25" on="0"/>
        <pt x="182" y="122" on="0"/>
        <pt x="121" y="266" on="0"/>
        <pt x="121" y="360" on="1"/>
        <pt x="121" y="378" on="0"/>
        <pt x="133" y="487" on="0"/>
        <pt x="152" y="641" on="0"/>
        <pt x="177" y="826" on="0"/>
        <pt x="190" y="919" on="1"/>
        <pt x="221" y="1138" on="0"/>
        <pt x="260" y="1405" on="1"/>
      </contour>
    </TTGlyph>
    <TTGlyph name="Utilde" xMin="121" yMin="-25" xMax="1214" yMax="1808">
      <contour>
        <pt x="426" y="1559" on="1"/>
        <pt x="426" y="1599" on="0"/>
        <pt x="458" y="1687" on="0"/>
        <pt x="518" y="1761" on="0"/>
        <pt x="603" y="1808" on="0"/>
        <pt x="657" y="1808" on="1"/>
        <pt x="694" y="1808" on="0"/>
        <pt x="759" y="1785" on="0"/>
        <pt x="820" y="1756" on="0"/>
        <pt x="881" y="1733" on="0"/>
        <pt x="915" y="1733" on="1"/>
        <pt x="947" y="1733" on="0"/>
        <pt x="993" y="1765" on="0"/>
        <pt x="1006" y="1808" on="1"/>
        <pt x="1139" y="1808" on="1"/>
        <pt x="1139" y="1766" on="0"/>
        <pt x="1106" y="1678" on="0"/>
        <pt x="1045" y="1605" on="0"/>
        <pt x="958" y="1559" on="0"/>
        <pt x="903" y="1559" on="1"/>
        <pt x="867" y="1559" on="0"/>
        <pt x="803" y="1582" on="0"/>
        <pt x="742" y="1611" on="0"/>
        <pt x="681" y="1634" on="0"/>
        <pt x="647" y="1634" on="1"/>
        <pt x="615" y="1634" on="0"/>
        <pt x="569" y="1601" on="0"/>
        <pt x="557" y="1559" on="1"/>
      </contour>
      <contour>
        <pt x="520" y="1405" on="1"/>
        <pt x="481" y="1141" on="0"/>
        <pt x="451" y="928" on="1"/>
        <pt x="438" y="837" on="0"/>
        <pt x="414" y="660" on="0"/>
        <pt x="395" y="516" on="0"/>
        <pt x="383" y="418" on="0"/>
        <pt x="383" y="408" on="1"/>
        <pt x="383" y="305" on="0"/>
        <pt x="484" y="201" on="0"/>
        <pt x="578" y="201" on="1"/>
        <pt x="680" y="201" on="0"/>
        <pt x="805" y="335" on="0"/>
        <pt x="823" y="465" on="1"/>
        <pt x="954" y="1405" on="1"/>
        <pt x="1214" y="1405" on="1"/>
        <pt x="1081" y="457" on="1"/>
        <pt x="1064" y="338" on="0"/>
        <pt x="980" y="158" on="0"/>
        <pt x="852" y="37" on="0"/>
        <pt x="681" y="-25" on="0"/>
        <pt x="578" y="-25" on="1"/>
        <pt x="469" y="-25" on="0"/>
        <pt x="299" y="25" on="0"/>
        <pt x="182" y="122" on="0"/>
        <pt x="121" y="266" on="0"/>
        <pt x="121" y="360" on="1"/>
        <pt x="121" y="378" on="0"/>
        <pt x="133" y="487" on="0"/>
        <pt x="152" y="641" on="0"/>
        <pt x="177" y="826" on="0"/>
        <pt x="190" y="919" on="1"/>
        <pt x="221" y="1138" on="0"/>
        <pt x="260" y="1405" on="1"/>
      </contour>
    </TTGlyph>
    <TTGlyph name="V" xMin="137" yMin="0" xMax="1245" yMax="1405">
      <contour>
        <pt x="403" y="1405" on="1"/>
        <pt x="549" y="406" on="1"/>
        <pt x="557" y="406" on="1"/>
        <pt x="983" y="1405" on="1"/>
        <pt x="1245" y="1405" on="1"/>
        <pt x="625" y="0" on="1"/>
        <pt x="365" y="0" on="1"/>
        <pt x="137" y="1405" on="1"/>
      </contour>
    </TTGlyph>
    <TTGlyph name="W" xMin="137" yMin="0" xMax="1704" yMax="1405">
      <contour>
        <pt x="395" y="1405" on="1"/>
        <pt x="438" y="344" on="1"/>
        <pt x="446" y="344" on="1"/>
        <pt x="455" y="383" on="0"/>
        <pt x="465" y="420" on="1"/>
        <pt x="473" y="452" on="0"/>
        <pt x="492" y="518" on="0"/>
        <pt x="500" y="541" on="1"/>
        <pt x="786" y="1405" on="1"/>
        <pt x="1083" y="1405" on="1"/>
        <pt x="1128" y="344" on="1"/>
        <pt x="1137" y="344" on="1"/>
        <pt x="1155" y="416" on="1"/>
        <pt x="1163" y="446" on="0"/>
        <pt x="1181" y="515" on="0"/>
        <pt x="1190" y="541" on="1"/>
        <pt x="1475" y="1405" on="1"/>
        <pt x="1704" y="1405" on="1"/>
        <pt x="1221" y="0" on="1"/>
        <pt x="944" y="0" on="1"/>
        <pt x="881" y="895" on="1"/>
        <pt x="879" y="914" on="0"/>
        <pt x="879" y="935" on="1"/>
        <pt x="879" y="1022" on="1"/>
        <pt x="879" y="1043" on="0"/>
        <pt x="880" y="1059" on="1"/>
        <pt x="880" y="1077" on="0"/>
        <pt x="881" y="1094" on="1"/>
        <pt x="870" y="1094" on="1"/>
        <pt x="861" y="1054" on="0"/>
        <pt x="851" y="1017" on="1"/>
        <pt x="843" y="985" on="0"/>
        <pt x="825" y="917" on="0"/>
        <pt x="817" y="895" on="1"/>
        <pt x="518" y="0" on="1"/>
        <pt x="242" y="0" on="1"/>
        <pt x="137" y="1405" on="1"/>
      </contour>
    </TTGlyph>
    <TTGlyph name="Wacute" xMin="137" yMin="0" xMax="1704" yMax="1809">
      <contour>
        <pt x="395" y="1405" on="1"/>
        <pt x="438" y="344" on="1"/>
        <pt x="446" y="344" on="1"/>
        <pt x="455" y="383" on="0"/>
        <pt x="465" y="420" on="1"/>
        <pt x="473" y="452" on="0"/>
        <pt x="492" y="518" on="0"/>
        <pt x="500" y="541" on="1"/>
        <pt x="786" y="1405" on="1"/>
        <pt x="1083" y="1405" on="1"/>
        <pt x="1128" y="344" on="1"/>
        <pt x="1137" y="344" on="1"/>
        <pt x="1155" y="416" on="1"/>
        <pt x="1163" y="446" on="0"/>
        <pt x="1181" y="515" on="0"/>
        <pt x="1190" y="541" on="1"/>
        <pt x="1475" y="1405" on="1"/>
        <pt x="1704" y="1405" on="1"/>
        <pt x="1221" y="0" on="1"/>
        <pt x="944" y="0" on="1"/>
        <pt x="881" y="895" on="1"/>
        <pt x="879" y="914" on="0"/>
        <pt x="879" y="935" on="1"/>
        <pt x="879" y="1022" on="1"/>
        <pt x="879" y="1043" on="0"/>
        <pt x="880" y="1059" on="1"/>
        <pt x="880" y="1077" on="0"/>
        <pt x="881" y="1094" on="1"/>
        <pt x="870" y="1094" on="1"/>
        <pt x="861" y="1054" on="0"/>
        <pt x="851" y="1017" on="1"/>
        <pt x="843" y="985" on="0"/>
        <pt x="825" y="917" on="0"/>
        <pt x="817" y="895" on="1"/>
        <pt x="518" y="0" on="1"/>
        <pt x="242" y="0" on="1"/>
        <pt x="137" y="1405" on="1"/>
      </contour>
      <contour>
        <pt x="1240" y="1809" on="1"/>
        <pt x="1242" y="1803" on="1"/>
        <pt x="1020" y="1538" on="1"/>
        <pt x="818" y="1538" on="1"/>
        <pt x="994" y="1809" on="1"/>
      </contour>
    </TTGlyph>
    <TTGlyph name="Wcircumflex" xMin="137" yMin="0" xMax="1704" yMax="1809">
      <contour>
        <pt x="395" y="1405" on="1"/>
        <pt x="438" y="344" on="1"/>
        <pt x="446" y="344" on="1"/>
        <pt x="455" y="383" on="0"/>
        <pt x="465" y="420" on="1"/>
        <pt x="473" y="452" on="0"/>
        <pt x="492" y="518" on="0"/>
        <pt x="500" y="541" on="1"/>
        <pt x="786" y="1405" on="1"/>
        <pt x="1083" y="1405" on="1"/>
        <pt x="1128" y="344" on="1"/>
        <pt x="1137" y="344" on="1"/>
        <pt x="1155" y="416" on="1"/>
        <pt x="1163" y="446" on="0"/>
        <pt x="1181" y="515" on="0"/>
        <pt x="1190" y="541" on="1"/>
        <pt x="1475" y="1405" on="1"/>
        <pt x="1704" y="1405" on="1"/>
        <pt x="1221" y="0" on="1"/>
        <pt x="944" y="0" on="1"/>
        <pt x="881" y="895" on="1"/>
        <pt x="879" y="914" on="0"/>
        <pt x="879" y="935" on="1"/>
        <pt x="879" y="1022" on="1"/>
        <pt x="879" y="1043" on="0"/>
        <pt x="880" y="1059" on="1"/>
        <pt x="880" y="1077" on="0"/>
        <pt x="881" y="1094" on="1"/>
        <pt x="870" y="1094" on="1"/>
        <pt x="861" y="1054" on="0"/>
        <pt x="851" y="1017" on="1"/>
        <pt x="843" y="985" on="0"/>
        <pt x="825" y="917" on="0"/>
        <pt x="817" y="895" on="1"/>
        <pt x="518" y="0" on="1"/>
        <pt x="242" y="0" on="1"/>
        <pt x="137" y="1405" on="1"/>
      </contour>
      <contour>
        <pt x="1084" y="1809" on="1"/>
        <pt x="1219" y="1532" on="1"/>
        <pt x="1035" y="1532" on="1"/>
        <pt x="965" y="1674" on="1"/>
        <pt x="861" y="1532" on="1"/>
        <pt x="670" y="1532" on="1"/>
        <pt x="883" y="1809" on="1"/>
      </contour>
    </TTGlyph>
    <TTGlyph name="Wdieresis" xMin="137" yMin="0" xMax="1704" yMax="1809">
      <contour>
        <pt x="395" y="1405" on="1"/>
        <pt x="438" y="344" on="1"/>
        <pt x="446" y="344" on="1"/>
        <pt x="455" y="383" on="0"/>
        <pt x="465" y="420" on="1"/>
        <pt x="473" y="452" on="0"/>
        <pt x="492" y="518" on="0"/>
        <pt x="500" y="541" on="1"/>
        <pt x="786" y="1405" on="1"/>
        <pt x="1083" y="1405" on="1"/>
        <pt x="1128" y="344" on="1"/>
        <pt x="1137" y="344" on="1"/>
        <pt x="1155" y="416" on="1"/>
        <pt x="1163" y="446" on="0"/>
        <pt x="1181" y="515" on="0"/>
        <pt x="1190" y="541" on="1"/>
        <pt x="1475" y="1405" on="1"/>
        <pt x="1704" y="1405" on="1"/>
        <pt x="1221" y="0" on="1"/>
        <pt x="944" y="0" on="1"/>
        <pt x="881" y="895" on="1"/>
        <pt x="879" y="914" on="0"/>
        <pt x="879" y="935" on="1"/>
        <pt x="879" y="1022" on="1"/>
        <pt x="879" y="1043" on="0"/>
        <pt x="880" y="1059" on="1"/>
        <pt x="880" y="1077" on="0"/>
        <pt x="881" y="1094" on="1"/>
        <pt x="870" y="1094" on="1"/>
        <pt x="861" y="1054" on="0"/>
        <pt x="851" y="1017" on="1"/>
        <pt x="843" y="985" on="0"/>
        <pt x="825" y="917" on="0"/>
        <pt x="817" y="895" on="1"/>
        <pt x="518" y="0" on="1"/>
        <pt x="242" y="0" on="1"/>
        <pt x="137" y="1405" on="1"/>
      </contour>
      <contour>
        <pt x="1266" y="1809" on="1"/>
        <pt x="1236" y="1585" on="1"/>
        <pt x="1031" y="1585" on="1"/>
        <pt x="1061" y="1809" on="1"/>
      </contour>
      <contour>
        <pt x="908" y="1809" on="1"/>
        <pt x="877" y="1585" on="1"/>
        <pt x="674" y="1585" on="1"/>
        <pt x="703" y="1809" on="1"/>
      </contour>
    </TTGlyph>
    <TTGlyph name="Wgrave" xMin="137" yMin="0" xMax="1704" yMax="1809">
      <contour>
        <pt x="395" y="1405" on="1"/>
        <pt x="438" y="344" on="1"/>
        <pt x="446" y="344" on="1"/>
        <pt x="455" y="383" on="0"/>
        <pt x="465" y="420" on="1"/>
        <pt x="473" y="452" on="0"/>
        <pt x="492" y="518" on="0"/>
        <pt x="500" y="541" on="1"/>
        <pt x="786" y="1405" on="1"/>
        <pt x="1083" y="1405" on="1"/>
        <pt x="1128" y="344" on="1"/>
        <pt x="1137" y="344" on="1"/>
        <pt x="1155" y="416" on="1"/>
        <pt x="1163" y="446" on="0"/>
        <pt x="1181" y="515" on="0"/>
        <pt x="1190" y="541" on="1"/>
        <pt x="1475" y="1405" on="1"/>
        <pt x="1704" y="1405" on="1"/>
        <pt x="1221" y="0" on="1"/>
        <pt x="944" y="0" on="1"/>
        <pt x="881" y="895" on="1"/>
        <pt x="879" y="914" on="0"/>
        <pt x="879" y="935" on="1"/>
        <pt x="879" y="1022" on="1"/>
        <pt x="879" y="1043" on="0"/>
        <pt x="880" y="1059" on="1"/>
        <pt x="880" y="1077" on="0"/>
        <pt x="881" y="1094" on="1"/>
        <pt x="870" y="1094" on="1"/>
        <pt x="861" y="1054" on="0"/>
        <pt x="851" y="1017" on="1"/>
        <pt x="843" y="985" on="0"/>
        <pt x="825" y="917" on="0"/>
        <pt x="817" y="895" on="1"/>
        <pt x="518" y="0" on="1"/>
        <pt x="242" y="0" on="1"/>
        <pt x="137" y="1405" on="1"/>
      </contour>
      <contour>
        <pt x="704" y="1809" on="1"/>
        <pt x="950" y="1809" on="1"/>
        <pt x="1087" y="1538" on="1"/>
        <pt x="884" y="1538" on="1"/>
        <pt x="700" y="1803" on="1"/>
      </contour>
    </TTGlyph>
    <TTGlyph name="X" xMin="-59" yMin="0" xMax="1206" yMax="1405">
      <contour>
        <pt x="172" y="1405" on="1"/>
        <pt x="459" y="1405" on="1"/>
        <pt x="627" y="977" on="1"/>
        <pt x="635" y="977" on="1"/>
        <pt x="915" y="1405" on="1"/>
        <pt x="1206" y="1405" on="1"/>
        <pt x="737" y="733" on="1"/>
        <pt x="1047" y="0" on="1"/>
        <pt x="756" y="0" on="1"/>
        <pt x="561" y="487" on="1"/>
        <pt x="553" y="487" on="1"/>
        <pt x="225" y="0" on="1"/>
        <pt x="-59" y="0" on="1"/>
        <pt x="451" y="733" on="1"/>
      </contour>
    </TTGlyph>
    <TTGlyph name="Y" xMin="137" yMin="0" xMax="1245" yMax="1405">
      <contour>
        <pt x="137" y="1405" on="1"/>
        <pt x="403" y="1405" on="1"/>
        <pt x="606" y="788" on="1"/>
        <pt x="614" y="788" on="1"/>
        <pt x="981" y="1405" on="1"/>
        <pt x="1245" y="1405" on="1"/>
        <pt x="700" y="530" on="1"/>
        <pt x="625" y="0" on="1"/>
        <pt x="367" y="0" on="1"/>
        <pt x="440" y="530" on="1"/>
      </contour>
    </TTGlyph>
    <TTGlyph name="Yacute" xMin="137" yMin="0" xMax="1245" yMax="1809">
      <contour>
        <pt x="137" y="1405" on="1"/>
        <pt x="403" y="1405" on="1"/>
        <pt x="606" y="788" on="1"/>
        <pt x="614" y="788" on="1"/>
        <pt x="981" y="1405" on="1"/>
        <pt x="1245" y="1405" on="1"/>
        <pt x="700" y="530" on="1"/>
        <pt x="625" y="0" on="1"/>
        <pt x="367" y="0" on="1"/>
        <pt x="440" y="530" on="1"/>
      </contour>
      <contour>
        <pt x="1009" y="1809" on="1"/>
        <pt x="1011" y="1803" on="1"/>
        <pt x="789" y="1538" on="1"/>
        <pt x="587" y="1538" on="1"/>
        <pt x="763" y="1809" on="1"/>
      </contour>
    </TTGlyph>
    <TTGlyph name="Ycircumflex" xMin="137" yMin="0" xMax="1245" yMax="1809">
      <contour>
        <pt x="137" y="1405" on="1"/>
        <pt x="403" y="1405" on="1"/>
        <pt x="606" y="788" on="1"/>
        <pt x="614" y="788" on="1"/>
        <pt x="981" y="1405" on="1"/>
        <pt x="1245" y="1405" on="1"/>
        <pt x="700" y="530" on="1"/>
        <pt x="625" y="0" on="1"/>
        <pt x="367" y="0" on="1"/>
        <pt x="440" y="530" on="1"/>
      </contour>
      <contour>
        <pt x="853" y="1809" on="1"/>
        <pt x="988" y="1532" on="1"/>
        <pt x="804" y="1532" on="1"/>
        <pt x="734" y="1674" on="1"/>
        <pt x="630" y="1532" on="1"/>
        <pt x="439" y="1532" on="1"/>
        <pt x="652" y="1809" on="1"/>
      </contour>
    </TTGlyph>
    <TTGlyph name="Ydieresis" xMin="137" yMin="0" xMax="1245" yMax="1809">
      <contour>
        <pt x="137" y="1405" on="1"/>
        <pt x="403" y="1405" on="1"/>
        <pt x="606" y="788" on="1"/>
        <pt x="614" y="788" on="1"/>
        <pt x="981" y="1405" on="1"/>
        <pt x="1245" y="1405" on="1"/>
        <pt x="700" y="530" on="1"/>
        <pt x="625" y="0" on="1"/>
        <pt x="367" y="0" on="1"/>
        <pt x="440" y="530" on="1"/>
      </contour>
      <contour>
        <pt x="1035" y="1809" on="1"/>
        <pt x="1005" y="1585" on="1"/>
        <pt x="800" y="1585" on="1"/>
        <pt x="830" y="1809" on="1"/>
      </contour>
      <contour>
        <pt x="677" y="1809" on="1"/>
        <pt x="646" y="1585" on="1"/>
        <pt x="443" y="1585" on="1"/>
        <pt x="472" y="1809" on="1"/>
      </contour>
    </TTGlyph>
    <TTGlyph name="Ygrave" xMin="137" yMin="0" xMax="1245" yMax="1809">
      <contour>
        <pt x="137" y="1405" on="1"/>
        <pt x="403" y="1405" on="1"/>
        <pt x="606" y="788" on="1"/>
        <pt x="614" y="788" on="1"/>
        <pt x="981" y="1405" on="1"/>
        <pt x="1245" y="1405" on="1"/>
        <pt x="700" y="530" on="1"/>
        <pt x="625" y="0" on="1"/>
        <pt x="367" y="0" on="1"/>
        <pt x="440" y="530" on="1"/>
      </contour>
      <contour>
        <pt x="473" y="1809" on="1"/>
        <pt x="719" y="1809" on="1"/>
        <pt x="856" y="1538" on="1"/>
        <pt x="653" y="1538" on="1"/>
        <pt x="469" y="1803" on="1"/>
      </contour>
    </TTGlyph>
    <TTGlyph name="Z" xMin="-25" yMin="0" xMax="1083" yMax="1405">
      <contour>
        <pt x="686" y="1171" on="1"/>
        <pt x="174" y="1171" on="1"/>
        <pt x="207" y="1405" on="1"/>
        <pt x="1083" y="1405" on="1"/>
        <pt x="1075" y="1303" on="1"/>
        <pt x="371" y="233" on="1"/>
        <pt x="940" y="233" on="1"/>
        <pt x="907" y="0" on="1"/>
        <pt x="-25" y="0" on="1"/>
        <pt x="-16" y="100" on="1"/>
      </contour>
    </TTGlyph>
    <TTGlyph name="Zacute" xMin="-25" yMin="0" xMax="1083" yMax="1809">
      <contour>
        <pt x="686" y="1171" on="1"/>
        <pt x="174" y="1171" on="1"/>
        <pt x="207" y="1405" on="1"/>
        <pt x="1083" y="1405" on="1"/>
        <pt x="1075" y="1303" on="1"/>
        <pt x="371" y="233" on="1"/>
        <pt x="940" y="233" on="1"/>
        <pt x="907" y="0" on="1"/>
        <pt x="-25" y="0" on="1"/>
        <pt x="-16" y="100" on="1"/>
      </contour>
      <contour>
        <pt x="949" y="1809" on="1"/>
        <pt x="951" y="1803" on="1"/>
        <pt x="729" y="1538" on="1"/>
        <pt x="527" y="1538" on="1"/>
        <pt x="703" y="1809" on="1"/>
      </contour>
    </TTGlyph>
    <TTGlyph name="Zcaron" xMin="-25" yMin="0" xMax="1083" yMax="1809">
      <contour>
        <pt x="686" y="1171" on="1"/>
        <pt x="174" y="1171" on="1"/>
        <pt x="207" y="1405" on="1"/>
        <pt x="1083" y="1405" on="1"/>
        <pt x="1075" y="1303" on="1"/>
        <pt x="371" y="233" on="1"/>
        <pt x="940" y="233" on="1"/>
        <pt x="907" y="0" on="1"/>
        <pt x="-25" y="0" on="1"/>
        <pt x="-16" y="100" on="1"/>
      </contour>
      <contour>
        <pt x="600" y="1809" on="1"/>
        <pt x="671" y="1667" on="1"/>
        <pt x="774" y="1809" on="1"/>
        <pt x="966" y="1809" on="1"/>
        <pt x="753" y="1532" on="1"/>
        <pt x="553" y="1532" on="1"/>
        <pt x="415" y="1809" on="1"/>
      </contour>
    </TTGlyph>
    <TTGlyph name="Zdotaccent" xMin="-25" yMin="0" xMax="1083" yMax="1809">
      <contour>
        <pt x="686" y="1171" on="1"/>
        <pt x="174" y="1171" on="1"/>
        <pt x="207" y="1405" on="1"/>
        <pt x="1083" y="1405" on="1"/>
        <pt x="1075" y="1303" on="1"/>
        <pt x="371" y="233" on="1"/>
        <pt x="940" y="233" on="1"/>
        <pt x="907" y="0" on="1"/>
        <pt x="-25" y="0" on="1"/>
        <pt x="-16" y="100" on="1"/>
      </contour>
      <contour>
        <pt x="804" y="1809" on="1"/>
        <pt x="769" y="1573" on="1"/>
        <pt x="550" y="1573" on="1"/>
        <pt x="584" y="1809" on="1"/>
      </contour>
    </TTGlyph>
    <TTGlyph name="a" xMin="45" yMin="-25" xMax="909" yMax="1102">
      <contour>
        <pt x="453" y="1102" on="1"/>
        <pt x="538" y="1102" on="0"/>
        <pt x="649" y="1020" on="0"/>
        <pt x="678" y="948" on="1"/>
        <pt x="719" y="1077" on="1"/>
        <pt x="909" y="1077" on="1"/>
        <pt x="873" y="848" on="0"/>
        <pt x="845" y="667" on="1"/>
        <pt x="833" y="589" on="0"/>
        <pt x="810" y="440" on="0"/>
        <pt x="793" y="320" on="0"/>
        <pt x="782" y="244" on="0"/>
        <pt x="782" y="240" on="1"/>
        <pt x="782" y="209" on="0"/>
        <pt x="810" y="182" on="0"/>
        <pt x="831" y="182" on="1"/>
        <pt x="868" y="182" on="1"/>
        <pt x="844" y="8" on="1"/>
        <pt x="825" y="-3" on="0"/>
        <pt x="766" y="-25" on="0"/>
        <pt x="723" y="-25" on="1"/>
        <pt x="655" y="-25" on="0"/>
        <pt x="568" y="51" on="0"/>
        <pt x="553" y="119" on="1"/>
        <pt x="533" y="81" on="0"/>
        <pt x="481" y="27" on="0"/>
        <pt x="424" y="-8" on="0"/>
        <pt x="364" y="-25" on="0"/>
        <pt x="336" y="-25" on="1"/>
        <pt x="199" y="-25" on="0"/>
        <pt x="45" y="165" on="0"/>
        <pt x="45" y="356" on="1"/>
        <pt x="45" y="551" on="0"/>
        <pt x="115" y="833" on="0"/>
        <pt x="230" y="1015" on="0"/>
        <pt x="377" y="1102" on="0"/>
      </contour>
      <contour>
        <pt x="399" y="186" on="1"/>
        <pt x="442" y="186" on="0"/>
        <pt x="506" y="240" on="0"/>
        <pt x="553" y="327" on="0"/>
        <pt x="583" y="437" on="0"/>
        <pt x="601" y="549" on="0"/>
        <pt x="608" y="654" on="0"/>
        <pt x="608" y="692" on="1"/>
        <pt x="608" y="786" on="0"/>
        <pt x="563" y="891" on="0"/>
        <pt x="500" y="891" on="1"/>
        <pt x="457" y="891" on="0"/>
        <pt x="393" y="833" on="0"/>
        <pt x="346" y="741" on="0"/>
        <pt x="315" y="628" on="0"/>
        <pt x="297" y="516" on="0"/>
        <pt x="289" y="419" on="0"/>
        <pt x="289" y="389" on="1"/>
        <pt x="289" y="290" on="0"/>
        <pt x="341" y="186" on="0"/>
      </contour>
    </TTGlyph>
    <TTGlyph name="aacute" xMin="45" yMin="-25" xMax="909" yMax="1481">
      <contour>
        <pt x="834" y="1481" on="1"/>
        <pt x="836" y="1475" on="1"/>
        <pt x="614" y="1210" on="1"/>
        <pt x="412" y="1210" on="1"/>
        <pt x="588" y="1481" on="1"/>
      </contour>
      <contour>
        <pt x="453" y="1102" on="1"/>
        <pt x="538" y="1102" on="0"/>
        <pt x="649" y="1020" on="0"/>
        <pt x="678" y="948" on="1"/>
        <pt x="719" y="1077" on="1"/>
        <pt x="909" y="1077" on="1"/>
        <pt x="873" y="848" on="0"/>
        <pt x="845" y="667" on="1"/>
        <pt x="833" y="589" on="0"/>
        <pt x="810" y="440" on="0"/>
        <pt x="793" y="320" on="0"/>
        <pt x="782" y="244" on="0"/>
        <pt x="782" y="240" on="1"/>
        <pt x="782" y="209" on="0"/>
        <pt x="810" y="182" on="0"/>
        <pt x="831" y="182" on="1"/>
        <pt x="868" y="182" on="1"/>
        <pt x="844" y="8" on="1"/>
        <pt x="825" y="-3" on="0"/>
        <pt x="766" y="-25" on="0"/>
        <pt x="723" y="-25" on="1"/>
        <pt x="655" y="-25" on="0"/>
        <pt x="568" y="51" on="0"/>
        <pt x="553" y="119" on="1"/>
        <pt x="533" y="81" on="0"/>
        <pt x="481" y="27" on="0"/>
        <pt x="424" y="-8" on="0"/>
        <pt x="364" y="-25" on="0"/>
        <pt x="336" y="-25" on="1"/>
        <pt x="199" y="-25" on="0"/>
        <pt x="45" y="165" on="0"/>
        <pt x="45" y="356" on="1"/>
        <pt x="45" y="551" on="0"/>
        <pt x="115" y="833" on="0"/>
        <pt x="230" y="1015" on="0"/>
        <pt x="377" y="1102" on="0"/>
      </contour>
      <contour>
        <pt x="399" y="186" on="1"/>
        <pt x="442" y="186" on="0"/>
        <pt x="506" y="240" on="0"/>
        <pt x="553" y="327" on="0"/>
        <pt x="583" y="437" on="0"/>
        <pt x="601" y="549" on="0"/>
        <pt x="608" y="654" on="0"/>
        <pt x="608" y="692" on="1"/>
        <pt x="608" y="786" on="0"/>
        <pt x="563" y="891" on="0"/>
        <pt x="500" y="891" on="1"/>
        <pt x="457" y="891" on="0"/>
        <pt x="393" y="833" on="0"/>
        <pt x="346" y="741" on="0"/>
        <pt x="315" y="628" on="0"/>
        <pt x="297" y="516" on="0"/>
        <pt x="289" y="419" on="0"/>
        <pt x="289" y="389" on="1"/>
        <pt x="289" y="290" on="0"/>
        <pt x="341" y="186" on="0"/>
      </contour>
    </TTGlyph>
    <TTGlyph name="abreve" xMin="45" yMin="-25" xMax="909" yMax="1481">
      <contour>
        <pt x="557" y="1262" on="1"/>
        <pt x="496" y="1262" on="0"/>
        <pt x="402" y="1296" on="0"/>
        <pt x="337" y="1352" on="0"/>
        <pt x="303" y="1422" on="0"/>
        <pt x="303" y="1458" on="1"/>
        <pt x="303" y="1464" on="0"/>
        <pt x="303" y="1475" on="0"/>
        <pt x="305" y="1481" on="1"/>
        <pt x="457" y="1481" on="1"/>
        <pt x="458" y="1470" on="0"/>
        <pt x="473" y="1446" on="0"/>
        <pt x="502" y="1426" on="0"/>
        <pt x="542" y="1413" on="0"/>
        <pt x="567" y="1413" on="1"/>
        <pt x="593" y="1413" on="0"/>
        <pt x="639" y="1426" on="0"/>
        <pt x="674" y="1446" on="0"/>
        <pt x="697" y="1470" on="0"/>
        <pt x="700" y="1481" on="1"/>
        <pt x="852" y="1481" on="1"/>
        <pt x="847" y="1442" on="0"/>
        <pt x="799" y="1364" on="0"/>
        <pt x="722" y="1301" on="0"/>
        <pt x="618" y="1262" on="0"/>
      </contour>
      <contour>
        <pt x="453" y="1102" on="1"/>
        <pt x="538" y="1102" on="0"/>
        <pt x="649" y="1020" on="0"/>
        <pt x="678" y="948" on="1"/>
        <pt x="719" y="1077" on="1"/>
        <pt x="909" y="1077" on="1"/>
        <pt x="873" y="848" on="0"/>
        <pt x="845" y="667" on="1"/>
        <pt x="833" y="589" on="0"/>
        <pt x="810" y="440" on="0"/>
        <pt x="793" y="320" on="0"/>
        <pt x="782" y="244" on="0"/>
        <pt x="782" y="240" on="1"/>
        <pt x="782" y="209" on="0"/>
        <pt x="810" y="182" on="0"/>
        <pt x="831" y="182" on="1"/>
        <pt x="868" y="182" on="1"/>
        <pt x="844" y="8" on="1"/>
        <pt x="825" y="-3" on="0"/>
        <pt x="766" y="-25" on="0"/>
        <pt x="723" y="-25" on="1"/>
        <pt x="655" y="-25" on="0"/>
        <pt x="568" y="51" on="0"/>
        <pt x="553" y="119" on="1"/>
        <pt x="533" y="81" on="0"/>
        <pt x="481" y="27" on="0"/>
        <pt x="424" y="-8" on="0"/>
        <pt x="364" y="-25" on="0"/>
        <pt x="336" y="-25" on="1"/>
        <pt x="199" y="-25" on="0"/>
        <pt x="45" y="165" on="0"/>
        <pt x="45" y="356" on="1"/>
        <pt x="45" y="551" on="0"/>
        <pt x="115" y="833" on="0"/>
        <pt x="230" y="1015" on="0"/>
        <pt x="377" y="1102" on="0"/>
      </contour>
      <contour>
        <pt x="399" y="186" on="1"/>
        <pt x="442" y="186" on="0"/>
        <pt x="506" y="240" on="0"/>
        <pt x="553" y="327" on="0"/>
        <pt x="583" y="437" on="0"/>
        <pt x="601" y="549" on="0"/>
        <pt x="608" y="654" on="0"/>
        <pt x="608" y="692" on="1"/>
        <pt x="608" y="786" on="0"/>
        <pt x="563" y="891" on="0"/>
        <pt x="500" y="891" on="1"/>
        <pt x="457" y="891" on="0"/>
        <pt x="393" y="833" on="0"/>
        <pt x="346" y="741" on="0"/>
        <pt x="315" y="628" on="0"/>
        <pt x="297" y="516" on="0"/>
        <pt x="289" y="419" on="0"/>
        <pt x="289" y="389" on="1"/>
        <pt x="289" y="290" on="0"/>
        <pt x="341" y="186" on="0"/>
      </contour>
    </TTGlyph>
</ttFont>
